<?xml version="1.0" encoding="UTF-8" standalone="no"?>
<!DOCTYPE svg PUBLIC "-//W3C//DTD SVG 1.1//EN" "http://www.w3.org/Graphics/SVG/1.1/DTD/svg11.dtd">
<svg width="100%" height="100%" viewBox="0 0 866 216" version="1.1" xmlns="http://www.w3.org/2000/svg" xmlns:xlink="http://www.w3.org/1999/xlink" xml:space="preserve" xmlns:serif="http://www.serif.com/" style="fill-rule:evenodd;clip-rule:evenodd;stroke-linejoin:round;stroke-miterlimit:2;">
    <g id="Artboard1" transform="matrix(2.66462,0,0,1.47945,-961.926,-261.863)">
        <rect x="361" y="177" width="325" height="146" style="fill:none;"/>
        <g id="logo_MPDS_black.svg" transform="matrix(3.12741,0,0,5.63272,523.625,250)">
            <g transform="matrix(1,0,0,1,-52,-13)">
                <g transform="matrix(1,0,0,1,0.111828,0.11096)">
                    <g>
                        <path d="M25.935,3.163L25.935,22.659C25.935,24.382 24.528,25.778 22.791,25.778L3.143,25.778C2.512,25.778 1.923,25.593 1.433,25.276C1.31,25.198 1.192,25.11 1.082,25.014C0.563,24.564 0.191,23.951 0.057,23.251C0.044,23.191 0.034,23.132 0.026,23.069C0.01,22.934 -0,22.799 -0,22.659L-0,3.163C-0,3.14 -0,3.114 0.002,3.091C0.039,1.401 1.43,0.044 3.143,0.044L22.791,0.044C22.833,0.044 22.875,0.044 22.917,0.047C23.797,0.081 24.583,0.473 25.133,1.081C25.233,1.19 25.324,1.305 25.403,1.43C25.579,1.687 25.715,1.97 25.804,2.274C25.833,2.368 25.856,2.461 25.875,2.56C25.914,2.755 25.935,2.958 25.935,3.163Z" style="fill:url(#_Linear1);fill-rule:nonzero;"/>
                        <g>
                            <path d="M5.789,0.044C5.182,0.71 4.474,1.336 3.657,1.905C2.628,2.612 1.417,3.221 0,3.667L0,3.34C2.316,2.584 4.05,1.396 5.352,0.044L5.789,0.044Z" style="fill:rgb(242,242,242);fill-rule:nonzero;"/>
                        </g>
                        <g>
                            <path d="M15.54,0C15.538,0.016 15.532,0.028 15.53,0.044C15.108,1.827 14.256,4.154 12.533,6.22C11.838,7.052 11.008,7.837 9.999,8.529C7.785,10.052 4.742,11.11 0.553,11.138L0.243,11.138C0.162,11.138 0.081,11.141 -0,11.143L-0,10.834C0.081,10.831 0.162,10.829 0.246,10.829L0.563,10.829C11.071,10.756 14.246,4.039 15.207,0.044C15.21,0.028 15.215,0.016 15.218,0L15.54,0Z" style="fill:rgb(242,242,242);fill-rule:nonzero;"/>
                            <path d="M6.109,0.044C1.097,3.684 0.613,9.775 0.564,10.828C0.558,10.919 0.558,10.975 0.558,10.979C0.558,10.989 0.558,11.045 0.552,11.138C0.531,11.567 0.439,12.843 0,14.458L0,13.093C0.181,12.147 0.23,11.44 0.244,11.138L0.244,10.979C0.244,10.975 0.244,10.919 0.246,10.828C0.289,9.945 0.634,5.516 3.657,1.905C4.205,1.248 4.843,0.619 5.586,0.044L6.109,0.044Z" style="fill:rgb(242,242,242);fill-rule:nonzero;"/>
                        </g>
                        <g>
                            <path d="M22.93,0C22.925,0.016 22.92,0.031 22.917,0.047C22.409,1.767 22.309,3.15 22.294,3.603C22.291,3.696 22.291,3.751 22.291,3.759C22.291,3.769 22.291,3.818 22.286,3.915C22.246,4.798 21.906,9.22 18.883,12.838C18.189,13.665 17.358,14.452 16.35,15.144C14.133,16.664 11.092,17.727 6.903,17.753L6.594,17.753C3.966,17.769 1.794,18.2 -0,18.902L-0,18.562C1.805,17.878 3.982,17.46 6.601,17.441L6.911,17.441C20.924,17.351 21.906,5.425 21.971,3.915C21.977,3.818 21.977,3.769 21.977,3.759C21.977,3.751 21.977,3.696 21.982,3.603C22.003,3.15 22.1,1.77 22.597,0.044C22.603,0.031 22.605,0.016 22.611,0L22.93,0Z" style="fill:rgb(242,242,242);fill-rule:nonzero;"/>
                            <path d="M25.935,3.278L25.935,3.592C24.827,3.792 23.614,3.907 22.286,3.915L21.971,3.915C7.958,4.008 6.982,15.937 6.911,17.442C6.906,17.538 6.906,17.587 6.906,17.597C6.906,17.608 6.906,17.66 6.903,17.753C6.869,18.565 6.576,22.362 4.183,25.778L3.796,25.778C6.256,22.396 6.555,18.564 6.594,17.753C6.599,17.66 6.599,17.608 6.599,17.597C6.599,17.587 6.599,17.538 6.602,17.442C6.644,16.563 6.982,12.139 9.999,8.529C10.694,7.699 11.529,6.907 12.533,6.22C14.754,4.692 17.798,3.629 21.982,3.603L22.294,3.603C23.619,3.595 24.83,3.481 25.935,3.278Z" style="fill:rgb(242,242,242);fill-rule:nonzero;"/>
                        </g>
                        <g>
                            <path d="M25.935,17.969L25.935,18.536C25.72,18.845 25.487,19.154 25.233,19.456C24.541,20.283 23.711,21.062 22.713,21.746C20.494,23.283 17.447,24.343 13.258,24.369L12.944,24.369C10.007,24.39 7.642,24.926 5.734,25.778L4.993,25.778C7.034,24.746 9.635,24.081 12.954,24.06L13.261,24.06C20.167,24.013 23.907,21.099 25.935,17.969Z" style="fill:rgb(242,242,242);fill-rule:nonzero;"/>
                            <path d="M25.935,10.358L25.935,10.67C14.191,12.017 13.326,22.636 13.261,24.06C13.258,24.151 13.258,24.206 13.258,24.216L13.258,24.369C13.248,24.608 13.214,25.105 13.109,25.778L12.797,25.778C12.902,25.107 12.933,24.608 12.944,24.369C12.949,24.278 12.949,24.224 12.949,24.216C12.949,24.205 12.949,24.151 12.954,24.06C12.994,23.176 13.332,18.757 16.35,15.144C17.044,14.315 17.882,13.524 18.883,12.839C20.654,11.614 22.951,10.694 25.935,10.358Z" style="fill:rgb(242,242,242);fill-rule:nonzero;"/>
                        </g>
                        <g>
                            <path d="M25.935,19.007L25.935,19.378C23.135,21.107 21.576,23.576 20.706,25.778L20.373,25.778C20.876,24.466 21.618,23.051 22.713,21.746C23.402,20.927 24.235,20.145 25.233,19.456C25.458,19.3 25.691,19.149 25.935,19.007Z" style="fill:rgb(242,242,242);fill-rule:nonzero;"/>
                        </g>
                        <path d="M22.726,13.301C22.726,19.26 18.328,24.088 12.902,24.088C7.476,24.088 3.078,19.26 3.078,13.301" style="fill:url(#_Radial2);fill-rule:nonzero;"/>
                        <path d="M22.791,12.911C22.791,18.295 18.394,22.659 12.967,22.659C7.541,22.659 3.143,18.295 3.143,12.911C3.143,7.527 7.541,3.163 12.967,3.163C18.393,3.163 22.791,7.527 22.791,12.911Z" style="fill:url(#_Radial3);fill-rule:nonzero;"/>
                        <ellipse cx="12.967" cy="12.911" rx="8.252" ry="8.188" style="fill:url(#_Linear4);"/>
                        <ellipse cx="12.967" cy="12.911" rx="7.597" ry="7.538" style="fill:url(#_Radial5);"/>
                        <path d="M19.032,11.869C18.537,8.991 16.009,6.802 12.967,6.802C9.567,6.802 6.811,9.537 6.811,12.911C6.811,16.285 9.567,19.019 12.967,19.019C13.976,19.019 14.927,18.78 15.765,18.351C17.758,17.343 19.124,15.284 19.124,12.911C19.124,12.555 19.092,12.207 19.032,11.869ZM14.804,17.501C14.235,17.725 13.617,17.85 12.967,17.85C10.219,17.85 7.99,15.638 7.99,12.911C7.99,10.184 10.219,7.972 12.967,7.972C15.262,7.972 17.198,9.516 17.769,11.614C17.884,12.027 17.945,12.464 17.945,12.911C17.945,14.993 16.645,16.776 14.804,17.501Z" style="fill:url(#_Linear6);fill-rule:nonzero;"/>
                        <path d="M17.945,12.911C17.945,14.772 16.91,16.392 15.377,17.234C14.665,17.626 13.842,17.85 12.967,17.85C10.463,17.85 8.393,16.017 8.042,13.631C8.008,13.394 7.99,13.155 7.99,12.911C7.99,12.763 7.998,12.615 8.011,12.469C8.116,11.289 8.64,10.229 9.431,9.436C9.441,9.425 9.452,9.412 9.464,9.402C10.363,8.518 11.6,7.972 12.967,7.972C14.549,7.972 15.956,8.703 16.868,9.841C17.408,10.517 17.772,11.339 17.898,12.235C17.908,12.313 17.916,12.391 17.924,12.469C17.937,12.615 17.945,12.763 17.945,12.911Z" style="fill:url(#_Radial7);fill-rule:nonzero;"/>
                        <path d="M17.159,12.911C17.159,15.209 15.283,17.07 12.967,17.07C10.651,17.07 8.776,15.209 8.776,12.911C8.776,10.613 10.651,8.752 12.967,8.752C15.283,8.752 17.159,10.613 17.159,12.911Z" style="fill:url(#_Radial8);fill-rule:nonzero;"/>
                        <g>
                            <path d="M16.373,12.911C16.373,14.778 14.849,16.29 12.967,16.29C11.085,16.29 9.562,14.778 9.562,12.911C9.562,11.044 11.085,9.532 12.967,9.532C14.849,9.532 16.373,11.044 16.373,12.911Z" style="fill:url(#_Radial9);fill-rule:nonzero;"/>
                        </g>
                        <path d="M15.456,12.911C15.456,14.275 14.342,15.38 12.967,15.38C11.592,15.38 10.479,14.275 10.479,12.911C10.479,11.547 11.592,10.442 12.967,10.442C14.342,10.442 15.456,11.547 15.456,12.911Z" style="fill:url(#_Radial10);fill-rule:nonzero;"/>
                        <path d="M14.932,12.911C14.932,13.988 14.052,14.86 12.967,14.86C11.881,14.86 11.002,13.988 11.002,12.911C11.002,11.834 11.881,10.961 12.967,10.961C14.052,10.961 14.932,11.834 14.932,12.911Z" style="fill:url(#_Radial11);fill-rule:nonzero;"/>
                        <path d="M11.788,2.384" style="fill:url(#_Radial12);"/>
                        <path d="M17.898,12.235C17.038,13.358 15.676,14.081 14.146,14.081C11.552,14.081 9.449,12.004 9.431,9.436C10.332,8.531 11.581,7.972 12.967,7.972C15.487,7.972 17.565,9.825 17.898,12.235Z" style="fill:rgb(217,228,250);fill-opacity:0.2;fill-rule:nonzero;"/>
                        <path d="M8.037,13.587C8.896,12.464 10.259,11.741 11.788,11.741C14.382,11.741 16.485,13.818 16.504,16.386C15.602,17.291 14.353,17.85 12.967,17.85C10.447,17.85 8.369,15.996 8.037,13.587Z" style="fill:rgb(217,228,250);fill-opacity:0.1;fill-rule:nonzero;"/>
                        <path d="M11.788,11.741C11.788,13.033 10.733,14.081 9.431,14.081C8.912,14.081 8.43,13.914 8.042,13.631C8.008,13.394 7.99,13.155 7.99,12.911C7.99,12.763 7.997,12.615 8.011,12.469C8.116,11.289 8.64,10.228 9.431,9.436C9.441,9.425 9.452,9.412 9.464,9.402C10.751,9.42 11.788,10.46 11.788,11.741Z" style="fill:rgb(217,228,250);fill-opacity:0.1;fill-rule:nonzero;"/>
                        <path d="M17.945,12.911C17.945,14.772 16.91,16.392 15.377,17.234C14.615,16.402 14.146,15.295 14.146,14.081C14.146,12.204 15.26,10.584 16.868,9.841C17.408,10.517 17.772,11.338 17.898,12.235C17.908,12.313 17.916,12.391 17.924,12.469C17.937,12.615 17.945,12.763 17.945,12.911Z" style="fill:rgb(217,228,250);fill-opacity:0;fill-rule:nonzero;"/>
                        <path d="M16.242,10.572C16.242,11.074 15.831,11.481 15.325,11.481C14.818,11.481 14.408,11.074 14.408,10.572C14.408,10.069 14.818,9.662 15.325,9.662C15.831,9.662 16.242,10.069 16.242,10.572Z" style="fill:url(#_Radial13);fill-rule:nonzero;"/>
                        <ellipse cx="10.347" cy="14.991" rx="0.393" ry="0.39" style="fill:url(#_Radial14);"/>
                    </g>
                    <g>
                        <path d="M64.847,4.996C64.837,4.988 64.828,4.982 64.819,4.975C64.468,4.729 64.089,4.512 63.683,4.327C63.648,4.312 63.611,4.296 63.576,4.282C62.814,3.971 62.095,3.84 61.728,3.788C61.683,3.782 61.642,3.778 61.607,3.773C61.564,3.767 61.519,3.763 61.474,3.761C61.269,3.741 61.064,3.731 60.861,3.731C59.598,3.731 58.024,4.164 56.966,5.321L56.966,5.077C56.966,4.329 56.526,3.883 55.788,3.883C55.025,3.883 54.533,4.351 54.533,5.077L54.533,20.865C54.533,21.64 55.158,22.047 55.775,22.047C56.392,22.047 57.017,21.64 57.017,20.865L57.017,16.304C57.909,17.205 59.301,17.737 60.861,17.737C64.794,17.737 67.616,15.012 67.727,11.111C67.795,8.525 66.741,6.336 64.847,4.996ZM64.882,12.84C64.23,14.38 62.621,15.374 60.797,15.374C58.573,15.276 57.017,13.791 57.017,11.764L57.017,9.755C57.017,7.245 59.082,6.1 61.002,6.094C61.961,6.171 62.812,6.482 63.458,6.989C64.669,7.991 65.269,9.364 65.243,11.065C65.22,11.656 65.087,12.305 64.882,12.84Z" style="fill:url(#_Linear15);fill-rule:nonzero;"/>
                        <path d="M48.532,4.011C48.08,4.011 47.661,4.259 47.381,4.694L41.439,13.952L35.457,4.71C35.21,4.267 34.789,4.003 34.332,4.003C33.754,4.003 33.139,4.463 33.139,5.315L33.139,19.959C33.139,20.76 33.764,21.179 34.382,21.179C34.999,21.179 35.624,20.76 35.624,19.959L35.624,9.457L40.277,16.654C40.513,17.096 40.939,17.359 41.418,17.359C41.899,17.359 42.333,17.093 42.57,16.666L47.231,9.435L47.231,19.959C47.231,20.76 47.856,21.179 48.473,21.179C49.091,21.179 49.716,20.76 49.716,19.959L49.716,5.315C49.716,4.459 49.12,4.011 48.532,4.011Z" style="fill:url(#_Linear16);fill-rule:nonzero;"/>
                        <path d="M77.95,4.171L72.365,4.171C71.546,4.171 70.879,4.787 70.879,5.544L70.879,19.552C70.879,20.31 71.56,20.95 72.365,20.95L77.95,20.95C83.407,20.95 85.893,16.601 85.893,12.561C85.893,8.52 83.407,4.171 77.95,4.171ZM77.95,18.687L73.339,18.687L73.339,6.408L77.95,6.408C81.7,6.408 83.408,9.597 83.408,12.561C83.408,15.511 81.7,18.687 77.95,18.687Z" style="fill:url(#_Linear17);fill-rule:nonzero;"/>
                        <path d="M96.602,11.374L96.216,11.341C92.95,11.09 90.966,10.805 90.966,8.976C90.966,6.776 94.476,6.281 95.706,6.281C97.643,6.281 100.094,6.641 100.779,8.362C100.957,8.761 101.359,8.999 101.856,8.999C102.317,8.999 102.763,8.787 102.991,8.46C103.181,8.188 103.217,7.855 103.091,7.523C101.945,4.438 98.429,3.79 95.68,3.79C92.039,3.79 88.353,5.563 88.353,8.951C88.353,13.051 92.573,13.384 95.963,13.653L96.112,13.665C99.271,13.92 101.189,14.203 101.189,15.967C101.189,18.808 96.474,18.891 95.937,18.891C94.579,18.891 91.355,18.662 90.675,16.551C90.565,16.04 90.112,15.711 89.515,15.711C89.047,15.711 88.603,15.912 88.355,16.235C88.152,16.498 88.091,16.829 88.184,17.167C89.036,20.241 92.893,21.331 95.937,21.331C99.553,21.331 103.776,19.92 103.776,15.942C103.776,11.987 99.964,11.661 96.602,11.374Z" style="fill:url(#_Linear18);fill-rule:nonzero;"/>
                    </g>
                </g>
            </g>
        </g>
    </g>
    <defs>
        <linearGradient id="_Linear1" x1="0" y1="0" x2="1" y2="0" gradientUnits="userSpaceOnUse" gradientTransform="matrix(42.7921,-24.5143,24.5143,42.7921,-6.2069,23.8954)"><stop offset="0" style="stop-color:rgb(76,179,186);stop-opacity:1"/><stop offset="0.61" style="stop-color:rgb(0,158,169);stop-opacity:1"/><stop offset="1" style="stop-color:rgb(0,158,169);stop-opacity:1"/></linearGradient>
        <radialGradient id="_Radial2" cx="0" cy="0" r="1" gradientUnits="userSpaceOnUse" gradientTransform="matrix(7.90837,0,0,7.90837,12.9016,18.6947)"><stop offset="0" style="stop-color:rgb(51,51,51);stop-opacity:0.18"/><stop offset="0.34" style="stop-color:rgb(51,51,51);stop-opacity:0.18"/><stop offset="1" style="stop-color:black;stop-opacity:0.3"/></radialGradient>
        <radialGradient id="_Radial3" cx="0" cy="0" r="1" gradientUnits="userSpaceOnUse" gradientTransform="matrix(9.7859,0,0,9.7859,12.9672,12.9111)"><stop offset="0" style="stop-color:white;stop-opacity:1"/><stop offset="0.93" style="stop-color:white;stop-opacity:1"/><stop offset="1" style="stop-color:rgb(204,204,204);stop-opacity:1"/></radialGradient>
        <linearGradient id="_Linear4" x1="0" y1="0" x2="1" y2="0" gradientUnits="userSpaceOnUse" gradientTransform="matrix(-1.11828e-05,23.4213,-23.4213,-1.11828e-05,12.9672,0.997234)"><stop offset="0" style="stop-color:white;stop-opacity:1"/><stop offset="0.28" style="stop-color:white;stop-opacity:1"/><stop offset="1" style="stop-color:rgb(102,102,102);stop-opacity:1"/></linearGradient>
        <radialGradient id="_Radial5" cx="0" cy="0" r="1" gradientUnits="userSpaceOnUse" gradientTransform="matrix(-7.56766,0,0,-7.56766,12.9672,12.9109)"><stop offset="0" style="stop-color:rgb(102,102,102);stop-opacity:1"/><stop offset="0.59" style="stop-color:rgb(102,102,102);stop-opacity:1"/><stop offset="1" style="stop-color:rgb(51,51,51);stop-opacity:1"/></radialGradient>
        <linearGradient id="_Linear6" x1="0" y1="0" x2="1" y2="0" gradientUnits="userSpaceOnUse" gradientTransform="matrix(-1.11828e-05,17.4732,-17.4732,-1.11828e-05,12.9672,4.02286)"><stop offset="0" style="stop-color:white;stop-opacity:1"/><stop offset="0.28" style="stop-color:white;stop-opacity:1"/><stop offset="1" style="stop-color:rgb(102,102,102);stop-opacity:1"/></linearGradient>
        <radialGradient id="_Radial7" cx="0" cy="0" r="1" gradientUnits="userSpaceOnUse" gradientTransform="matrix(4.95817,0,0,4.95817,12.9673,12.9109)"><stop offset="0" style="stop-color:rgb(26,26,26);stop-opacity:1"/><stop offset="0.89" style="stop-color:rgb(31,31,31);stop-opacity:1"/><stop offset="0.94" style="stop-color:rgb(47,47,47);stop-opacity:1"/><stop offset="0.99" style="stop-color:rgb(72,72,72);stop-opacity:1"/><stop offset="1" style="stop-color:rgb(77,77,77);stop-opacity:1"/></radialGradient>
        <radialGradient id="_Radial8" cx="0" cy="0" r="1" gradientUnits="userSpaceOnUse" gradientTransform="matrix(4.17536,0,0,4.17536,12.9673,12.9109)"><stop offset="0" style="stop-color:rgb(26,26,26);stop-opacity:1"/><stop offset="0.89" style="stop-color:rgb(31,31,31);stop-opacity:1"/><stop offset="0.94" style="stop-color:rgb(47,47,47);stop-opacity:1"/><stop offset="0.99" style="stop-color:rgb(72,72,72);stop-opacity:1"/><stop offset="1" style="stop-color:rgb(77,77,77);stop-opacity:1"/></radialGradient>
        <radialGradient id="_Radial9" cx="0" cy="0" r="1" gradientUnits="userSpaceOnUse" gradientTransform="matrix(3.39244,0,0,3.39244,12.9672,12.9109)"><stop offset="0" style="stop-color:rgb(26,26,26);stop-opacity:1"/><stop offset="0.89" style="stop-color:rgb(31,31,31);stop-opacity:1"/><stop offset="0.94" style="stop-color:rgb(47,47,47);stop-opacity:1"/><stop offset="0.99" style="stop-color:rgb(72,72,72);stop-opacity:1"/><stop offset="1" style="stop-color:rgb(77,77,77);stop-opacity:1"/></radialGradient>
        <radialGradient id="_Radial10" cx="0" cy="0" r="1" gradientUnits="userSpaceOnUse" gradientTransform="matrix(2.47905,0,0,2.47905,12.9672,12.911)"><stop offset="0" style="stop-color:rgb(26,26,26);stop-opacity:1"/><stop offset="0.89" style="stop-color:rgb(31,31,31);stop-opacity:1"/><stop offset="0.94" style="stop-color:rgb(47,47,47);stop-opacity:1"/><stop offset="0.99" style="stop-color:rgb(72,72,72);stop-opacity:1"/><stop offset="1" style="stop-color:rgb(77,77,77);stop-opacity:1"/></radialGradient>
        <radialGradient id="_Radial11" cx="0" cy="0" r="1" gradientUnits="userSpaceOnUse" gradientTransform="matrix(1.95725,0,0,1.95725,12.9672,12.9109)"><stop offset="0" style="stop-color:rgb(26,26,26);stop-opacity:1"/><stop offset="0.28" style="stop-color:rgb(26,26,26);stop-opacity:1"/><stop offset="0.66" style="stop-color:black;stop-opacity:1"/><stop offset="1" style="stop-color:rgb(26,26,26);stop-opacity:1"/></radialGradient>
        <radialGradient id="_Radial12" cx="0" cy="0" r="1" gradientUnits="userSpaceOnUse" gradientTransform="matrix(2e-06,0,0,2e-06,11.7884,2.38354)"><stop offset="0" style="stop-color:rgb(102,102,102);stop-opacity:1"/><stop offset="0.59" style="stop-color:rgb(102,102,102);stop-opacity:1"/><stop offset="1" style="stop-color:black;stop-opacity:1"/></radialGradient>
        <radialGradient id="_Radial13" cx="0" cy="0" r="1" gradientUnits="userSpaceOnUse" gradientTransform="matrix(0.913384,0,0,0.913384,15.3249,10.5715)"><stop offset="0" style="stop-color:white;stop-opacity:1"/><stop offset="0.93" style="stop-color:white;stop-opacity:1"/><stop offset="1" style="stop-color:rgb(204,204,204);stop-opacity:1"/></radialGradient>
        <radialGradient id="_Radial14" cx="0" cy="0" r="1" gradientUnits="userSpaceOnUse" gradientTransform="matrix(0.391465,0,0,0.391465,10.3475,14.9905)"><stop offset="0" style="stop-color:white;stop-opacity:1"/><stop offset="0.93" style="stop-color:white;stop-opacity:1"/><stop offset="1" style="stop-color:rgb(204,204,204);stop-opacity:1"/></radialGradient>
        <linearGradient id="_Linear15" x1="0" y1="0" x2="1" y2="0" gradientUnits="userSpaceOnUse" gradientTransform="matrix(9.92393,-17.0554,17.0554,9.92393,53.8798,21.2772)"><stop offset="0" style="stop-color:rgb(76,179,186);stop-opacity:1"/><stop offset="0.22" style="stop-color:rgb(76,179,186);stop-opacity:1"/><stop offset="1" style="stop-color:rgb(0,158,169);stop-opacity:1"/></linearGradient>
        <linearGradient id="_Linear16" x1="0" y1="0" x2="1" y2="0" gradientUnits="userSpaceOnUse" gradientTransform="matrix(1.01286e-15,16.5413,-16.5413,1.01286e-15,41.4278,3.91661)"><stop offset="0" style="stop-color:rgb(128,128,128);stop-opacity:1"/><stop offset="0.69" style="stop-color:rgb(51,51,51);stop-opacity:1"/><stop offset="1" style="stop-color:rgb(51,51,51);stop-opacity:1"/></linearGradient>
        <linearGradient id="_Linear17" x1="0" y1="0" x2="1" y2="0" gradientUnits="userSpaceOnUse" gradientTransform="matrix(9.21576e-16,15.0505,-15.0505,9.21576e-16,78.3859,4.3235)"><stop offset="0" style="stop-color:rgb(128,128,128);stop-opacity:1"/><stop offset="0.69" style="stop-color:rgb(51,51,51);stop-opacity:1"/><stop offset="1" style="stop-color:rgb(51,51,51);stop-opacity:1"/></linearGradient>
        <linearGradient id="_Linear18" x1="0" y1="0" x2="1" y2="0" gradientUnits="userSpaceOnUse" gradientTransform="matrix(9.63962e-16,15.7427,-15.7427,9.63962e-16,95.9589,4.18778)"><stop offset="0" style="stop-color:rgb(128,128,128);stop-opacity:1"/><stop offset="0.69" style="stop-color:rgb(51,51,51);stop-opacity:1"/><stop offset="1" style="stop-color:rgb(51,51,51);stop-opacity:1"/></linearGradient>
    </defs>
</svg>
