<?xml version="1.0" encoding="UTF-8" standalone="no"?>
<!DOCTYPE svg PUBLIC "-//W3C//DTD SVG 1.1//EN" "http://www.w3.org/Graphics/SVG/1.1/DTD/svg11.dtd">
<svg width="100%" height="100%" viewBox="0 0 550 115" version="1.1" xmlns="http://www.w3.org/2000/svg" xmlns:xlink="http://www.w3.org/1999/xlink" xml:space="preserve" xmlns:serif="http://www.serif.com/" style="fill-rule:evenodd;clip-rule:evenodd;stroke-linejoin:round;stroke-miterlimit:2;">
    <g transform="matrix(1,0,0,1,-6125.34,-342.504)">
        <g id="Page-5" serif:id="Page 5" transform="matrix(0.429241,0,0,0.14293,6125.34,342.504)">
            <rect x="0" y="0" width="1280" height="800" style="fill:none;"/>
            <g transform="matrix(2.32969,0,0,6.99643,-851.003,-2398.58)">
                <g id="Layer-1" serif:id="Layer 1">
                    <g>
                        <g transform="matrix(1,0,0,1,482.808,353.212)">
                            <path d="M0,86.075L-52.311,-6.423C-55.088,-11.074 -61.841,-11.061 -64.609,-6.406L-116.28,86.262C-119.137,91.061 -115.673,97.149 -110.109,97.139L-6.154,96.953C-0.556,96.953 2.882,90.841 0,86.075" style="fill:rgb(0,151,209);fill-rule:nonzero;"/>
                        </g>
                        <g transform="matrix(1,0,0,1,486.94,369.675)">
                            <path d="M0,61.763L-63.187,-21.761C-66.503,-25.937 -73.108,-25.043 -75.209,-20.136L-113.573,77.152C-115.733,82.21 -111.55,87.7 -106.115,86.949L-4.584,73.199C0.876,72.464 3.445,66.06 0,61.763" style="fill:rgb(0,76,105);fill-rule:nonzero;"/>
                        </g>
                        <g transform="matrix(1,0,0,1,471.584,380.057)">
                            <path d="M0,44.933L-45.947,-15.816C-48.377,-18.857 -53.169,-18.206 -54.696,-14.63L-82.592,56.111C-84.163,59.795 -81.125,63.79 -77.167,63.259L-3.334,53.242C0.642,52.71 2.508,48.048 0,44.933" style="fill:rgb(38,170,225);fill-rule:nonzero;"/>
                        </g>
                        <g transform="matrix(1,0,0,1,455.23,393.141)">
                            <path d="M0,27.994L-28.637,-9.868C-30.148,-11.765 -33.144,-11.357 -34.1,-9.128L-51.481,34.976C-52.462,37.262 -50.578,39.759 -48.096,39.423L-2.075,33.177C0.398,32.84 1.563,29.934 0,27.994" style="fill:white;fill-rule:nonzero;"/>
                        </g>
                        <g transform="matrix(1,0,0,1,559.506,396.545)">
                            <path d="M0,8.281L-14.59,8.281L-14.59,-17.419L0.358,-17.419C10.003,-17.419 15.134,-10.698 15.215,-4.042C15.298,-0.939 14.197,1.95 12.112,4.087C9.439,6.832 5.251,8.281 0,8.281M0.268,-25.979L-19.094,-25.979C-21.716,-25.979 -23.773,-23.999 -23.773,-21.475L-23.773,29.914C-23.773,31.231 -23.238,32.398 -22.266,33.197C-21.435,33.883 -20.34,34.26 -19.181,34.26C-16.897,34.26 -14.59,32.736 -14.59,29.824L-14.59,16.841L0,16.841C17.924,16.841 24.309,6.035 24.309,-4.077C24.309,-14.626 16.787,-25.979 0.268,-25.979" style="fill:rgb(38,170,225);fill-rule:nonzero;"/>
                        </g>
                        <g transform="matrix(1,0,0,1,643.689,410.289)">
                            <path d="M0,-19.123C0.069,-16.489 -0.794,-14.171 -2.5,-12.42C-5.056,-9.794 -9.453,-8.406 -15.217,-8.406L-31.857,-8.406L-31.857,-30.985L-15.217,-30.985C-6.201,-30.985 -0.09,-26.227 0,-19.123M9.357,-19.16C9.357,-29.394 1.732,-39.723 -15.308,-39.723L-36.449,-39.723C-39.161,-39.723 -41.132,-37.828 -41.132,-35.219L-41.132,15.992C-41.132,17.322 -40.594,18.498 -39.621,19.303C-38.793,19.99 -37.689,20.371 -36.523,20.371C-34.205,20.371 -31.857,18.836 -31.857,15.902L-31.857,-0.026L-16.536,-0.026L1.104,19.093C2.045,20.065 3.261,20.6 4.528,20.6C6.382,20.6 8.082,19.486 8.772,17.828C9.45,16.185 8.985,14.334 7.566,12.912L-5.237,-0.916C4.202,-3.318 9.357,-9.721 9.357,-19.16" style="fill:rgb(38,170,225);fill-rule:nonzero;"/>
                        </g>
                        <g transform="matrix(1,0,0,1,678.721,431.072)">
                            <path d="M0,-62.567C-2.336,-62.567 -4.701,-60.956 -4.701,-57.875L-4.701,-4.525C-4.701,-1.553 -2.35,0 -0.031,0C2.286,0 4.747,-1.586 4.747,-4.525L4.747,-57.875C4.747,-60.923 2.303,-62.567 0,-62.567" style="fill:rgb(38,170,225);fill-rule:nonzero;"/>
                        </g>
                        <g transform="matrix(1,0,0,1,730.739,404.88)">
                            <path d="M0,-8.945L-1.346,-9.059C-12.544,-9.929 -19.345,-10.9 -19.345,-17.052C-19.345,-24.52 -7.35,-26.203 -3.146,-26.203C3.498,-26.203 11.909,-24.975 14.236,-19.085C14.904,-17.567 16.409,-16.663 18.269,-16.663C20,-16.664 21.61,-17.439 22.478,-18.689C23.199,-19.728 23.333,-21.001 22.861,-22.258C18.812,-33.255 6.432,-35.561 -3.238,-35.561C-16.067,-35.561 -29.063,-29.235 -29.063,-17.141C-29.063,-2.468 -14.211,-1.285 -2.278,-0.332L-1.759,-0.291C9.063,0.592 15.635,1.556 15.635,7.481C15.635,17.153 -0.503,17.434 -2.344,17.434C-6.996,17.434 -18.052,16.654 -20.368,9.451C-20.786,7.52 -22.479,6.277 -24.705,6.277C-26.43,6.277 -28.068,7.026 -28.994,8.234C-29.759,9.237 -29.986,10.492 -29.635,11.774C-26.624,22.728 -13.052,26.616 -2.344,26.616C10.39,26.616 25.265,21.58 25.265,7.392C25.265,-6.77 11.839,-7.925 0,-8.945" style="fill:rgb(38,170,225);fill-rule:nonzero;"/>
                        </g>
                        <g transform="matrix(1,0,0,1,829.19,430.936)">
                            <path d="M0,-60.842C-1.681,-60.842 -3.233,-59.918 -4.267,-58.303L-24.696,-26.221L-45.256,-58.232C-46.179,-59.883 -47.744,-60.868 -49.45,-60.868C-51.61,-60.868 -53.912,-59.148 -53.912,-55.955L-53.912,-4.567C-53.912,-1.552 -51.576,0.026 -49.276,0.026C-46.972,0.026 -44.637,-1.552 -44.637,-4.567L-44.637,-40.364L-29.011,-16.004C-28.135,-14.36 -26.555,-13.379 -24.771,-13.379C-22.982,-13.379 -21.368,-14.371 -20.499,-15.957L-4.841,-40.441L-4.841,-4.567C-4.841,-1.552 -2.509,0.026 -0.204,0.026C2.101,0.026 4.432,-1.552 4.432,-4.567L4.432,-55.955C4.432,-58.741 2.524,-60.842 0,-60.842" style="fill:rgb(38,170,225);fill-rule:nonzero;"/>
                        </g>
                        <g transform="matrix(1,0,0,1,894.693,393.205)">
                            <path d="M0,13.584L-23.637,13.584L-11.78,-10.054L0,13.584ZM19.142,31.159L-7.708,-21.645C-8.533,-23.183 -10.017,-24.066 -11.774,-24.066C-13.653,-24.066 -15.262,-23.109 -15.95,-21.614L-42.92,31.528C-43.524,32.869 -43.441,34.256 -42.683,35.43C-41.811,36.777 -40.135,37.65 -38.419,37.65C-36.705,37.65 -35.256,36.765 -34.549,35.311L-27.703,21.965L4.146,21.965L10.717,35.018C11.48,36.586 13.056,37.524 14.928,37.524C16.801,37.524 18.528,36.609 19.328,35.189C20.021,33.961 19.953,32.533 19.142,31.159" style="fill:rgb(38,170,225);fill-rule:nonzero;"/>
                        </g>
                    </g>
                </g>
            </g>
        </g>
    </g>
</svg>
