<?xml version="1.0" encoding="UTF-8" standalone="no"?>
<!DOCTYPE svg PUBLIC "-//W3C//DTD SVG 1.1//EN" "http://www.w3.org/Graphics/SVG/1.1/DTD/svg11.dtd">
<svg width="100%" height="100%" viewBox="0 0 586 115" version="1.1" xmlns="http://www.w3.org/2000/svg" xmlns:xlink="http://www.w3.org/1999/xlink" xml:space="preserve" xmlns:serif="http://www.serif.com/" style="fill-rule:evenodd;clip-rule:evenodd;stroke-linejoin:round;stroke-miterlimit:2;">
    <g transform="matrix(1,0,0,1,-6125.34,-342.504)">
        <g id="Page-5" serif:id="Page 5" transform="matrix(0.457366,0,0,0.14293,6125.34,342.504)">
            <rect x="0" y="0" width="1280" height="800" style="fill:none;"/>
            <g transform="matrix(2.18643,0,0,6.99643,-759.836,-2398.58)">
                <g id="Layer-1" serif:id="Layer 1">
                    <g>
                        <g transform="matrix(1,0,0,1,384.746,453.264)">
                            <path d="M0,-34.83L-34.141,-34.83C-28.594,-18.699 -15.99,-5.846 0,0L0,-34.83Z" style="fill:rgb(97,95,214);fill-rule:nonzero;"/>
                        </g>
                        <g transform="matrix(1,0,0,1,460.908,398.188)">
                            <path d="M0,1.815C0,18.122 -6.906,32.833 -17.926,43.163C-24.734,49.558 -33.121,54.288 -42.43,56.696L-42.465,56.696L-42.465,19.935C-42.457,19.935 -42.443,19.935 -42.43,19.927C-41.094,19.724 -39.787,19.44 -38.516,19.067C-37.674,18.819 -36.84,18.536 -36.033,18.228C-35.213,17.899 -34.422,17.554 -33.645,17.165C-33.637,17.165 -33.637,17.165 -33.637,17.155C-32.855,16.773 -32.105,16.357 -31.367,15.905C-30.635,15.454 -29.912,14.978 -29.219,14.462C-28.527,13.956 -27.865,13.417 -27.213,12.841C-26.883,12.55 -26.57,12.267 -26.273,11.966C-25.027,10.761 -23.891,9.468 -22.879,8.075C-22.371,7.386 -21.893,6.659 -21.449,5.931C-18.76,1.492 -17.223,-3.716 -17.223,-9.279C-17.223,-9.691 -17.232,-10.086 -17.248,-10.474C-17.258,-10.822 -17.273,-11.158 -17.312,-11.486C-17.332,-11.843 -17.361,-12.21 -17.422,-12.562C-17.918,-17.226 -19.527,-21.552 -21.967,-25.298C-22.025,-25.387 -22.07,-25.48 -22.123,-25.552L-22.131,-25.57C-24.322,-28.864 -27.148,-31.685 -30.439,-33.871L-30.447,-33.883L-30.457,-33.883C-33.988,-36.233 -38.059,-37.837 -42.43,-38.484C-43.842,-38.679 -45.283,-38.798 -46.748,-38.798C-61.957,-38.798 -74.521,-27.234 -76.102,-12.433L-111.57,-12.433C-105.25,-36.85 -83.08,-54.881 -56.695,-54.881C-27.674,-54.881 -3.752,-33.072 -0.408,-4.952C-0.365,-4.542 -0.318,-4.129 -0.279,-3.704C-0.1,-1.896 0,-0.049 0,1.815" style="fill:rgb(97,95,214);fill-rule:nonzero;"/>
                        </g>
                        <g transform="matrix(1,0,0,1,347.523,377.817)">
                            <path d="M0,22.186C0,25.142 0.227,28.048 0.668,30.874L66.637,30.874C77.543,30.874 86.424,21.999 86.424,11.092C86.424,0.183 77.543,-8.688 66.637,-8.688C56.809,-8.688 48.648,-1.475 47.131,7.944L68.488,7.944C71.18,7.944 73.357,10.11 73.357,12.791C73.357,15.489 71.18,17.667 68.488,17.667L0.201,17.667C0.088,19.161 0,20.658 0,22.186" style="fill:rgb(73,71,161);fill-rule:nonzero;"/>
                        </g>
                        <g transform="matrix(1,0,0,1,408.717,456.694)">
                            <path d="M0,-38.26L-14.229,-38.26L-14.229,-0.85C-11.064,-0.303 -7.816,0 -4.504,0C-2.986,0 -1.488,-0.08 0,-0.196L0,-38.26Z" style="fill:rgb(73,71,161);fill-rule:nonzero;"/>
                        </g>
                        <g transform="matrix(1,0,0,1,532.447,396.118)">
                            <path d="M0,8.468L-14.922,8.468L-14.922,-17.818L0.363,-17.818C10.23,-17.818 15.477,-10.943 15.559,-4.138C15.643,-0.96 14.518,1.991 12.387,4.178C9.652,6.982 5.369,8.468 0,8.468M0.273,-26.568L-19.527,-26.568C-22.213,-26.568 -24.314,-24.544 -24.314,-21.966L-24.314,30.593C-24.314,33.484 -21.898,35.036 -19.619,35.036C-17.287,35.036 -14.922,33.476 -14.922,30.497L-14.922,17.226L0,17.226C18.328,17.226 24.861,6.175 24.861,-4.171C24.861,-14.962 17.164,-26.568 0.273,-26.568" style="fill:rgb(97,95,214);fill-rule:nonzero;"/>
                        </g>
                        <g transform="matrix(1,0,0,1,618.539,410.176)">
                            <path d="M0,-19.559C0.068,-16.867 -0.812,-14.497 -2.557,-12.709C-5.168,-10.019 -9.67,-8.603 -15.563,-8.603L-32.58,-8.603L-32.58,-31.694L-15.563,-31.694C-6.342,-31.694 -0.09,-26.825 0,-19.559M9.57,-19.601C9.57,-30.061 1.771,-40.625 -15.654,-40.625L-37.279,-40.625C-40.053,-40.625 -42.064,-38.69 -42.064,-36.024L-42.064,16.354C-42.064,17.715 -41.518,18.914 -40.523,19.738C-39.67,20.441 -38.545,20.832 -37.352,20.832C-34.982,20.832 -32.58,19.262 -32.58,16.258L-32.58,-0.027L-16.91,-0.027L1.129,19.522C2.092,20.52 3.338,21.066 4.631,21.066C6.523,21.066 8.268,19.93 8.971,18.229C9.664,16.553 9.188,14.66 7.734,13.201L-5.355,-0.939C4.297,-3.394 9.57,-9.941 9.57,-19.601" style="fill:rgb(97,95,214);fill-rule:nonzero;"/>
                        </g>
                        <g transform="matrix(1,0,0,1,677.613,377.509)">
                            <path d="M0,44.872C-12.547,44.872 -21.309,35.399 -21.309,21.832C-21.309,10.157 -14.773,1.885 -4.27,0.235C-3.068,0.063 -1.822,-0.025 -0.572,-0.025C0.686,-0.025 1.979,0.063 3.238,0.227C13.715,1.928 21.033,10.817 21.033,21.832C21.033,35.399 12.383,44.872 0,44.872M4.449,-8.679C0.672,-9.113 -2.365,-9.113 -5.602,-8.67C-20.543,-6.327 -30.977,6.104 -30.977,21.555C-30.977,40.651 -18.238,53.985 0,53.985C17.449,53.985 30.607,40.044 30.607,21.555C30.607,6.399 19.631,-6.318 4.449,-8.679" style="fill:rgb(97,95,214);fill-rule:nonzero;"/>
                        </g>
                        <g transform="matrix(1,0,0,1,752.156,378.396)">
                            <path d="M0,43.34L-16.105,43.34L-16.105,-0.096L0,-0.096C13.139,-0.096 19.119,11.188 19.119,21.673C19.119,32.108 13.139,43.34 0,43.34M0,-8.76L-19.891,-8.76C-22.98,-8.76 -25.498,-6.398 -25.498,-3.508L-25.498,46.762C-25.498,49.651 -22.928,52.1 -19.891,52.1L0,52.1C19.652,52.1 28.602,36.326 28.602,21.673C28.602,7.013 19.652,-8.76 0,-8.76" style="fill:rgb(97,95,214);fill-rule:nonzero;"/>
                        </g>
                        <g transform="matrix(1,0,0,1,853.51,431.129)">
                            <path d="M0,-62.481C-2.414,-62.481 -4.857,-60.84 -4.857,-57.708L-4.857,-27.777C-4.857,-15.156 -14.531,-9.41 -23.52,-9.41C-32.51,-9.41 -42.184,-15.156 -42.184,-27.777L-42.184,-57.708C-42.184,-60.659 -44.631,-62.204 -47.045,-62.204C-49.432,-62.204 -51.85,-60.693 -51.85,-57.794L-51.85,-27.777C-51.85,-9.539 -37.6,0 -23.52,0C-9.445,0 4.807,-9.539 4.807,-27.777L4.807,-57.794C4.807,-60.876 2.391,-62.481 0,-62.481" style="fill:rgb(97,95,214);fill-rule:nonzero;"/>
                        </g>
                        <g transform="matrix(1,0,0,1,927.705,378.673)">
                            <path d="M0,42.7L-35.816,42.7L3.385,-1.363C4.773,-3.107 5.143,-5.086 4.383,-6.658C3.627,-8.228 1.9,-9.123 -0.365,-9.123L-43.889,-9.123C-46.844,-8.924 -48.32,-6.631 -48.246,-4.47C-48.176,-2.386 -46.627,-0.277 -43.793,-0.277L-9.947,-0.277L-48.811,44.227C-50.139,45.85 -50.486,47.761 -49.742,49.323C-48.988,50.911 -47.281,51.823 -45.068,51.823L0.043,51.823L0.086,51.813C3.186,51.624 4.73,49.27 4.662,47.04C4.592,44.888 2.967,42.7 0,42.7" style="fill:rgb(97,95,214);fill-rule:nonzero;"/>
                        </g>
                    </g>
                </g>
            </g>
        </g>
    </g>
</svg>
