<?xml version="1.0" encoding="UTF-8" standalone="no"?>
<!DOCTYPE svg PUBLIC "-//W3C//DTD SVG 1.1//EN" "http://www.w3.org/Graphics/SVG/1.1/DTD/svg11.dtd">
<svg width="100%" height="100%" viewBox="0 0 62 76" version="1.1" xmlns="http://www.w3.org/2000/svg" xmlns:xlink="http://www.w3.org/1999/xlink" xml:space="preserve" xmlns:serif="http://www.serif.com/" style="fill-rule:evenodd;clip-rule:evenodd;stroke-linejoin:round;stroke-miterlimit:2;">
    <g id="Artboard2" transform="matrix(0.922047,0,0,0.747129,127.935,1.79489)">
        <rect x="-138.751" y="-2.402" width="67.133" height="100.811" style="fill:none;"/>
        <clipPath id="_clip1">
            <rect x="-138.751" y="-2.402" width="67.133" height="100.811"/>
        </clipPath>
        <g clip-path="url(#_clip1)">
            <g transform="matrix(3.0716,0,0,2.01198,98.7713,2.64453)">
                <g id="path4" transform="matrix(0.710405,0,0,1.33846,-138.751,-2.40238)">
                    <path d="M98,4.71L89.55,4.71C87.853,4.715 86.46,6.113 86.46,7.81C86.459,7.84 86.459,7.871 86.459,7.901C86.459,9.514 87.758,10.852 89.37,10.9L98.06,10.9L98,4.71Z" style="fill:rgb(7,48,66);fill-rule:nonzero;"/>
                </g>
                <g id="path6" transform="matrix(0.710405,0,0,1.33846,-138.751,-2.40238)">
                    <path d="M117.15,32.26L89.54,32.26C87.851,32.249 86.465,30.859 86.46,29.17L86.46,7.79C86.46,7.797 86.46,7.803 86.46,7.81C86.46,9.503 87.847,10.899 89.54,10.91L112.65,10.91C112.65,10.91 117.15,10.52 117.15,13.91L117.15,32.26Z" style="fill:rgb(66,133,244);fill-rule:nonzero;"/>
                </g>
                <g id="path10" transform="matrix(0.710405,0,0,1.33846,-138.751,-2.40238)">
                    <path d="M104.27,21.31C104.967,20.785 105.378,19.962 105.378,19.089C105.378,17.595 104.174,16.354 102.68,16.31L102.77,16.31C102.933,16.29 103.097,16.29 103.26,16.31L103.26,14.59C103.266,14.392 103.167,14.206 103,14.1C102.918,14.052 102.824,14.027 102.73,14.027C102.433,14.027 102.19,14.271 102.19,14.567C102.19,14.575 102.19,14.582 102.19,14.59L102.19,16.34C100.841,16.549 99.835,17.722 99.835,19.087C99.835,19.236 99.846,19.384 99.87,19.53C99.98,20.256 100.377,20.908 100.97,21.34L95.88,32.22L99.2,32.22L101.55,27.22C101.749,26.796 102.177,26.525 102.645,26.525C103.113,26.525 103.541,26.796 103.74,27.22L106.16,32.22L109.52,32.22L104.27,21.31ZM102.57,20.82C101.63,20.815 100.86,20.04 100.86,19.1C100.86,19.097 100.86,19.093 100.86,19.09C100.872,18.155 101.645,17.392 102.58,17.392C103.023,17.392 103.45,17.563 103.77,17.87C104.101,18.193 104.288,18.637 104.288,19.1C104.288,20.043 103.513,20.819 102.57,20.82Z" style="fill:rgb(56,112,178);fill-rule:nonzero;"/>
                </g>
                <g id="path12" transform="matrix(0.710405,0,0,1.33846,-138.751,-2.40238)">
                    <rect x="96.15" y="6.23" width="11.85" height="2.17" style="fill:white;fill-rule:nonzero;"/>
                </g>
                <g id="path14" transform="matrix(0.710405,0,0,1.33846,-138.751,-2.40238)">
                    <path d="M101.65,17.39C102.58,17.401 103.34,18.169 103.34,19.1C103.34,20.038 102.568,20.81 101.63,20.81C100.692,20.81 99.92,20.038 99.92,19.1C99.92,19.097 99.92,19.093 99.92,19.09C99.929,18.639 100.112,18.209 100.43,17.89C100.754,17.568 101.193,17.388 101.65,17.39ZM102.33,16.39L102.33,14.59C102.336,14.392 102.237,14.206 102.07,14.1C101.988,14.052 101.894,14.027 101.8,14.027C101.503,14.027 101.26,14.271 101.26,14.567C101.26,14.575 101.26,14.582 101.26,14.59L101.26,16.34C99.911,16.549 98.905,17.722 98.905,19.087C98.905,19.236 98.916,19.384 98.94,19.53C99.05,20.256 99.447,20.908 100.04,21.34L93.65,35.09C93.404,35.581 93.446,36.169 93.76,36.62C94.041,37.031 94.508,37.277 95.006,37.277C95.605,37.277 96.15,36.92 96.39,36.37L100.65,27.22C100.849,26.796 101.277,26.525 101.745,26.525C102.213,26.525 102.641,26.796 102.84,27.22L107.21,36.32C107.462,36.84 107.992,37.172 108.57,37.172C109.399,37.172 110.082,36.489 110.082,35.66C110.082,35.431 110.03,35.206 109.93,35L103.35,21.31C104.021,20.777 104.413,19.966 104.413,19.109C104.413,17.848 103.565,16.735 102.35,16.4" style="fill:rgb(7,48,66);fill-rule:nonzero;"/>
                </g>
                <g id="path16" transform="matrix(0.710405,0,0,1.33846,-138.751,-2.40238)">
                    <path d="M106.25,8.14C106.243,8.14 106.237,8.14 106.23,8.14C105.798,8.14 105.441,7.791 105.43,7.36C105.421,7.138 105.509,6.923 105.67,6.77C105.984,6.459 106.496,6.459 106.81,6.77C106.957,6.92 107.043,7.12 107.05,7.33C107.05,7.769 106.689,8.13 106.25,8.13M97.36,8.13C97.357,8.13 97.353,8.13 97.35,8.13C96.915,8.13 96.555,7.775 96.55,7.34C96.545,7.122 96.632,6.911 96.79,6.76C96.942,6.571 97.171,6.461 97.414,6.461C97.603,6.461 97.786,6.528 97.93,6.65C98.262,6.948 98.293,7.464 98,7.8L97.89,7.91C97.738,8.059 97.533,8.141 97.32,8.14M106.5,3.29L108.1,0.51C108.182,0.36 108.139,0.17 108,0.07C107.863,0.007 107.7,0.049 107.61,0.17L105.94,3C103.314,1.821 100.306,1.821 97.68,3L96.05,0.17C95.99,0.066 95.88,0.002 95.76,0C95.642,0.007 95.534,0.07 95.47,0.17C95.409,0.275 95.409,0.405 95.47,0.51L97.08,3.29C94.263,4.832 92.41,7.699 92.16,10.9L111.46,10.9C111.21,7.699 109.357,4.832 106.54,3.29" style="fill:rgb(61,220,132);fill-rule:nonzero;"/>
                </g>
                <g id="path18" transform="matrix(0.710405,0,0,1.33846,-138.751,-2.40238)">
                    <path d="M114.45,16.83L113.11,16.83C113.038,16.853 112.992,16.925 113,17L113,37C113,37.084 113.066,37.155 113.15,37.16L114.46,37.16C115.981,37.155 117.23,35.901 117.23,34.38L117.23,14.05C117.23,15.575 115.975,16.83 114.45,16.83Z" style="fill:rgb(7,48,66);fill-rule:nonzero;"/>
                </g>
            </g>
        </g>
    </g>
</svg>
