<?xml version="1.0" encoding="UTF-8" standalone="no"?>
<!DOCTYPE svg PUBLIC "-//W3C//DTD SVG 1.1//EN" "http://www.w3.org/Graphics/SVG/1.1/DTD/svg11.dtd">
<svg width="100%" height="100%" viewBox="0 0 60 60" version="1.1" xmlns="http://www.w3.org/2000/svg" xmlns:xlink="http://www.w3.org/1999/xlink" xml:space="preserve" xmlns:serif="http://www.serif.com/" style="fill-rule:evenodd;clip-rule:evenodd;stroke-linejoin:round;stroke-miterlimit:2;">
    <g transform="matrix(0.598493,0,0,0.598493,0,0)">
        <g>
            <circle cx="50.126" cy="50.126" r="50.126" style="fill:rgb(252,82,31);"/>
            <path d="M61.905,73.179L53.94,68.582L77.903,54.76C78.822,54.23 79.687,53.622 80.493,52.944C83.608,57.379 83.913,63.218 81.137,68.028C78.609,72.379 73.96,75.058 68.928,75.063C66.473,75.063 64.047,74.413 61.905,73.178L61.905,73.179ZM59.986,76.499C60.905,77.03 61.865,77.477 62.857,77.836C60.569,82.746 55.661,85.93 50.102,85.93C42.342,85.93 36.025,79.62 36.025,71.865L36.025,44.219L48.183,51.236L48.183,68.583C48.183,69.268 48.549,69.901 49.142,70.243L59.986,76.499ZM31.313,75.061C26.284,75.056 21.637,72.379 19.11,68.03C17.234,64.803 16.729,60.959 17.706,57.357C18.663,53.747 21.025,50.671 24.265,48.814L32.227,44.219L32.229,71.86C32.229,72.921 32.319,73.973 32.504,75.015C32.108,75.046 31.709,75.061 31.313,75.061ZM62.299,40.898L50.145,47.91L35.107,39.237C34.513,38.895 33.783,38.895 33.189,39.237L22.345,45.492C21.426,46.02 20.56,46.625 19.753,47.307C16.641,42.873 16.336,37.032 19.11,32.223C21.637,27.872 26.286,25.192 31.318,25.186C33.771,25.186 36.199,25.84 38.34,27.074L62.299,40.898ZM50.102,14.322C57.866,14.322 64.179,20.632 64.179,28.39L64.179,37.58L40.224,23.76C39.307,23.229 38.346,22.781 37.35,22.421C39.636,17.507 44.546,14.322 50.102,14.322ZM81.136,32.227C85.015,38.945 82.704,47.565 75.981,51.443L52.022,65.264L52.022,51.238L67.059,42.563C67.653,42.22 68.02,41.588 68.02,40.903L68.02,28.39C68.02,27.334 67.924,26.281 67.743,25.244C73.181,24.791 78.394,27.509 81.136,32.227Z" style="fill:white;fill-rule:nonzero;"/>
        </g>
    </g>
    <g id="Artboard1" transform="matrix(0.993069,0,0,0.993069,-36.6461,112.697)">
        <rect x="36.902" y="-113.483" width="60.419" height="60.419" style="fill:none;"/>
    </g>
</svg>
