<?xml version="1.0" encoding="utf-8"?>
<!-- Generator: Adobe Illustrator 16.0.0, SVG Export Plug-In . SVG Version: 6.00 Build 0)  -->
<!DOCTYPE svg PUBLIC "-//W3C//DTD SVG 1.1//EN" "http://www.w3.org/Graphics/SVG/1.1/DTD/svg11.dtd">
<svg version="1.1" id="Ebene_1" xmlns="http://www.w3.org/2000/svg" xmlns:xlink="http://www.w3.org/1999/xlink" x="0px" y="0px"
	 width="258px" height="72px" viewBox="0 0 258 72" style="enable-background:new 0 0 258 72;" xml:space="preserve">
<style type="text/css">
<![CDATA[
	.st0{fill:#179C7D;}
	.st1{fill:#FFFFFF;}
]]>
</style>
<g>
	<path class="st0" d="M0,41.697c9.874-5.083,24.338-13.302,41.507-25.317v-4.033C26.396,22.233,11.031,30.171,0,35.422V41.697z"/>
	<path class="st0" d="M0,29.654c10.994-4.479,26.36-11.399,41.507-20.408V7.255C27.271,14.317,12.48,18.737,0,21.493V29.654z"/>
	<path class="st0" d="M41.507,41.717V21.432c-9.45,7.966-18.809,14.864-26.67,20.285H41.507z"/>
	<path class="st0" d="M9.53,41.717c7.465-4.432,16.526-10.215,25.55-16.974c2.105-1.578,4.255-3.203,6.428-4.883v-2.514
		C28.151,27.359,14.519,35.706,3.869,41.717H9.53z"/>
	<path class="st0" d="M0,18.542c12.14-2.135,26.993-5.976,41.507-12.874V3.407C26.881,9.973,12.242,12.757,0,13.748V18.542z"/>
	<path class="st0" d="M0,0v11.62c0.907-0.056,1.831-0.121,2.775-0.194c10.093-0.776,23.867-2.56,38.732-8.987V0H0z"/>
	<g>
		<g>
			<path class="st1" d="M0,11.62v2.128c12.242-0.991,26.881-3.775,41.507-10.341V2.439C26.643,8.866,12.868,10.65,2.775,11.426
				C1.831,11.5,0.907,11.564,0,11.62z"/>
		</g>
	</g>
	<g>
		<g>
			<path class="st1" d="M0,21.493c12.48-2.756,27.271-7.176,41.507-14.238V5.669C26.993,12.566,12.14,16.407,0,18.542V21.493z"/>
		</g>
	</g>
	<g>
		<g>
			<path class="st1" d="M0,35.422c11.031-5.251,26.396-13.189,41.507-23.075V9.246C26.36,18.255,10.994,25.175,0,29.654V35.422z"/>
		</g>
	</g>
	<g>
		<g>
			<path class="st1" d="M9.53,41.717h5.308c7.861-5.42,17.22-12.319,26.67-20.285V19.86c-2.173,1.68-4.322,3.305-6.428,4.883
				C26.056,31.502,16.995,37.285,9.53,41.717z"/>
		</g>
	</g>
	<g>
		<g>
			<path class="st1" d="M0,41.717h3.869c10.65-6.011,24.282-14.357,37.638-24.371V16.38C24.338,28.396,9.874,36.614,0,41.697V41.717
				z"/>
		</g>
	</g>
</g>
<path d="M243.927,41.697h5.338v-7.534c0-2.947,0-8.369,4.34-8.369c0.957,0,1.916,0.158,2.395,0.439v-5.378
	c-0.562-0.16-1.119-0.16-1.635-0.16c-3.188,0-5.379,3.23-5.617,5.138h-0.082v-4.658h-4.738V41.697z M238.587,36.199
	c-1.994,1.114-4.223,2.073-6.816,2.073c-3.301,0-5.613-1.873-5.857-5.185h14.184c0-7.172-2.148-12.391-9.762-12.391
	c-6.371,0-9.52,4.9-9.52,10.838c0,6.738,3.941,10.641,10.719,10.641c2.871,0,5.096-0.557,7.053-1.635V36.199z M225.913,29.422
	c0.244-2.75,1.752-4.821,4.742-4.821s4.188,2.232,4.344,4.821H225.913z M208.86,41.697h5.338v-16.62h4.66v-3.903h-4.66v-2.551
	c0-1.593,0.561-3.149,2.355-3.149c1.154,0,1.832,0.44,2.305,0.72l0.441-4.424c-1.033-0.239-2.549-0.439-3.904-0.439
	c-4.225,0-6.535,2.869-6.535,6.973v2.87h-3.943v3.903h3.943V41.697z M187.624,30.935c0-3.068,1.672-6.097,5.141-6.097
	c3.508,0,5.178,2.95,5.178,6.097c0,3.429-1.072,7.095-5.178,7.095C188.696,38.029,187.624,34.322,187.624,30.935 M182.042,31.576
	c0,5.893,3.949,10.598,10.723,10.598c6.812,0,10.756-4.705,10.756-10.598c0-6.776-4.656-10.88-10.756-10.88
	C186.708,20.695,182.042,24.8,182.042,31.576 M159.81,41.697h5.342V31.652c0-2.628,0.836-6.814,4.703-6.814
	c3.426,0,3.463,3.389,3.463,5.898v10.961h5.336V28.744c0-4.622-2.111-8.049-6.969-8.049c-2.789,0-5.1,1.276-6.449,3.268h-0.084
	V11.811h-5.342V41.697z M135.468,41.697h5.336V31.652c0-2.628,0.84-6.814,4.703-6.814c3.426,0,3.465,3.389,3.465,5.898v10.961h5.344
	V28.744c0-4.622-2.115-8.049-6.975-8.049c-2.789,0-5.062,0.918-6.734,3.268h-0.084v-2.789h-5.055V41.697z M129.966,21.175h-5.342
	v10.042c0,2.627-0.836,6.812-4.701,6.812c-3.427,0-3.467-3.389-3.467-5.899V21.175h-5.339v12.95c0,4.621,2.112,8.049,6.973,8.049
	c2.788,0,5.101-1.273,6.733-3.268h0.081v2.791h5.061V21.175z M93.544,35.759c0-3.15,3.546-3.548,5.938-3.548h2.312
	c0,1.596-0.239,3.067-1.117,4.226c-0.836,1.11-2.109,1.834-3.744,1.834C95.021,38.271,93.544,37.51,93.544,35.759 M90.836,26.833
	c1.793-1.357,4.063-2.232,6.336-2.232c3.146,0,4.621,1.115,4.621,4.424h-2.949c-2.23,0-4.861,0.196-6.893,1.194
	c-2.033,0.998-3.505,2.79-3.505,5.861c0,3.901,3.545,6.094,7.17,6.094c2.431,0,5.102-1.273,6.335-3.545h0.081
	c0.042,0.635,0.042,1.986,0.239,3.068h4.701c-0.119-1.598-0.198-3.033-0.24-4.586c-0.039-1.513-0.079-3.067-0.079-5.14v-2.63
	c0-6.057-2.59-8.646-8.845-8.646c-2.272,0-5.06,0.6-7.133,1.555L90.836,26.833z M74.779,41.697h5.339v-7.534
	c0-2.947,0-8.369,4.342-8.369c0.957,0,1.913,0.158,2.393,0.439v-5.378c-0.558-0.16-1.115-0.16-1.634-0.16
	c-3.187,0-5.379,3.23-5.618,5.138h-0.08v-4.658h-4.742V41.697z M55.494,41.697h5.579V29.5h9.404v-4.383h-9.404v-6.852h9.882v-4.382
	H55.494V41.697z"/>
<g>
	<path d="M153.641,55.867h3.409c1.516-0.012,2.818,0.268,3.91,0.839c1.105,0.598,1.67,1.722,1.697,3.37
		c-0.015,1.594-0.509,2.73-1.485,3.409c-0.976,0.691-2.208,1.029-3.698,1.015h-1.138v5.285h-2.695V55.867z M156.336,62.307h0.946
		c0.706,0.017,1.31-0.131,1.81-0.438c0.488-0.306,0.739-0.852,0.752-1.634c0-0.413-0.064-0.759-0.193-1.037
		c-0.142-0.278-0.328-0.498-0.559-0.658c-0.487-0.319-1.091-0.479-1.81-0.479h-0.946V62.307z"/>
	<path d="M164.699,62.786c0-2.167,0.564-3.894,1.693-5.184c1.118-1.302,2.75-1.959,4.896-1.974c2.131,0.027,3.762,0.693,4.893,1.994
		c1.129,1.289,1.693,3.011,1.693,5.163c-0.01,2.142-0.57,3.868-1.674,5.184c-1.132,1.343-2.769,2.027-4.912,2.055
		c-2.158-0.027-3.789-0.704-4.896-2.034C165.264,66.688,164.699,64.952,164.699,62.786z M167.511,62.786
		c-0.012,1.303,0.276,2.453,0.868,3.451c0.589,1.035,1.561,1.566,2.909,1.594c0.692,0,1.282-0.147,1.771-0.44
		c0.488-0.29,0.874-0.677,1.156-1.153c0.564-0.998,0.847-2.148,0.847-3.451c0-1.289-0.288-2.424-0.865-3.407
		c-0.606-1.011-1.575-1.529-2.909-1.557c-1.324,0.027-2.281,0.546-2.87,1.557C167.814,60.362,167.511,61.497,167.511,62.786z"/>
	<path d="M180.688,55.867h2.911c0.743,0,1.488,0.009,2.233,0.021c0.744,0.039,1.425,0.172,2.042,0.398
		c0.628,0.213,1.131,0.585,1.504,1.118c0.357,0.517,0.544,1.262,0.559,2.23c0,0.826-0.245,1.536-0.732,2.134
		c-0.488,0.598-1.169,0.965-2.044,1.098v0.039c0.36,0.04,0.655,0.208,0.888,0.498c0.23,0.293,0.411,0.606,0.537,0.938l2.158,5.442
		h-3.005l-1.616-4.347c-0.168-0.52-0.38-0.891-0.637-1.117c-0.27-0.211-0.681-0.319-1.232-0.319h-0.868v5.783h-2.697V55.867z
		 M183.386,61.809h0.887c0.347,0,0.692-0.024,1.039-0.079c0.334-0.039,0.638-0.126,0.907-0.259s0.494-0.326,0.674-0.579
		c0.154-0.264,0.23-0.604,0.23-1.015c0-0.426-0.076-0.764-0.23-1.018c-0.18-0.24-0.404-0.419-0.674-0.537
		c-0.27-0.12-0.573-0.201-0.907-0.24c-0.347-0.013-0.692-0.021-1.039-0.021h-0.887V61.809z"/>
	<path d="M195.561,58.061h-3.854v-2.193h10.403v2.193h-3.854v11.725h-2.696V58.061z"/>
	<path d="M204.499,55.867h2.697v8.037c-0.013,1.193,0.199,2.14,0.637,2.831c0.437,0.73,1.154,1.096,2.158,1.096
		c1.027,0,1.752-0.365,2.175-1.096c0.411-0.691,0.617-1.638,0.617-2.831v-8.037h2.697v8.895c-0.052,3.561-1.882,5.314-5.489,5.263
		c-3.61,0.052-5.44-1.702-5.492-5.263V55.867z"/>
	<path d="M225.827,57.822c-1.566,0.015-2.769,0.492-3.603,1.436c-0.849,0.942-1.272,2.148-1.272,3.609
		c0,1.448,0.405,2.625,1.212,3.527c0.797,0.944,1.914,1.424,3.354,1.437c0.733,0,1.322-0.066,1.772-0.199v-3.63h-2.852v-2.193h5.434
		v7.498c-1.438,0.452-2.891,0.69-4.354,0.718c-2.21,0-3.974-0.579-5.298-1.735c-1.375-1.129-2.066-2.872-2.081-5.223
		c0.089-4.906,2.549-7.384,7.379-7.438c1.516,0.015,2.833,0.207,3.949,0.579l-0.174,2.351
		C228.164,58.069,227.008,57.822,225.827,57.822z"/>
	<path d="M237.133,55.867h3.044l5.279,13.918h-2.986l-1.155-3.189h-5.452l-1.174,3.189h-2.796L237.133,55.867z M238.616,58.658
		h-0.037l-1.946,5.744h3.93L238.616,58.658z"/>
	<path d="M247.961,55.867h2.695v11.725h5.222v2.193h-7.917V55.867z"/>
</g>
</svg>
