<?xml version="1.0" encoding="UTF-8" standalone="no"?>
<!DOCTYPE svg PUBLIC "-//W3C//DTD SVG 1.1//EN" "http://www.w3.org/Graphics/SVG/1.1/DTD/svg11.dtd">
<svg width="100%" height="100%" viewBox="0 0 85 75" version="1.1" xmlns="http://www.w3.org/2000/svg" xmlns:xlink="http://www.w3.org/1999/xlink" xml:space="preserve" xmlns:serif="http://www.serif.com/" style="fill-rule:evenodd;clip-rule:evenodd;">
    <g id="Artboard2" transform="matrix(1.26614,0,0,0.743966,175.678,1.78729)">
        <rect x="-138.751" y="-2.402" width="67.133" height="100.811" style="fill:none;"/>
        <clipPath id="_clip1">
            <rect x="-138.751" y="-2.402" width="67.133" height="100.811"/>
        </clipPath>
        <g clip-path="url(#_clip1)">
            <g id="React-icon.svg" transform="matrix(2.89468,0,0,4.92639,-105.184,48.0031)">
                <g transform="matrix(1,0,0,1,-11.5,-10.2317)">
                    <clipPath id="_clip2">
                        <rect x="0" y="0" width="23" height="20.463"/>
                    </clipPath>
                    <g clip-path="url(#_clip2)">
                        <g transform="matrix(1,0,0,1,11.5,10.2317)">
                            <circle cx="0" cy="0" r="2.05" style="fill:rgb(97,218,251);"/>
                        </g>
                        <g transform="matrix(1,0,0,1,11.5,10.2317)">
                            <ellipse cx="0" cy="0" rx="11" ry="4.2" style="fill:none;stroke:rgb(97,218,251);stroke-width:1px;"/>
                            <g transform="matrix(0.5,0.866025,-0.866025,0.5,0,0)">
                                <ellipse cx="0" cy="0" rx="11" ry="4.2" style="fill:none;stroke:rgb(97,218,251);stroke-width:1px;"/>
                            </g>
                            <g transform="matrix(-0.5,0.866025,-0.866025,-0.5,0,0)">
                                <ellipse cx="0" cy="0" rx="11" ry="4.2" style="fill:none;stroke:rgb(97,218,251);stroke-width:1px;"/>
                            </g>
                        </g>
                    </g>
                </g>
            </g>
        </g>
    </g>
</svg>
