<?xml version="1.0" encoding="UTF-8" standalone="no"?>
<!DOCTYPE svg PUBLIC "-//W3C//DTD SVG 1.1//EN" "http://www.w3.org/Graphics/SVG/1.1/DTD/svg11.dtd">
<svg width="100%" height="100%" viewBox="0 0 76 76" version="1.1" xmlns="http://www.w3.org/2000/svg" xmlns:xlink="http://www.w3.org/1999/xlink" xml:space="preserve" xmlns:serif="http://www.serif.com/" style="fill-rule:evenodd;clip-rule:evenodd;stroke-linejoin:round;stroke-miterlimit:2;">
    <g id="Artboard2" transform="matrix(1.12165,0,0,0.747129,155.63,1.79489)">
        <rect x="-138.751" y="-2.402" width="67.133" height="100.811" style="fill:none;"/>
        <g id="path0_fill" transform="matrix(0.815436,0,0,1.2242,-138.617,-2.18903)">
            <path d="M61.501,0L61.501,70.428L0,61.293L61.501,82L82,73.472L82,8.528L61.501,0ZM21.133,39.45L39.968,58.083L51.244,53.286L51.244,16.755L39.968,11.958L21.133,30.592L9.792,22.044L5.119,23.608L5.119,46.435L9.792,47.999L21.133,39.45ZM39.968,25.254L39.968,44.791L27.009,35.022L39.968,25.254ZM9.792,28.231L16.655,35.02L9.792,41.812L9.792,28.231Z" style="fill:rgb(134,95,197);fill-rule:nonzero;"/>
        </g>
    </g>
</svg>
