<?xml version="1.0" encoding="UTF-8" standalone="no"?>
<!DOCTYPE svg PUBLIC "-//W3C//DTD SVG 1.1//EN" "http://www.w3.org/Graphics/SVG/1.1/DTD/svg11.dtd">
<svg width="100%" height="100%" viewBox="0 0 1472 325" version="1.1" xmlns="http://www.w3.org/2000/svg" xmlns:xlink="http://www.w3.org/1999/xlink" xml:space="preserve" xmlns:serif="http://www.serif.com/" style="fill-rule:evenodd;clip-rule:evenodd;stroke-miterlimit:10;">
    <g transform="matrix(1,0,0,1,-2307,-1928)">
        <g id="Artboard4" transform="matrix(1,0,0,0.403529,2307,571.946)">
            <rect x="0" y="3360.49" width="1472" height="805.395" style="fill:none;"/>
            <clipPath id="_clip1">
                <rect x="0" y="3360.49" width="1472" height="805.395"/>
            </clipPath>
            <g clip-path="url(#_clip1)">
                <g transform="matrix(1.0472,0,0,0.864784,-69.4837,2348.84)">
                    <rect x="66.352" y="1169.83" width="1405.65" height="931.325" style="fill:rgb(0,49,114);"/>
                </g>
                <g transform="matrix(0.369065,0,0,1.1072,421.857,-470.319)">
                    <g transform="matrix(-0.00443179,1.279,1.54834,0.00366086,766.33,4022.81)">
                        <path d="M-16.406,1.306L-4.178,1.306C-1.336,-3.551 -1.317,-11.462 -4.13,-16.367L-16.358,-16.367C-13.545,-11.462 -13.564,-3.551 -16.406,1.306" style="fill:rgb(19,156,213);fill-rule:nonzero;"/>
                    </g>
                    <g transform="matrix(1.46022,-0.425354,-0.514928,-1.20621,1018.32,3793.1)">
                        <path d="M-2.271,-0.349C-3.171,0.702 -5.007,1.35 -6.369,1.093C-5.002,4.933 -3.636,8.772 -2.271,12.614C-0.908,12.87 0.928,12.223 1.829,11.17C0.599,7.715 -1.04,3.106 -2.271,-0.349" style="fill:rgb(203,114,174);fill-rule:nonzero;"/>
                    </g>
                    <g transform="matrix(1.54835,0,0,1.27901,1008.45,3778.85)">
                        <path d="M0,12.227L-0.001,12.228C0.004,10.189 0.01,8.151 0.016,6.113C0.021,4.075 0.027,2.038 0.033,-0C0.034,-0 0.034,-0 0.034,-0.001C0.023,4.076 0.012,8.151 0,12.227" style="fill:rgb(203,114,174);fill-rule:nonzero;"/>
                    </g>
                    <g transform="matrix(1.5436,-0.100032,-0.121097,-1.27509,1009.11,3794.42)">
                        <path d="M-0.431,-0.017C-1.053,-0.316 -1.385,-0.744 -1.422,-1.196L-0.431,10.992C-0.394,11.443 -0.062,11.872 0.56,12.171C0.229,8.107 -0.101,4.046 -0.431,-0.017" style="fill:rgb(203,114,174);fill-rule:nonzero;"/>
                    </g>
                    <g transform="matrix(0.00443215,-1.279,-1.54834,-0.00366116,1016.27,3789.7)">
                        <path d="M-5.014,5.934L7.213,5.934C6.755,5.934 6.298,5.631 5.952,5.027L-6.276,5.026C-5.93,5.63 -5.473,5.933 -5.014,5.934" style="fill:white;fill-rule:nonzero;"/>
                    </g>
                    <g transform="matrix(-0.00430517,1.279,1.54834,0.00355627,1032.36,3810.53)">
                        <path d="M-11.159,12.546L1.069,12.546L-12.513,-11.128L-24.74,-11.127L-11.159,12.546Z" style="fill:rgb(203,114,174);fill-rule:nonzero;"/>
                    </g>
                    <g transform="matrix(1.54272,0.108919,0.131855,-1.27436,1051.06,3811.86)">
                        <path d="M0.469,-0.02C0.134,4.042 -0.202,8.103 -0.539,12.166C0.093,11.87 0.431,11.439 0.469,10.983L1.476,-1.204C1.439,-0.747 1.1,-0.316 0.469,-0.02" style="fill:rgb(203,114,174);fill-rule:nonzero;"/>
                    </g>
                    <g transform="matrix(-0.00430517,1.279,1.54834,0.00355627,1062.94,3807.16)">
                        <path d="M-7.206,-6.294L5.022,-6.294C5.475,-6.293 5.929,-6.591 6.276,-7.186L-5.951,-7.186C-6.299,-6.59 -6.753,-6.293 -7.206,-6.294" style="fill:white;fill-rule:nonzero;"/>
                    </g>
                    <g transform="matrix(-0.00430517,1.279,1.54834,0.00355627,1025.64,3813.75)">
                        <path d="M-11.159,12.546L1.069,12.546L-12.512,-11.128L-24.739,-11.128L-11.159,12.546Z" style="fill:white;fill-rule:nonzero;"/>
                    </g>
                    <g transform="matrix(1.54835,0,0,1.27901,1051.83,3782.07)">
                        <path d="M0,11.124C1.2,11.817 1.207,12.945 0.008,13.642C-1.19,14.339 -3.139,14.339 -4.339,13.645L-27.975,-0.001C-29.175,-0.693 -29.182,-1.822 -27.982,-2.518C-26.783,-3.215 -24.836,-3.215 -23.636,-2.522L0,11.124Z" style="fill:rgb(76,77,77);fill-rule:nonzero;"/>
                    </g>
                    <g transform="matrix(-0.00430517,1.279,1.54834,0.00355627,1058.45,3810.61)">
                        <path d="M-8.659,-4.29L3.569,-4.29C4.269,-5.487 4.275,-7.435 3.584,-8.637L-8.643,-8.637C-7.953,-7.434 -7.959,-5.486 -8.659,-4.29" style="fill:white;fill-rule:nonzero;"/>
                    </g>
                    <g transform="matrix(-0.00430517,1.279,1.54834,0.00355627,1135.93,3840.13)">
                        <path d="M-10.494,-6.847L1.734,-6.847C3.574,-6.847 5.416,-8.052 6.828,-10.465L-5.4,-10.465C-6.811,-8.052 -8.653,-6.847 -10.494,-6.847" style="fill:rgb(49,101,176);fill-rule:nonzero;"/>
                    </g>
                    <g transform="matrix(-0.00443179,1.279,1.54834,0.00366086,963.653,3879.43)">
                        <path d="M-30.186,83.146L-17.958,83.146L-82.91,-30.1L-95.137,-30.1L-30.186,83.146Z" style="fill:rgb(203,114,174);fill-rule:nonzero;"/>
                    </g>
                    <g transform="matrix(-0.00443179,1.279,1.54834,0.00366086,862.349,3965.66)">
                        <path d="M-162.742,35.134L-150.514,35.134L-35.034,-162.277L-47.262,-162.278L-162.742,35.134Z" style="fill:rgb(203,114,174);fill-rule:nonzero;"/>
                    </g>
                    <g transform="matrix(0.00443179,-1.279,-1.54834,-0.00366086,585.347,3933.25)">
                        <path d="M-1.68,5.386L10.548,5.386C8.682,5.387 6.818,4.149 5.401,1.68L-6.826,1.68C-5.409,4.149 -3.545,5.386 -1.68,5.386" style="fill:rgb(19,156,213);fill-rule:nonzero;"/>
                    </g>
                    <g transform="matrix(-0.00443179,1.279,1.54834,0.00366086,657.481,4026.41)">
                        <path d="M-30.186,83.146L-17.958,83.146L-82.909,-30.1L-95.136,-30.101L-30.186,83.146Z" style="fill:white;fill-rule:nonzero;"/>
                    </g>
                    <g transform="matrix(-0.00443179,1.279,1.54834,0.00366086,633.507,3941.49)">
                        <path d="M-9.584,-0.021L2.644,-0.021L0.02,-9.556L-12.207,-9.557L-9.584,-0.021Z" style="fill:rgb(203,114,174);fill-rule:nonzero;"/>
                    </g>
                    <g transform="matrix(-0.00443179,1.279,1.54834,0.00366086,641.348,3942.09)">
                        <path d="M-10.035,-5.086L2.193,-5.086L5.072,-10.006L-7.156,-10.007L-10.035,-5.086Z" style="fill:white;fill-rule:nonzero;"/>
                    </g>
                    <g transform="matrix(-0.00443179,1.279,1.54834,0.00366086,627.484,3940.17)">
                        <path d="M-5.681,-1.049L6.547,-1.049L1.046,-5.664L-11.182,-5.664L-5.681,-1.049Z" style="fill:white;fill-rule:nonzero;"/>
                    </g>
                    <g transform="matrix(1.54835,0,0,1.27901,633.517,3929.51)">
                        <path d="M0,-0.214L-4.929,2.65L-9.529,-2.864L0,-0.214Z" style="fill:white;fill-rule:nonzero;"/>
                    </g>
                    <g transform="matrix(1.54835,0,0,1.27901,656.872,3948.58)">
                        <path d="M0,-2.941C-0.003,-1.961 -0.005,-0.98 -0.008,0C-0.006,-0.98 -0.005,-1.96 -0.003,-2.94C-0.002,-2.94 -0.001,-2.941 0,-2.941" style="fill:rgb(203,114,174);fill-rule:nonzero;"/>
                    </g>
                    <g transform="matrix(1.54835,0,0,1.27901,656.814,3946.36)">
                        <path d="M0,11.027C-1.288,11.776 -1.933,12.755 -1.937,13.734L-1.902,1.507C-1.898,0.527 -1.253,-0.452 0.035,-1.201C0.024,2.874 0.015,6.947 0.003,11.021C0.015,6.947 0.038,2.873 0.038,-1.202C2.632,-2.707 6.843,-2.707 9.454,-1.201L9.419,11.027C6.808,9.519 2.594,9.519 0,11.027" style="fill:rgb(76,77,77);fill-rule:nonzero;"/>
                    </g>
                    <g transform="matrix(0.00443179,-1.279,-1.54834,-0.00366086,662.699,3959.16)">
                        <path d="M-3.744,5.726L8.484,5.726C7.49,5.727 6.497,5.068 5.742,3.752L-6.485,3.752C-5.73,5.068 -4.737,5.727 -3.744,5.726" style="fill:white;fill-rule:nonzero;"/>
                    </g>
                    <g transform="matrix(-0.00443179,1.279,1.54834,0.00366086,687.33,3972.65)">
                        <path d="M-10.346,9.527L1.882,9.527L-9.501,-10.317L-21.728,-10.318L-10.346,9.527Z" style="fill:rgb(76,77,77);fill-rule:nonzero;"/>
                    </g>
                    <g transform="matrix(1.5148,0.264787,0.320547,-1.2513,700.588,3974.69)">
                        <path d="M1.003,-0.105C0.173,3.886 -0.659,7.875 -1.495,11.865C-0.051,11.394 0.799,10.555 1.003,9.58L3.501,-2.39C3.298,-1.415 2.447,-0.576 1.003,-0.105" style="fill:rgb(76,77,77);fill-rule:nonzero;"/>
                    </g>
                    <g transform="matrix(-0.00443215,1.279,1.54834,0.00366116,715.211,3973.81)">
                        <path d="M-8.454,-6.504L3.773,-6.504C4.753,-6.505 5.734,-7.145 6.486,-8.43L-5.741,-8.431C-6.494,-7.145 -7.475,-6.505 -8.454,-6.504" style="fill:white;fill-rule:nonzero;"/>
                    </g>
                    <g transform="matrix(-0.00443179,1.279,1.54834,0.00366086,672.794,3979.63)">
                        <path d="M-10.346,9.527L1.882,9.527L-9.501,-10.317L-21.728,-10.318L-10.346,9.527Z" style="fill:white;fill-rule:nonzero;"/>
                    </g>
                    <g transform="matrix(1.54835,0,0,1.27901,702.127,3951.81)">
                        <path d="M0,5.978C2.611,7.486 2.631,9.93 0.037,11.438C-2.558,12.945 -6.777,12.942 -9.388,11.434L-29.2,-0.004C-31.811,-1.512 -31.825,-3.953 -29.23,-5.46C-26.636,-6.967 -22.423,-6.967 -19.812,-5.46L0,5.978Z" style="fill:none;fill-rule:nonzero;stroke:white;stroke-width:1px;"/>
                    </g>
                    <g transform="matrix(-0.00443215,1.279,1.54834,0.00366116,705.469,3981.29)">
                        <path d="M-11.609,-2.155L0.619,-2.155C2.133,-4.744 2.141,-8.964 0.643,-11.58L-11.586,-11.58C-10.085,-8.964 -10.094,-4.745 -11.609,-2.155" style="fill:white;fill-rule:nonzero;"/>
                    </g>
                    <g transform="matrix(-0.00443179,1.279,1.54834,0.00366086,743.774,3991.2)">
                        <path d="M-7.636,-0.534L4.592,-0.534L0.532,-7.614L-11.695,-7.614L-7.636,-0.534Z" style="fill:rgb(203,114,174);fill-rule:nonzero;"/>
                    </g>
                    <g transform="matrix(-0.00443179,1.279,1.54834,0.00366086,736.144,3994.87)">
                        <path d="M-7.635,-0.535L4.593,-0.535L0.532,-7.613L-11.695,-7.613L-7.635,-0.535Z" style="fill:white;fill-rule:nonzero;"/>
                    </g>
                    <g transform="matrix(-0.00443179,1.279,1.54834,0.00366086,739.868,3989.07)">
                        <path d="M-10.035,-5.086L2.193,-5.086L5.072,-10.006L-7.156,-10.007L-10.035,-5.086Z" style="fill:rgb(203,114,174);fill-rule:nonzero;"/>
                    </g>
                    <g transform="matrix(-0.00443179,1.279,1.54834,0.00366086,750.812,3994.29)">
                        <path d="M-10.035,-5.086L2.193,-5.086L5.072,-10.006L-7.156,-10.007L-10.035,-5.086Z" style="fill:white;fill-rule:nonzero;"/>
                    </g>
                    <g transform="matrix(-1.33876,0.64257,0.777886,1.10588,725.191,3983.84)">
                        <path d="M-10.879,4.147L-5.178,4.147L-1.117,-2.931L-6.817,-2.932L-10.879,4.147Z" style="fill:white;fill-rule:nonzero;"/>
                    </g>
                    <g transform="matrix(338.151,161.269,195.23,-279.329,873.329,3883.09)">
                        <path d="M-0.548,-0.393L-0.03,-0.393L0.421,0.393L-0.097,0.393L-0.548,-0.393Z" style="fill:url(#_Linear2);fill-rule:nonzero;"/>
                    </g>
                    <g transform="matrix(-0.00443215,1.279,1.54834,0.00366116,1037.4,4049.15)">
                        <path d="M-162.742,35.135L-150.515,35.135L-35.034,-162.277L-47.262,-162.278L-162.742,35.135Z" style="fill:white;fill-rule:nonzero;"/>
                    </g>
                    <g transform="matrix(-0.977078,290.252,351.374,0.807112,944.548,3780.2)">
                        <path d="M0.765,-0.499L0.819,-0.499L0.235,0.499L0.181,0.499L0.765,-0.499Z" style="fill:url(#_Linear3);fill-rule:nonzero;"/>
                    </g>
                    <g transform="matrix(-0.00443179,1.279,1.54834,0.00366086,625.435,4037.22)">
                        <path d="M-27.882,74.597L-15.654,74.597L-74.385,-27.802L-86.612,-27.802L-27.882,74.597Z" style="fill:rgb(19,156,213);fill-rule:nonzero;"/>
                    </g>
                    <g transform="matrix(548.316,0,0,-452.935,577.053,3874.12)">
                        <path d="M0.651,0.286L0.01,-0.086C-0.003,-0.094 -0.003,-0.107 0.01,-0.115L0.299,-0.282C0.313,-0.29 0.335,-0.29 0.349,-0.282L0.99,0.09C1.003,0.098 1.003,0.111 0.99,0.119L0.701,0.286C0.694,0.29 0.685,0.292 0.676,0.292C0.667,0.292 0.658,0.29 0.651,0.286ZM0.062,-0.067L0.609,0.251L0.928,0.067L0.382,-0.252L0.062,-0.067ZM0.854,0.165L0.787,0.203C0.783,0.205 0.783,0.208 0.787,0.21C0.79,0.212 0.796,0.212 0.799,0.21L0.866,0.172C0.869,0.17 0.869,0.167 0.866,0.165C0.864,0.164 0.862,0.163 0.86,0.163C0.858,0.163 0.855,0.164 0.854,0.165ZM0.076,-0.114L0.103,-0.122L0.089,-0.13L0.076,-0.114ZM0.202,-0.204L0.146,-0.172C0.138,-0.167 0.138,-0.16 0.146,-0.156C0.153,-0.152 0.165,-0.152 0.172,-0.156L0.228,-0.188C0.235,-0.193 0.236,-0.2 0.228,-0.204C0.225,-0.206 0.22,-0.207 0.215,-0.207C0.21,-0.207 0.205,-0.206 0.202,-0.204ZM0.269,-0.234L0.283,-0.225L0.303,-0.237L0.289,-0.245L0.269,-0.234Z" style="fill:url(#_Linear4);fill-rule:nonzero;"/>
                    </g>
                    <g transform="matrix(1.54835,0,0,1.27901,735.35,3761.33)">
                        <path d="M0,174.959L4.929,172.095L-2.139,168.015L-7.068,170.879L0,174.959M-70.697,134.143L-65.769,131.278L-75.297,128.627L-70.697,134.143M180.763,13.698C179.563,13.004 177.616,13.004 176.417,13.701C175.217,14.398 175.224,15.526 176.424,16.219L200.06,29.865C201.261,30.559 203.208,30.559 204.407,29.861C205.606,29.165 205.599,28.037 204.399,27.344L180.763,13.698M-30.845,160.362C-28.234,161.87 -24.015,161.873 -21.42,160.365C-18.826,158.858 -18.846,156.414 -21.457,154.906L-41.269,143.468C-43.88,141.96 -48.093,141.961 -50.688,143.468C-53.282,144.976 -53.268,147.416 -50.657,148.924L-30.845,160.362M32.94,177.311L226.555,64.606L113.496,-0.668L-80.119,112.036L32.94,177.311M248.205,45.94C253.102,48.768 253.127,53.354 248.262,56.181L21.361,188.041C16.496,190.869 8.585,190.865 3.688,188.038L-98.543,129.015C-103.439,126.188 -103.472,121.605 -98.606,118.778L128.294,-13.083C133.16,-15.91 141.077,-15.91 145.973,-13.083L248.205,45.94Z" style="fill:none;fill-rule:nonzero;stroke:rgb(249,250,250);stroke-width:1px;"/>
                    </g>
                    <g transform="matrix(1.54835,0,0,1.27901,689.194,3965.98)">
                        <path d="M0,14.241C0.785,14.694 1.422,15.789 1.419,16.691L1.418,17.213C1.415,18.115 0.775,18.472 -0.011,18.019L-31.225,-0.003C-32.004,-0.452 -32.641,-1.547 -32.638,-2.449L-32.637,-2.971C-32.634,-3.873 -31.994,-4.231 -31.214,-3.78L0,14.241Z" style="fill:rgb(76,76,77);fill-rule:nonzero;"/>
                    </g>
                    <g transform="matrix(1.54835,0,0,1.27901,411.838,3407.55)">
                        <g opacity="0.1">
                            <g transform="matrix(0.0672285,-0.997738,-0.997738,-0.0672285,322.626,267.002)">
                                <path d="M-27.187,-35.845C-32.938,-22.692 -40.777,3.119 -29.485,29.677L-27.187,26.272C-37.148,2.599 -30.606,-20.047 -25.38,-32.165L-27.187,-35.845Z" style="fill:rgb(0,178,197);fill-rule:nonzero;"/>
                            </g>
                            <g transform="matrix(0.1201,-0.992762,-0.992762,-0.1201,322.334,268.312)">
                                <path d="M-14.315,-14.877C-14.198,-5.599 -15.63,5.105 -20.448,15.708L-14.315,7.588C-12.794,2.039 -11.982,-3.439 -11.656,-8.645L-14.315,-14.877Z" style="fill:rgb(0,178,197);fill-rule:nonzero;"/>
                            </g>
                            <g transform="matrix(1,0,0,1,293.174,327.589)">
                                <path d="M0,-0.006C29.312,15.712 59.148,3.831 67.305,0.001C59.144,-3.821 29.147,-15.732 0,-0.006M126.354,5.302L130.082,7.454C103.09,15.906 78.131,5.884 70.461,2.242C61.353,6.404 28.218,19.224 -3.604,2.021C-29.051,15.87 -54.793,10.267 -68.458,5.376L-64.938,3.33C-52.408,7.727 -29.905,12.247 -7.242,-0.006C-21.068,-7.445 -34.771,-8.713 -46.175,-7.574L-40.732,-10.736C-29.374,-11.035 -16.482,-8.993 -3.633,-2.037C27.988,-19.23 61.248,-6.421 70.41,-2.255C74.961,-4.419 85.672,-8.868 99.327,-10.303L103.662,-7.8C89.304,-7.036 77.978,-2.186 73.554,0.001C80.178,3.237 102.051,12.353 126.354,5.302" style="fill:rgb(0,178,197);fill-rule:nonzero;"/>
                            </g>
                            <g transform="matrix(1,0,0,1,220.624,399.715)">
                                <path d="M0,-0.008C7.747,3.797 36.611,15.728 65.72,-0.004C36.396,-15.767 7.729,-3.826 0,-0.008M-73.649,-0.003C-44.281,15.748 -14.488,3.841 -6.357,-0.004C-14.557,-3.834 -44.515,-15.722 -73.649,-0.003M123.816,-5.652C110.44,-8.825 91.533,-10.028 72.962,-0.004C82.396,5.06 91.885,7.262 100.695,7.785L96.356,10.305C87.627,9.395 78.442,6.937 69.353,2.027C37.712,19.253 5.598,6.377 -3.169,2.219C-10.45,5.562 -33.418,14.568 -58.752,8.921L-80.741,-3.775C-79.593,-3.229 -78.438,-2.657 -77.282,-2.034C-45.604,-19.261 -12.274,-6.373 -3.208,-2.219C5.526,-6.385 37.502,-19.257 69.323,-2.031C90.564,-13.577 112.551,-11.598 127.464,-7.772L123.816,-5.652Z" style="fill:rgb(0,178,197);fill-rule:nonzero;"/>
                            </g>
                            <g transform="matrix(1,0,0,1,282.392,434.955)">
                                <path d="M0,-4.833L-3.597,-2.743C-30.032,-12.869 -54.495,-2.654 -61.545,0.822C-56.249,3.41 -41.277,9.717 -23.121,8.604L-28.215,11.563C-45.443,11.316 -59.413,5.566 -64.734,3.037C-65.502,3.388 -66.455,3.808 -67.553,4.262L-71.083,2.223C-69.82,1.695 -68.741,1.217 -67.91,0.822C-70.628,-0.453 -75.775,-2.617 -82.493,-4.364L-90.384,-8.921C-78.353,-7.104 -68.945,-3.311 -64.759,-1.394C-56.75,-5.228 -29.117,-16.396 0,-4.833" style="fill:rgb(0,178,197);fill-rule:nonzero;"/>
                            </g>
                            <g transform="matrix(1,0,0,1,220.421,363.652)">
                                <path d="M0,-0.004C7.772,3.801 36.592,15.684 65.676,-0.004C36.364,-15.73 7.724,-3.818 0,-0.004M73.007,-0.004C102.286,15.681 132.104,3.833 140.248,-0.004C132.062,-3.842 102.109,-15.689 73.007,-0.004M189.074,-7.396C169.002,-9.895 152.165,-2.78 146.51,-0.004C149.727,1.566 156.521,4.518 165.446,6.336L161.71,8.507C153.197,6.56 146.685,3.814 143.385,2.248C134.296,6.406 101.174,19.197 69.346,1.99C37.7,19.227 5.598,6.381 -3.157,2.216C-10.761,5.71 -35.595,15.453 -62.34,8.036L-58.572,5.847C-34.706,11.866 -13.073,3.163 -6.345,-0.007C-10.792,-2.082 -21.662,-6.535 -35.337,-7.656L-31.183,-10.07C-18.013,-8.434 -7.654,-4.261 -3.188,-2.227C5.539,-6.388 37.49,-19.231 69.323,-1.998C100.982,-19.22 134.274,-6.393 143.373,-2.241C150.088,-5.441 170.069,-13.555 193.179,-9.78L189.074,-7.396Z" style="fill:rgb(0,178,197);fill-rule:nonzero;"/>
                            </g>
                        </g>
                    </g>
                    <g transform="matrix(1.3387,-0.642659,-0.777993,-1.10582,799.128,3788.78)">
                        <path d="M3.446,7.333L15.673,7.333L27.212,-12.786L14.985,-12.786L3.446,7.333Z" style="fill:rgb(13,158,169);fill-rule:nonzero;"/>
                    </g>
                    <g transform="matrix(57.6064,-27.6574,-33.4816,-47.5856,852.478,3848.97)">
                        <path d="M0.801,0.012L1.085,0.012L0.199,-0.012L-0.085,-0.012L0.801,0.012Z" style="fill:url(#_Linear5);fill-rule:nonzero;"/>
                    </g>
                    <g transform="matrix(1.3387,-0.642659,-0.777993,-1.10582,868.219,3821.73)">
                        <path d="M3.446,7.333L15.673,7.333L27.212,-12.786L14.986,-12.787L3.446,7.333Z" style="fill:rgb(13,158,169);fill-rule:nonzero;"/>
                    </g>
                    <g transform="matrix(47.0011,-22.5599,-27.3106,-38.8251,833.122,3720.52)">
                        <path d="M0.125,0.35L0.473,0.35L0.875,-0.35L0.527,-0.35L0.125,0.35Z" style="fill:url(#_Linear6);fill-rule:nonzero;"/>
                    </g>
                    <g transform="matrix(1.3387,-0.642659,-0.777993,-1.10582,843.787,3731.07)">
                        <path d="M16.676,-1.698L28.904,-1.698L-6.302,-61.884L-18.53,-61.884L16.676,-1.698Z" style="fill:rgb(13,158,169);fill-rule:nonzero;"/>
                    </g>
                    <g transform="matrix(1.54835,0,0,1.27901,867.126,3744.6)">
                        <path d="M0,52.237L20.087,63.834L-12.374,83.892L-44.622,26.474L-24.536,38.071L-24.338,-31.655L0.198,-17.489L0,52.237Z" style="fill:rgb(74,179,185);fill-rule:nonzero;"/>
                    </g>
                    <g transform="matrix(39.9538,0,0,-33.0037,751.835,3644.5)">
                        <path d="M0.41,0.098L-0,-0.141C0.154,-0.051 0.36,-0.053 0.59,-0.162L1,0.076C0.879,0.134 0.764,0.162 0.659,0.162C0.567,0.162 0.482,0.14 0.41,0.098Z" style="fill:url(#_Linear7);fill-rule:nonzero;"/>
                    </g>
                    <g transform="matrix(61.5408,0,0,-50.8356,784.674,3642.03)">
                        <path d="M0.266,0.258L-0,0.103C0.097,0.16 0.232,0.152 0.38,0.066C0.516,-0.013 0.64,-0.143 0.734,-0.294L1,-0.139C0.906,0.012 0.782,0.142 0.646,0.22C0.56,0.27 0.479,0.294 0.406,0.294C0.354,0.294 0.307,0.281 0.266,0.258Z" style="fill:url(#_Linear8);fill-rule:nonzero;"/>
                    </g>
                    <g transform="matrix(151.961,0,0,-125.527,845.575,3715.54)">
                        <path d="M0.108,0.678L0,0.615C0.073,0.657 0.173,0.651 0.284,0.587C0.504,0.46 0.682,0.152 0.682,-0.101C0.682,-0.114 0.681,-0.126 0.68,-0.138C0.801,-0.228 0.893,-0.4 0.892,-0.544C0.892,-0.623 0.864,-0.679 0.819,-0.705L0.927,-0.642C0.972,-0.616 1,-0.561 1,-0.482C1,-0.338 0.908,-0.165 0.788,-0.075C0.789,-0.063 0.789,-0.051 0.789,-0.039C0.79,0.214 0.612,0.523 0.392,0.65C0.327,0.687 0.266,0.705 0.213,0.705C0.174,0.705 0.138,0.696 0.108,0.678Z" style="fill:url(#_Linear9);fill-rule:nonzero;"/>
                    </g>
                    <g transform="matrix(-46.0206,123.222,149.17,38.0152,866.303,3713.37)">
                        <path d="M-0.349,-0.352C-0.395,-0.405 -0.43,-0.467 -0.443,-0.527C-0.471,-0.647 -0.407,-0.719 -0.299,-0.702C-0.319,-0.837 -0.229,-0.912 -0.09,-0.869C0.058,-0.824 0.205,-0.665 0.24,-0.514L0.51,0.672C0.545,0.823 0.453,0.909 0.306,0.864C0.171,0.823 0.037,0.688 -0.012,0.55C-0.023,0.548 -0.034,0.545 -0.046,0.541C-0.282,0.469 -0.518,0.215 -0.573,-0.026C-0.589,-0.097 -0.588,-0.158 -0.572,-0.209C-0.543,-0.303 -0.462,-0.357 -0.349,-0.352Z" style="fill:url(#_Linear10);fill-rule:nonzero;"/>
                    </g>
                    <g transform="matrix(0,-1.27901,-1.54835,0,695.114,3736.12)">
                        <path d="M-2.5,-2.5C-3.881,-2.5 -5,-1.38 -5,0C-5,1.381 -3.881,2.5 -2.5,2.5C-1.12,2.5 0,1.381 0,0C0,-1.38 -1.12,-2.5 -2.5,-2.5" style="fill:rgb(74,179,185);fill-rule:nonzero;"/>
                    </g>
                    <g transform="matrix(0,-1.27901,-1.54835,0,748.286,3783.22)">
                        <path d="M-5,-5C-7.761,-5 -10,-2.761 -10,0C-10,2.762 -7.761,5 -5,5C-2.238,5 0,2.762 0,0C0,-2.761 -2.238,-5 -5,-5" style="fill:rgb(74,179,185);fill-rule:nonzero;"/>
                    </g>
                    <g transform="matrix(-0.327616,1.25005,1.51329,0.270626,915.068,3761.56)">
                        <path d="M2.444,-3.029C1.064,-3.029 -0.056,-1.909 -0.057,-0.528C-0.057,0.852 1.063,1.971 2.444,1.972C3.824,1.972 4.943,0.853 4.944,-0.528C4.944,-1.909 3.825,-3.028 2.444,-3.029" style="fill:rgb(74,179,185);fill-rule:nonzero;"/>
                    </g>
                    <g transform="matrix(-0.327321,1.2501,1.51335,0.270382,792.657,3738.72)">
                        <path d="M2.444,-3.029C1.062,-3.028 -0.057,-1.909 -0.057,-0.529C-0.056,0.853 1.063,1.972 2.444,1.972C3.825,1.971 4.944,0.853 4.944,-0.529C4.943,-1.91 3.824,-3.029 2.444,-3.029" style="fill:rgb(74,179,185);fill-rule:nonzero;"/>
                    </g>
                    <g transform="matrix(-0.327468,1.25007,1.51332,0.270504,877.572,3700.21)">
                        <path d="M4.887,-6.057C2.126,-6.057 -0.113,-3.819 -0.113,-1.057C-0.113,1.705 2.126,3.943 4.887,3.943C7.648,3.943 9.887,1.704 9.887,-1.057C9.887,-3.818 7.649,-6.057 4.887,-6.057" style="fill:rgb(74,179,185);fill-rule:nonzero;"/>
                    </g>
                    <g transform="matrix(0,-1.27901,-1.54835,0,808.829,3852.78)">
                        <path d="M-2.5,-2.5C-3.881,-2.5 -5,-1.381 -5,0C-5,1.381 -3.881,2.5 -2.5,2.5C-1.119,2.5 0,1.381 0,0C0,-1.381 -1.119,-2.5 -2.5,-2.5" style="fill:rgb(74,179,185);fill-rule:nonzero;"/>
                    </g>
                    <g transform="matrix(0,-1.27901,-1.54835,0,889.872,3853.83)">
                        <path d="M-5,-5C-7.762,-5 -10,-2.761 -10,0C-10,2.762 -7.762,5 -5,5C-2.238,5 0,2.762 0,0C0,-2.761 -2.238,-5 -5,-5" style="fill:rgb(74,179,185);fill-rule:nonzero;"/>
                    </g>
                    <g transform="matrix(-0.327616,1.25005,1.51329,0.270626,986.979,3832.18)">
                        <path d="M2.444,-3.029C1.063,-3.029 -0.056,-1.91 -0.057,-0.529C-0.057,0.851 1.063,1.971 2.444,1.972C3.823,1.972 4.943,0.853 4.944,-0.528C4.944,-1.909 3.825,-3.028 2.444,-3.029" style="fill:rgb(74,179,185);fill-rule:nonzero;"/>
                    </g>
                    <g transform="matrix(-0.327321,1.2501,1.51335,0.270382,934.243,3809.34)">
                        <path d="M2.444,-3.029C1.062,-3.028 -0.057,-1.91 -0.057,-0.529C-0.056,0.852 1.062,1.972 2.444,1.972C3.824,1.971 4.944,0.852 4.944,-0.529C4.943,-1.91 3.825,-3.029 2.444,-3.029" style="fill:rgb(74,179,185);fill-rule:nonzero;"/>
                    </g>
                    <g transform="matrix(-0.327321,1.2501,1.51335,0.270382,1040.64,3764.08)">
                        <path d="M2.444,-3.029C1.062,-3.028 -0.057,-1.91 -0.057,-0.529C-0.056,0.852 1.063,1.972 2.444,1.972C3.825,1.971 4.944,0.852 4.944,-0.529C4.944,-1.911 3.824,-3.029 2.444,-3.029" style="fill:rgb(74,179,185);fill-rule:nonzero;"/>
                    </g>
                    <g transform="matrix(-0.327616,1.25005,1.51329,0.270626,987.618,3717.62)">
                        <path d="M2.444,-3.029C1.064,-3.029 -0.056,-1.91 -0.057,-0.529C-0.057,0.851 1.063,1.971 2.444,1.972C3.824,1.972 4.943,0.852 4.944,-0.529C4.944,-1.909 3.825,-3.028 2.444,-3.029" style="fill:rgb(74,179,185);fill-rule:nonzero;"/>
                    </g>
                </g>
            </g>
        </g>
    </g>
    <defs>
        <linearGradient id="_Linear2" x1="0" y1="0" x2="1" y2="0" gradientUnits="userSpaceOnUse" gradientTransform="matrix(0.572308,0.820039,0.820039,-0.572308,-0.027088,0.0519375)"><stop offset="0" style="stop-color:white;stop-opacity:1"/><stop offset="1" style="stop-color:rgb(230,230,230);stop-opacity:1"/></linearGradient>
        <linearGradient id="_Linear3" x1="0" y1="0" x2="1" y2="0" gradientUnits="userSpaceOnUse" gradientTransform="matrix(-0.00278072,0.999996,0.999996,0.00278072,0.501393,-0.500001)"><stop offset="0" style="stop-color:rgb(19,156,213);stop-opacity:1"/><stop offset="0.18" style="stop-color:rgb(19,156,213);stop-opacity:1"/><stop offset="1" style="stop-color:rgb(50,100,175);stop-opacity:1"/></linearGradient>
        <linearGradient id="_Linear4" x1="0" y1="0" x2="1" y2="0" gradientUnits="userSpaceOnUse" gradientTransform="matrix(1,0,0,-1,0,0.00200113)"><stop offset="0" style="stop-color:rgb(19,156,213);stop-opacity:1"/><stop offset="0.18" style="stop-color:rgb(19,156,213);stop-opacity:1"/><stop offset="1" style="stop-color:rgb(50,100,175);stop-opacity:1"/></linearGradient>
        <linearGradient id="_Linear5" x1="0" y1="0" x2="1" y2="0" gradientUnits="userSpaceOnUse" gradientTransform="matrix(0.864576,-0.502502,-0.502502,-0.864576,0.0677092,0.25124)"><stop offset="0" style="stop-color:rgb(76,179,185);stop-opacity:1"/><stop offset="0.24" style="stop-color:rgb(76,179,185);stop-opacity:1"/><stop offset="0.79" style="stop-color:rgb(16,158,169);stop-opacity:1"/><stop offset="1" style="stop-color:rgb(16,158,169);stop-opacity:1"/></linearGradient>
        <linearGradient id="_Linear6" x1="0" y1="0" x2="1" y2="0" gradientUnits="userSpaceOnUse" gradientTransform="matrix(0.864632,-0.502406,-0.502406,-0.864632,0.0676848,0.251206)"><stop offset="0" style="stop-color:rgb(76,179,185);stop-opacity:1"/><stop offset="0.24" style="stop-color:rgb(76,179,185);stop-opacity:1"/><stop offset="0.79" style="stop-color:rgb(16,158,169);stop-opacity:1"/><stop offset="1" style="stop-color:rgb(16,158,169);stop-opacity:1"/></linearGradient>
        <linearGradient id="_Linear7" x1="0" y1="0" x2="1" y2="0" gradientUnits="userSpaceOnUse" gradientTransform="matrix(1,0,0,-1,0,9.25433e-06)"><stop offset="0" style="stop-color:white;stop-opacity:1"/><stop offset="0.07" style="stop-color:white;stop-opacity:1"/><stop offset="0.61" style="stop-color:rgb(230,230,230);stop-opacity:1"/><stop offset="1" style="stop-color:rgb(230,230,230);stop-opacity:1"/></linearGradient>
        <linearGradient id="_Linear8" x1="0" y1="0" x2="1" y2="0" gradientUnits="userSpaceOnUse" gradientTransform="matrix(1,0,0,-1,0,-5.46468e-06)"><stop offset="0" style="stop-color:white;stop-opacity:1"/><stop offset="0.07" style="stop-color:white;stop-opacity:1"/><stop offset="0.61" style="stop-color:rgb(230,230,230);stop-opacity:1"/><stop offset="1" style="stop-color:rgb(230,230,230);stop-opacity:1"/></linearGradient>
        <linearGradient id="_Linear9" x1="0" y1="0" x2="1" y2="0" gradientUnits="userSpaceOnUse" gradientTransform="matrix(1,0,0,-1,0,-2.81628e-06)"><stop offset="0" style="stop-color:white;stop-opacity:1"/><stop offset="0.07" style="stop-color:white;stop-opacity:1"/><stop offset="0.61" style="stop-color:rgb(230,230,230);stop-opacity:1"/><stop offset="1" style="stop-color:rgb(230,230,230);stop-opacity:1"/></linearGradient>
        <linearGradient id="_Linear10" x1="0" y1="0" x2="1" y2="0" gradientUnits="userSpaceOnUse" gradientTransform="matrix(1,-5.55112e-17,-5.55112e-17,-1,0,-0.00249314)"><stop offset="0" style="stop-color:white;stop-opacity:1"/><stop offset="0.07" style="stop-color:white;stop-opacity:1"/><stop offset="0.61" style="stop-color:rgb(230,230,230);stop-opacity:1"/><stop offset="1" style="stop-color:rgb(230,230,230);stop-opacity:1"/></linearGradient>
    </defs>
</svg>
