<?xml version="1.0" encoding="UTF-8" standalone="no"?>
<!DOCTYPE svg PUBLIC "-//W3C//DTD SVG 1.1//EN" "http://www.w3.org/Graphics/SVG/1.1/DTD/svg11.dtd">
<svg width="100%" height="100%" viewBox="0 0 612 115" version="1.1" xmlns="http://www.w3.org/2000/svg" xmlns:xlink="http://www.w3.org/1999/xlink" xml:space="preserve" xmlns:serif="http://www.serif.com/" style="fill-rule:evenodd;clip-rule:evenodd;stroke-linejoin:round;stroke-miterlimit:2;">
    <g transform="matrix(1,0,0,1,-6125.34,-342.504)">
        <g id="Page-5" serif:id="Page 5" transform="matrix(0.477679,0,0,0.14293,6125.34,342.504)">
            <rect x="0" y="0" width="1280" height="800" style="fill:none;"/>
            <clipPath id="_clip1">
                <rect x="0" y="0" width="1280" height="800"/>
            </clipPath>
            <g clip-path="url(#_clip1)">
                <g transform="matrix(2.09346,0,0,6.99643,-700.089,-2398.57)">
                    <g id="Layer-1" serif:id="Layer 1">
                        <g>
                            <g transform="matrix(1,0,0,1,447.815,357.474)">
                                <path d="M0,85.051C0,92.844 -6.38,99.219 -14.175,99.219L-99.221,99.219C-107.018,99.219 -113.397,92.844 -113.397,85.051L-113.397,0.004C-113.397,-7.791 -107.018,-14.168 -99.221,-14.168L-14.175,-14.168C-6.38,-14.168 0,-7.791 0,0.004L0,85.051Z" style="fill:rgb(241,90,41);fill-rule:nonzero;"/>
                            </g>
                            <g transform="matrix(0,-1,-1,0,359.242,367.507)">
                                <path d="M-9.407,-9.417C-14.608,-9.417 -18.821,-5.202 -18.821,-0.002C-18.821,5.188 -14.608,9.407 -9.407,9.407C-4.212,9.407 -0.003,5.188 -0.003,-0.002C-0.003,-5.202 -4.212,-9.417 -9.407,-9.417" style="fill:white;fill-rule:nonzero;"/>
                            </g>
                            <g transform="matrix(0,-1,-1,0,422.979,367.508)">
                                <path d="M-9.406,-9.416C-14.607,-9.416 -18.82,-5.212 -18.82,-0.012C-18.82,5.188 -14.607,9.406 -9.406,9.406C-4.211,9.406 -0.002,5.188 -0.002,-0.012C-0.002,-5.212 -4.211,-9.416 -9.406,-9.416" style="fill:white;fill-rule:nonzero;"/>
                            </g>
                            <g transform="matrix(0,-1,-1,0,391.114,386.574)">
                                <path d="M-6.28,-6.274C-9.743,-6.274 -12.551,-3.465 -12.551,-0.002C-12.551,3.461 -9.743,6.28 -6.28,6.28C-2.815,6.28 -0.003,3.461 -0.003,-0.002C-0.003,-3.465 -2.815,-6.274 -6.28,-6.274" style="fill:white;fill-rule:nonzero;"/>
                            </g>
                            <g transform="matrix(1,0,0,1,407.054,390.457)">
                                <path d="M0,41.154C-6.229,41.154 -11.293,36.09 -11.293,29.865L-11.293,24.724C-11.293,22.164 -13.378,20.078 -15.937,20.078C-18.498,20.078 -20.592,22.164 -20.592,24.724L-20.592,29.865C-20.592,36.09 -25.655,41.154 -31.876,41.154C-38.104,41.154 -43.155,36.09 -43.155,29.865L-43.155,11.289C-43.155,8.722 -45.248,6.642 -47.81,6.642C-50.37,6.642 -52.462,8.722 -52.462,11.289C-52.462,13.123 -53.938,14.607 -55.77,14.607C-57.609,14.607 -59.095,13.123 -59.095,11.289C-59.095,5.068 -54.033,0 -47.81,0C-41.594,0 -36.524,5.068 -36.524,11.289L-36.524,29.865C-36.524,32.431 -34.437,34.511 -31.876,34.511C-29.314,34.511 -27.225,32.431 -27.225,29.865L-27.225,24.724C-27.225,18.504 -22.166,13.433 -15.937,13.433C-9.719,13.433 -4.652,18.504 -4.652,24.724L-4.652,29.865C-4.652,32.431 -2.569,34.511 0,34.511C2.562,34.511 4.641,32.431 4.641,29.865L4.641,11.289C4.641,5.068 9.709,0 15.938,0C22.154,0 27.223,5.068 27.223,11.289C27.223,13.123 25.733,14.607 23.899,14.607C22.067,14.607 20.577,13.123 20.577,11.289C20.577,8.722 18.495,6.642 15.938,6.642C13.369,6.642 11.285,8.722 11.285,11.289L11.285,29.865C11.285,36.09 6.221,41.154 0,41.154" style="fill:white;fill-rule:nonzero;"/>
                            </g>
                            <g transform="matrix(1,0,0,1,600.006,404.88)">
                                <path d="M0,-8.942L-1.346,-9.061C-12.544,-9.928 -19.343,-10.901 -19.343,-17.055C-19.343,-24.518 -7.349,-26.198 -3.146,-26.198C3.504,-26.198 11.91,-24.975 14.236,-19.083C14.905,-17.567 16.416,-16.665 18.27,-16.665C20.001,-16.665 21.615,-17.442 22.479,-18.688C23.2,-19.729 23.334,-21.001 22.86,-22.258C18.811,-33.251 6.433,-35.561 -3.238,-35.561C-16.067,-35.561 -29.063,-29.233 -29.063,-17.141C-29.063,-2.467 -14.212,-1.282 -2.279,-0.331L-1.758,-0.288C9.067,0.593 15.638,1.556 15.638,7.482C15.638,17.156 -0.504,17.433 -2.345,17.433C-6.996,17.433 -18.048,16.658 -20.365,9.451C-20.786,7.521 -22.478,6.275 -24.705,6.275C-26.424,6.275 -28.068,7.025 -28.988,8.232C-29.758,9.236 -29.988,10.494 -29.637,11.775C-26.624,22.73 -13.052,26.619 -2.345,26.619C10.396,26.619 25.266,21.583 25.266,7.394C25.266,-6.768 11.846,-7.928 0,-8.942" style="fill:rgb(241,90,41);fill-rule:nonzero;"/>
                            </g>
                            <g transform="matrix(1,0,0,1,672.069,378.356)">
                                <path d="M0,43.867C-12.266,43.867 -20.834,34.603 -20.834,21.336C-20.834,9.924 -14.445,1.832 -4.175,0.221C-2.995,0.053 -1.778,-0.029 -0.555,-0.029C0.674,-0.029 1.937,0.053 3.169,0.217C13.417,1.885 20.569,10.566 20.569,21.336C20.569,34.603 12.115,43.867 0,43.867M4.35,-8.494C0.66,-8.914 -2.313,-8.914 -5.478,-8.487C-20.083,-6.19 -30.287,5.963 -30.287,21.07C-30.287,39.744 -17.829,52.781 0,52.781C17.062,52.781 29.931,39.148 29.931,21.07C29.931,6.248 19.197,-6.18 4.35,-8.494" style="fill:rgb(241,90,41);fill-rule:nonzero;"/>
                            </g>
                            <g transform="matrix(1,0,0,1,770.506,388.157)">
                                <path d="M0,24.304C-1.407,24.304 -2.613,24.947 -3.347,26.036C-5.044,28.218 -7.544,30.259 -10.191,31.626C-13.339,33.2 -16.798,34.066 -19.924,34.066C-31.708,34.066 -41.296,23.96 -41.296,11.534C-41.296,0.068 -34.728,-7.792 -23.781,-9.485C-22.162,-9.671 -20.708,-9.757 -19.324,-9.757C-12.951,-9.757 -8.074,-7.735 -3.98,-3.405C-3.155,-2.524 -2.054,-2.038 -0.872,-2.038L-0.869,-2.038C0.945,-2.038 2.734,-3.184 3.476,-4.825C4.153,-6.327 3.871,-7.948 2.668,-9.311C-3.252,-15.526 -10.73,-18.676 -19.575,-18.676C-21.354,-18.676 -23.217,-18.548 -25.131,-18.288C-39.819,-15.999 -50.479,-3.497 -50.479,11.447C-50.479,29.13 -37.138,42.98 -20.101,42.98C-15.796,42.98 -10.839,41.796 -6.111,39.63C-1.906,37.577 1.605,34.677 4.045,31.243C4.991,29.898 5.12,28.335 4.403,26.95C3.593,25.392 1.784,24.304 0,24.304" style="fill:rgb(241,90,41);fill-rule:nonzero;"/>
                            </g>
                            <g transform="matrix(1,0,0,1,798.513,431.072)">
                                <path d="M0,-62.57C-2.334,-62.57 -4.698,-60.955 -4.698,-57.877L-4.698,-4.527C-4.698,-1.552 -2.352,0 -0.029,0C2.289,0 4.75,-1.584 4.75,-4.527L4.75,-57.877C4.75,-60.924 2.301,-62.57 0,-62.57" style="fill:rgb(241,90,41);fill-rule:nonzero;"/>
                            </g>
                            <g transform="matrix(1,0,0,1,862.105,393.209)">
                                <path d="M0,13.578L-23.638,13.578L-11.779,-10.059L0,13.578ZM-7.707,-21.647C-8.532,-23.188 -10.018,-24.068 -11.775,-24.068C-13.654,-24.068 -15.26,-23.113 -15.951,-21.619L-42.922,31.521C-43.524,32.867 -43.443,34.252 -42.683,35.424C-41.811,36.773 -40.135,37.646 -38.421,37.646C-36.706,37.646 -35.258,36.76 -34.55,35.307L-27.704,21.959L4.146,21.959L10.716,35.012C11.479,36.582 13.057,37.519 14.927,37.519C16.803,37.519 18.53,36.603 19.328,35.185C20.021,33.957 19.952,32.527 19.141,31.152L-7.707,-21.647Z" style="fill:rgb(241,90,41);fill-rule:nonzero;"/>
                            </g>
                            <g transform="matrix(1,0,0,1,940.792,378.386)">
                                <path d="M0,43.124L-31.985,43.124L-31.985,-4.118C-31.985,-7.087 -34.337,-8.646 -36.664,-8.646C-38.989,-8.646 -41.352,-7.087 -41.352,-4.118L-41.352,47.091C-41.352,50.108 -39.649,51.77 -36.576,51.77L0,51.77C3.146,51.77 4.791,49.597 4.791,47.448C4.791,45.298 3.146,43.124 0,43.124" style="fill:rgb(241,90,41);fill-rule:nonzero;"/>
                            </g>
                            <g transform="matrix(1,0,0,1,503.857,401.829)">
                                <path d="M0,-3.522L44.217,-3.522C43.396,-13.493 37.292,-21.112 28.147,-23.459L28.265,-23.459C24.393,-24.514 19.585,-24.514 15.6,-23.342C6.216,-20.877 0.702,-13.024 0,-3.522M30.726,-31.083C43.98,-27.444 52.188,-16.657 52.423,-1.647L52.423,-1.764C52.658,0.818 51.486,3.63 46.678,3.63L0.352,3.63C1.876,13.249 10.087,21.226 21.814,21.226C27.21,21.226 32.839,19.816 37.411,16.3C41.517,12.546 47.614,17.355 43.044,22.046C37.648,27.085 29.788,29.201 22.166,29.083C13.018,29.083 3.868,25.562 -1.645,18.644C-14.312,1.99 -8.799,-24.983 13.018,-31.083C18.529,-32.723 24.861,-32.606 30.608,-31.083L30.726,-31.083Z" style="fill:rgb(241,90,41);fill-rule:nonzero;"/>
                            </g>
                            <g transform="matrix(1,0,0,1,504.365,402.244)">
                                <path d="M0,-4.406L43.191,-4.406C42.224,-13.92 36.26,-21.179 27.522,-23.42L26.273,-23.74C22.73,-24.443 18.547,-24.283 15.223,-23.306C6.541,-21.027 0.886,-13.986 0,-4.406M44.217,-3.469L-1.016,-3.469L-0.977,-3.972C-0.218,-14.224 5.743,-21.787 14.971,-24.209C18.871,-25.359 23.929,-25.402 27.879,-24.326L31.26,-23.406L30.574,-23.406C38.305,-20.289 43.426,-13.082 44.177,-3.976L44.217,-3.469ZM21.051,-32.217C18.074,-32.217 15.247,-31.822 12.645,-31.047C3.312,-28.437 -3.551,-21.857 -6.689,-12.519C-10.136,-2.244 -8.257,9.426 -1.779,17.942C3.333,24.362 12.096,28.199 21.658,28.199L22.258,28.203C30.356,28.203 37.444,25.746 42.215,21.289C43.573,19.891 44.021,18.381 43.46,17.053C42.948,15.828 41.625,15.008 40.175,15.008C39.116,15.008 38.096,15.43 37.219,16.227C31.794,20.408 25.574,21.28 21.307,21.28C10.074,21.28 1.059,13.881 -0.62,3.289L-0.708,2.746L46.17,2.746C48.147,2.746 49.602,2.256 50.484,1.287C51.416,0.264 51.533,-1.078 51.455,-2.054L51.446,-2.054C51.221,-16.582 43.266,-27.408 30.158,-31.027L29.983,-31.047C27.049,-31.822 24.046,-32.217 21.051,-32.217M22.258,29.141L21.649,29.137C11.814,29.137 2.778,25.17 -2.518,18.52C-9.189,9.752 -11.124,-2.254 -7.573,-12.814C-4.384,-22.322 2.891,-29.297 12.383,-31.949C17.734,-33.547 24.167,-33.547 30.161,-31.967L30.345,-31.949C43.864,-28.242 52.099,-17.133 52.385,-2.222C52.488,-1.051 52.366,0.619 51.179,1.918C50.11,3.088 48.426,3.684 46.17,3.684L0.397,3.684C2.223,13.52 10.738,20.338 21.307,20.338C25.426,20.338 31.429,19.5 36.619,15.512C37.64,14.578 38.877,14.071 40.175,14.071C41.998,14.071 43.668,15.121 44.325,16.688C45.033,18.364 44.503,20.281 42.87,21.957C37.909,26.592 30.596,29.141 22.258,29.141" style="fill:rgb(241,90,41);fill-rule:nonzero;"/>
                            </g>
                        </g>
                    </g>
                </g>
            </g>
        </g>
    </g>
</svg>
