<?xml version="1.0" encoding="UTF-8" standalone="no"?>
<!DOCTYPE svg PUBLIC "-//W3C//DTD SVG 1.1//EN" "http://www.w3.org/Graphics/SVG/1.1/DTD/svg11.dtd">
<svg width="100%" height="100%" viewBox="0 0 120 27" version="1.1" xmlns="http://www.w3.org/2000/svg" xmlns:xlink="http://www.w3.org/1999/xlink" xml:space="preserve" xmlns:serif="http://www.serif.com/" style="fill-rule:evenodd;clip-rule:evenodd;stroke-linejoin:round;stroke-miterlimit:2;">
    <g id="Artboard2" transform="matrix(0.883797,0,0,0.503846,143.984,-27.1751)">
        <rect x="-162.916" y="53.935" width="135.778" height="52" style="fill:none;"/>
        <clipPath id="_clip1">
            <rect x="-162.916" y="53.935" width="135.778" height="52"/>
        </clipPath>
        <g clip-path="url(#_clip1)">
            <g transform="matrix(0.387259,0,0,0.351246,-206.449,5.68896)">
                <path d="M116.858,284.953L140.508,284.953C141.301,284.953 142.095,284.953 142.889,284.748C143.523,284.543 144.158,284.134 144.476,283.52C145.111,282.702 145.269,281.678 145.269,280.86L145.269,236.454C145.269,235.635 145.269,234.816 145.428,234.203C145.746,232.565 146.698,231.542 147.968,231.338C148.126,231.338 148.126,231.542 148.285,231.338C148.602,231.133 148.92,231.338 149.237,231.338L176.855,231.338C177.489,231.338 178.124,231.338 178.759,231.133C179.235,230.928 179.87,230.928 180.346,230.928C180.823,230.724 181.299,230.724 181.616,230.519C182.41,230.519 183.045,230.314 183.68,230.11C184.314,229.905 185.108,229.701 185.902,229.291C186.695,228.882 187.648,228.473 188.6,228.063C189.393,227.654 190.028,227.245 190.822,226.836C192.092,226.017 193.203,225.199 194.314,224.38C195.266,223.561 196.218,222.743 197.012,221.924C197.488,221.515 197.806,221.106 198.123,220.697C198.917,220.083 199.393,219.264 200.028,218.65C200.821,217.627 201.615,216.604 202.25,215.581C202.885,214.762 203.52,213.739 203.996,212.92C204.948,211.283 205.742,209.646 206.535,208.009C207.329,206.167 207.964,204.326 208.599,202.484C208.757,201.87 208.916,201.256 209.075,200.847C209.233,199.823 209.551,198.8 209.71,197.982C209.868,197.163 210.027,196.549 210.186,195.935C210.345,195.321 210.345,194.912 210.503,194.503C210.503,193.889 210.662,193.275 210.662,192.661C210.662,192.047 210.979,191.433 210.821,190.615L210.979,190.615L210.979,187.75C211.138,187.341 211.138,186.931 211.138,186.522L211.138,182.634C210.979,182.429 210.979,182.02 210.979,181.611C211.138,180.588 210.979,179.564 210.821,178.337C210.821,177.927 210.662,177.518 210.662,176.904C210.503,176.495 210.503,176.086 210.503,175.881C210.345,175.472 210.345,174.858 210.345,174.448C210.027,173.63 210.027,172.607 209.71,171.788C209.551,170.765 209.233,169.946 209.075,168.923C208.757,167.9 208.44,166.877 208.122,165.854C207.805,165.035 207.488,164.217 207.17,163.398C206.535,161.761 205.742,160.328 205.107,158.896C204.631,158.077 204.154,157.259 203.678,156.645C203.202,155.417 202.409,154.599 201.774,153.575C201.297,152.961 200.821,152.143 200.345,151.529C199.393,150.506 198.441,149.483 197.488,148.459C197.012,147.846 196.377,147.232 195.901,146.822C194.949,146.004 194.155,145.39 193.203,144.571C192.25,143.957 191.298,143.344 190.346,142.73C189.235,142.116 188.282,141.502 187.171,141.093C186.378,140.683 185.584,140.479 184.791,140.274C184.314,140.069 183.838,139.865 183.521,139.66C183.045,139.66 182.727,139.455 182.41,139.455C181.934,139.251 181.457,139.251 181.14,139.046C180.029,138.841 178.918,138.637 177.807,138.637C177.331,138.637 177.013,138.841 176.696,138.637L175.744,138.637C156.38,138.637 137.175,138.432 117.97,138.637C117.017,138.637 116.065,138.432 115.113,138.637C114.795,138.841 114.478,138.841 114.16,139.046C113.525,139.251 113.049,139.865 112.89,140.683C112.573,141.297 112.414,142.116 112.414,142.934L112.414,280.246C112.414,280.86 112.573,281.678 112.732,282.497C113.049,283.725 113.684,284.339 114.795,284.748C115.43,284.953 116.224,284.953 116.858,284.953ZM148.761,192.252C148.126,192.252 147.491,192.047 147.015,191.638C146.222,191.433 145.746,190.615 145.587,189.796C145.428,188.978 145.269,187.955 145.269,187.136L145.269,185.499C145.269,184.68 145.428,183.862 145.587,183.043C145.904,182.225 146.38,181.611 147.015,181.406C147.65,181.201 148.285,180.997 148.92,180.997L172.252,180.997C172.41,180.997 172.728,180.997 172.887,181.201L173.204,181.201C173.998,181.201 174.791,181.611 175.585,182.02C176.378,182.634 177.013,183.657 177.331,185.09C177.648,185.908 177.489,186.931 177.489,187.75C177.331,188.568 177.013,189.387 176.378,190.206C175.902,190.819 175.267,191.433 174.474,191.638C174.156,191.843 173.839,191.843 173.363,192.047C171.776,192.252 170.188,192.047 168.601,192.252L148.761,192.252Z" style="fill:rgb(25,24,96);fill-rule:nonzero;"/>
                <path d="M237.327,284.953L307.322,284.953C307.64,284.748 308.116,284.748 308.433,284.748L308.91,284.748C309.386,284.543 309.862,284.543 310.497,284.339C310.973,284.339 311.608,284.134 312.084,283.93C313.354,283.725 314.624,283.111 315.735,282.702C316.846,282.292 317.957,281.678 318.909,281.065C319.703,280.86 320.337,280.246 320.972,279.837C321.607,279.427 322.242,279.018 322.877,278.404C323.829,277.79 324.623,277.176 325.575,276.358C325.734,276.153 325.893,275.949 326.051,275.744C326.528,275.539 326.845,275.13 327.162,274.721C327.956,273.902 328.591,273.084 329.226,272.265C329.384,272.265 329.384,272.061 329.384,272.061C329.702,271.856 329.861,271.447 330.178,271.242C330.654,270.423 331.289,269.605 331.765,268.786C332.559,267.763 333.035,266.74 333.67,265.717C333.987,265.103 334.464,264.489 334.781,263.67C335.257,262.647 335.733,261.624 336.209,260.396C336.844,258.964 337.32,257.531 337.797,256.099C338.114,254.871 338.432,253.643 338.749,252.415C339.066,251.392 339.225,250.369 339.384,249.346C339.543,249.141 339.543,248.936 339.543,248.732C339.701,248.118 339.701,247.299 339.86,246.685C340.019,246.685 340.019,246.481 340.019,246.276C340.019,245.662 340.177,244.844 340.177,244.23L340.177,244.025C340.336,243.821 340.336,243.616 340.336,243.207L340.336,241.16C340.495,240.751 340.336,240.546 340.336,240.137L340.336,236.658C340.336,236.454 340.495,236.249 340.336,236.249L340.336,235.226C340.177,234.407 340.336,233.589 340.177,232.77L340.177,232.361C340.177,231.747 339.86,231.133 339.86,230.519C340.019,230.519 339.86,230.314 339.86,230.314C339.86,230.11 339.701,229.701 339.701,229.496C339.701,229.087 339.543,228.473 339.543,228.063C339.384,227.45 339.225,226.631 339.066,226.017C339.066,225.403 338.908,224.994 338.749,224.38C338.59,223.766 338.432,223.152 338.273,222.334C337.797,221.106 337.32,219.673 336.844,218.445C336.527,217.627 336.209,216.808 335.892,215.99C334.94,213.739 333.829,211.692 332.718,209.646C332.241,208.828 331.765,208.214 331.289,207.6C330.972,206.986 330.654,206.372 330.496,205.758C330.337,205.144 330.178,204.53 330.178,203.916C330.178,203.302 330.337,202.688 330.337,202.279C330.496,201.461 330.654,200.847 330.813,200.233C330.972,199.823 331.13,199.414 331.13,199.005C331.289,198.186 331.607,197.368 331.765,196.549C331.924,195.731 332.083,194.912 332.083,193.889C332.241,193.48 332.4,193.275 332.4,192.866C332.4,192.047 332.559,191.433 332.559,190.819L332.559,190.615C332.718,190.41 332.718,190.001 332.718,189.796L332.718,187.341C332.876,186.931 332.718,186.317 332.718,185.908L332.718,183.248C332.718,183.043 332.876,183.043 332.718,182.839C332.559,182.225 332.718,181.815 332.718,181.201C332.718,180.792 332.718,180.383 332.559,179.974L332.559,178.541C332.4,178.337 332.4,178.337 332.4,178.132L332.4,177.518C332.4,176.904 332.083,176.29 332.083,175.472C331.924,175.267 331.924,174.858 331.924,174.653C331.765,173.63 331.607,172.811 331.289,171.993C331.13,170.97 330.972,169.946 330.654,169.128C330.337,168.105 330.019,167.081 329.702,166.058C329.384,165.035 329.067,164.217 328.75,163.398C328.273,162.17 327.797,161.147 327.321,160.124C326.686,158.896 326.051,157.873 325.416,156.645C324.782,155.826 324.305,154.803 323.671,153.985C322.242,151.938 320.655,149.892 318.75,148.255C318.274,147.641 317.639,147.027 317.004,146.413C315.893,145.595 314.782,144.776 313.671,143.957C312.56,143.139 311.29,142.525 310.021,141.706C309.386,141.502 308.751,141.093 308.116,140.888C307.322,140.683 306.529,140.274 305.735,140.069C305.259,139.865 304.624,139.66 304.148,139.455C303.672,139.455 303.196,139.251 302.72,139.251C301.608,139.046 300.497,138.841 299.386,138.841C298.91,138.841 298.593,138.841 298.275,138.637L241.295,138.637C239.866,138.637 238.279,138.432 236.692,138.841C236.375,138.841 236.216,138.841 235.898,139.046C235.264,139.455 234.629,139.865 234.47,140.888C234.153,141.706 233.994,142.32 233.994,143.139C234.153,143.548 233.994,143.957 233.994,144.162L233.994,279.632C233.994,280.655 234.153,281.474 234.311,282.497C234.629,283.316 234.946,283.93 235.581,284.339C236.057,284.748 236.692,284.953 237.327,284.953ZM270.499,242.797C269.706,242.797 269.071,242.593 268.436,242.183C267.801,241.979 267.484,241.365 267.166,240.546C267.008,239.728 266.849,238.909 266.849,238.091L266.849,236.044C266.849,235.43 267.008,234.816 267.166,233.998C267.484,232.975 267.96,232.361 268.595,231.952C268.912,231.747 269.23,231.747 269.706,231.747C269.865,231.747 270.023,231.747 270.182,231.542L300.656,231.542C300.974,231.542 301.132,231.542 301.45,231.747L301.926,231.747C302.402,231.747 302.878,231.747 303.354,231.952C303.989,232.156 304.783,232.565 305.418,233.179C305.894,233.998 306.37,234.612 306.688,235.635C306.846,236.658 306.846,237.477 306.688,238.295C306.688,238.909 306.37,239.523 306.053,240.137C305.418,241.365 304.307,241.979 303.196,242.388C302.878,242.593 302.402,242.593 302.085,242.593C300.656,243.002 299.228,242.797 297.799,242.797L270.499,242.797ZM270.341,192.047C269.706,192.047 269.071,191.843 268.436,191.433C267.801,191.024 267.484,190.41 267.166,189.796C267.008,188.773 266.849,187.955 266.849,187.136L266.849,185.294C266.849,184.476 267.008,183.862 267.166,183.248C267.642,182.02 268.277,181.201 269.388,180.997C270.182,180.792 270.976,180.792 271.928,180.792L293.831,180.792C294.466,180.792 294.942,180.997 295.577,181.201C296.053,181.201 296.529,181.406 296.847,181.815C297.482,182.225 297.958,182.634 298.275,183.248C298.593,183.657 298.91,184.271 299.069,185.09L299.069,186.931C299.228,187.75 298.91,188.568 298.593,189.182C298.117,190.206 297.482,191.024 296.529,191.433C296.053,191.638 295.577,191.843 294.942,191.843C293.672,192.252 292.244,192.047 290.974,192.047L270.341,192.047Z" style="fill:rgb(25,24,96);fill-rule:nonzero;"/>
                <path d="M367.795,283.725L393.349,283.725C393.983,283.725 394.618,283.52 395.253,283.316C395.888,283.111 396.364,282.497 396.682,281.474C396.999,280.86 397.158,280.246 397.158,279.427C396.999,278.609 397.158,277.995 397.158,277.176C397.158,263.261 397.158,249.141 396.999,235.226C396.999,234.407 397.158,233.793 397.317,232.975C397.475,231.338 398.586,230.314 399.856,230.314L400.174,230.314C400.332,230.11 400.491,230.11 400.65,230.11L412.078,230.11C412.236,230.314 412.395,230.314 412.554,230.314C413.189,230.314 413.665,230.519 413.982,230.928C414.776,231.542 415.252,232.565 415.728,233.589C415.887,233.998 415.887,234.407 416.046,234.816C416.204,235.43 416.522,236.044 416.68,236.863C416.998,238.091 417.315,239.319 417.633,240.546C417.95,241.774 418.426,243.002 418.744,244.23C419.22,246.072 419.696,247.913 420.172,249.55C420.49,250.574 420.648,251.392 420.966,252.415C421.283,253.643 421.601,254.871 421.918,256.099C422.394,257.327 422.712,258.554 423.029,259.578C423.505,261.419 423.823,263.056 424.458,264.694C424.775,266.126 425.251,267.559 425.569,268.991C425.886,269.81 426.045,270.833 426.362,271.651C426.68,273.288 427.156,274.721 427.632,276.358C427.95,277.381 428.267,278.404 428.584,279.427C428.743,280.246 429.061,281.269 429.537,281.883C429.854,282.497 430.33,283.111 430.965,283.316C431.6,283.52 432.235,283.725 432.87,283.725L458.741,283.725C459.376,283.725 460.011,283.52 460.646,283.316C461.281,283.111 461.757,282.088 461.916,281.065C461.916,280.655 461.757,280.246 461.757,279.632C461.598,278.609 461.281,277.79 460.963,276.767C460.646,275.539 460.328,274.312 460.011,273.084C459.694,271.856 459.217,270.833 458.9,269.605C458.741,268.582 458.424,267.968 458.265,266.945C457.789,265.307 457.313,263.67 456.837,262.033C456.678,261.215 456.36,260.396 456.202,259.578C455.726,258.35 455.408,257.122 455.091,255.69C454.932,255.28 454.773,254.666 454.615,254.257C454.456,253.439 454.138,252.62 453.98,251.801C453.821,250.983 453.503,250.164 453.345,249.55C453.027,248.323 452.71,247.095 452.392,246.072C452.075,245.048 451.916,244.23 451.599,243.207C451.281,241.774 450.805,240.546 450.488,239.114C450.17,238.295 449.853,237.272 449.694,236.454C449.377,235.226 449.059,233.998 448.742,232.975C448.424,231.952 448.107,231.133 447.948,230.11C447.631,228.882 447.313,227.654 446.996,226.426C446.837,225.608 446.837,224.994 446.996,224.38C447.155,223.357 447.472,222.538 448.107,221.924C448.742,221.106 449.535,220.287 450.17,219.469C450.964,218.65 451.758,217.627 452.551,216.808C453.186,215.99 453.662,215.171 454.297,214.353L454.456,214.148C454.773,213.33 455.249,212.716 455.726,212.102C455.884,211.488 456.202,211.079 456.519,210.465C456.995,209.646 457.471,208.623 457.948,207.804C458.9,205.553 459.694,203.507 460.328,201.256C460.487,200.642 460.805,200.233 460.963,199.619C461.122,198.8 461.281,197.982 461.439,197.163C461.598,196.345 461.757,195.526 462.074,194.708C462.074,194.298 462.233,193.684 462.233,193.275C462.392,192.661 462.551,192.252 462.551,191.638C462.551,190.819 462.709,190.206 462.709,189.592L462.709,189.387C462.868,189.182 462.868,188.978 462.868,188.568L462.868,186.522C463.027,186.113 463.027,185.703 463.027,185.294L463.027,182.02C463.027,181.815 463.027,181.611 462.868,181.611L462.868,178.95C462.868,178.95 462.868,178.746 462.709,178.541L462.709,177.109C462.551,176.495 462.551,175.676 462.392,175.062C462.233,174.244 462.233,173.63 461.916,172.811L461.916,172.197C461.757,171.379 461.439,170.56 461.281,169.742C461.122,168.719 460.805,167.695 460.487,166.672C459.852,164.83 459.217,162.989 458.424,161.147C457.789,159.715 457.154,158.487 456.519,157.259C456.043,156.44 455.567,155.417 454.932,154.599C454.456,153.78 453.98,152.961 453.503,152.143C453.027,151.734 452.71,151.12 452.392,150.71C451.599,149.892 450.964,149.073 450.17,148.255C449.535,147.641 448.901,147.027 448.266,146.413C447.472,145.595 446.679,144.981 445.885,144.162C445.25,143.753 444.615,143.139 443.822,142.73C442.711,141.911 441.599,141.297 440.33,140.683C438.901,139.865 437.473,139.251 436.044,138.841C435.727,138.841 435.568,138.637 435.251,138.637C434.933,138.432 434.616,138.432 434.298,138.228C433.822,138.228 433.505,138.023 433.029,138.023C431.918,137.818 430.648,137.614 429.537,137.614L429.219,137.614C428.584,137.409 427.95,137.409 427.315,137.409L369.858,137.409C368.906,137.409 367.953,137.204 367.001,137.614C366.684,137.614 366.366,137.614 366.049,137.818C365.414,138.228 364.938,138.637 364.62,139.455C364.462,140.069 364.303,140.888 364.303,141.706L364.303,278.814C364.303,279.632 364.303,280.451 364.62,281.269C364.779,282.292 365.255,282.906 365.89,283.316C366.525,283.52 367.16,283.725 367.795,283.725ZM400.332,191.229C399.697,191.229 399.063,191.024 398.586,190.615C397.951,190.206 397.634,189.592 397.317,188.773C397.158,187.955 396.999,187.136 397.158,186.317L397.158,184.68C396.999,183.657 397.158,182.839 397.475,182.02C397.634,181.201 398.11,180.588 398.904,180.178C399.063,180.178 399.38,179.974 399.697,179.974C400.65,179.769 401.443,179.769 402.396,179.769L423.505,179.769C423.982,179.769 424.458,179.769 424.775,179.974L424.934,179.974C425.886,179.974 426.68,180.383 427.473,180.997C428.267,181.815 428.902,182.634 429.219,183.862C429.378,184.885 429.378,185.703 429.219,186.727C429.219,187.341 428.902,187.955 428.584,188.568C427.95,189.796 426.997,190.41 426.045,190.819C425.251,191.229 424.299,191.229 423.505,191.229L400.332,191.229Z" style="fill:rgb(25,24,96);fill-rule:nonzero;"/>
            </g>
        </g>
    </g>
</svg>
