<?xml version="1.0" encoding="UTF-8" standalone="no"?>
<!DOCTYPE svg PUBLIC "-//W3C//DTD SVG 1.1//EN" "http://www.w3.org/Graphics/SVG/1.1/DTD/svg11.dtd">
<svg width="100%" height="100%" viewBox="0 0 960 1080" version="1.1" xmlns="http://www.w3.org/2000/svg" xmlns:xlink="http://www.w3.org/1999/xlink" xml:space="preserve" xmlns:serif="http://www.serif.com/" style="fill-rule:evenodd;clip-rule:evenodd;stroke-miterlimit:10;">
    <g transform="matrix(1,0,0,1,0,-1215)">
        <g id="Page-5" serif:id="Page 5" transform="matrix(1,0,0,1,0,1215)">
            <rect x="0" y="0" width="960" height="1080" style="fill:none;"/>
            <g id="Layer-24" serif:id="Layer 24">
                <rect x="1" y="0" width="958" height="1080" style="fill:rgb(97,95,214);"/>
            </g>
            <g id="PRODUZPropostasegunda">
                <g transform="matrix(1,0,0,1,645.643,898.715)">
                    <path d="M0,114.615C0,114.615 -19.719,142.776 -42.112,147.929C-64.507,153.083 -82.289,137.904 -107.452,85.607C-107.452,85.607 -121.131,34.897 -115.145,16.947C-109.157,-1.002 -108.803,-15.216 -77.771,-26.842C-46.739,-38.468 -38.231,-23.271 -38.231,-23.271L0,114.615Z" style="fill:rgb(73,71,161);fill-rule:nonzero;"/>
                </g>
                <g transform="matrix(1,0,0,1,761.322,1016.92)">
                    <path d="M0,-204.896C0,-204.896 -113.581,-162.756 -155.838,-147.08L-163.417,-143.504L-163.024,-141.745L-163.724,-144.154C-167.628,-142.706 -170.222,-141.744 -171.104,-141.417C-179.524,-138.293 -182.971,-138.527 -191.759,-118.07C-200.548,-97.613 -202.576,-79.199 -196.551,-57.471C-190.526,-35.744 -179.509,-20.75 -171.58,-12.81C-163.651,-4.871 -140.096,-0.643 -140.096,-0.643C-140.096,-0.643 -132.002,0 -122.001,-0.492L-122.189,-1.14L-114.72,-1.05C-108.092,-1.756 -101.284,-3.073 -95.823,-5.446C-79.621,-12.488 31.223,-59.202 31.223,-59.202C31.223,-59.202 33.698,-61.082 13.983,-98.125C-5.731,-135.169 0,-204.896 0,-204.896" style="fill:rgb(73,71,161);fill-rule:nonzero;"/>
                </g>
                <g transform="matrix(-0.993506,0.113777,0.113777,0.993506,874.622,963.431)">
                    <path d="M38.022,-199.962C38.022,-199.962 111.233,-202.693 111.646,-112.484C112.058,-22.274 64.451,14.948 38.022,8.287C11.595,1.627 -66.58,-36.859 -41.396,-124.731C-16.21,-212.603 38.022,-199.962 38.022,-199.962" style="fill:rgb(73,71,161);fill-rule:nonzero;"/>
                </g>
                <g transform="matrix(1,0,0,1,167.065,661.237)">
                    <path d="M0,-44.132L174.385,63.981C174.385,63.981 137.175,-14.554 96.501,-34.361C55.827,-54.169 37.074,-55.258 13.073,-46.839L1.877,-52.311C1.877,-52.311 23.868,-96.955 -9.608,-102.534C-43.085,-108.113 -71.741,-57.106 -64.147,-36.702C-56.554,-16.3 -35.523,0.438 0,-44.132" style="fill:rgb(73,71,161);fill-rule:nonzero;"/>
                </g>
                <g transform="matrix(-0.0987894,0.995108,0.995108,0.0987894,140.517,592.139)">
                    <path d="M3.625,-15.389C3.625,-15.389 30.603,-30.358 33.663,-16.07C36.723,-1.785 25.983,18.344 3.625,18.016C-18.733,17.687 -20.906,7.251 -14.642,-1.256C-8.379,-9.764 3.625,-15.389 3.625,-15.389" style="fill:rgb(73,71,161);fill-rule:nonzero;"/>
                </g>
                <g transform="matrix(1,0,0,1,223.902,785.251)">
                    <path d="M0,-132.909L-77.486,17.634C-77.486,17.634 -96.319,-46.248 -28.442,-150.543" style="fill:rgb(73,71,161);fill-rule:nonzero;"/>
                </g>
                <g transform="matrix(1,0,0,1,230.139,488.165)">
                    <path d="M0,125.082L19.677,99.747C19.677,99.747 85.604,65.658 76.95,32.829C68.297,0 26.332,23.865 1.182,54.115C-23.969,84.365 2.146,100.836 2.146,100.836L-16.484,121.657" style="fill:rgb(73,71,161);fill-rule:nonzero;"/>
                </g>
                <g transform="matrix(1,0,0,1,274.866,573.866)">
                    <path d="M0,-51.182C-2.069,-49.94 -49.688,-21.81 -39.03,-5.685C-28.373,10.441 0.871,-16 8.757,-27.19C16.643,-38.379 17.403,-61.623 0,-51.182" style="fill:rgb(73,71,161);fill-rule:nonzero;"/>
                </g>
                <g transform="matrix(1,0,0,1,502.405,569.626)">
                    <path d="M0,-66.015C0,-66.015 -10.858,-69.667 -26.332,-66.015C-41.805,-62.364 -54.926,-51.067 -61.647,-42.489C-68.368,-33.911 -72.455,-20.215 -64.41,-10.169C-56.364,-0.124 -50.647,3.652 -40.113,1.597C-29.579,-0.457 -12.118,-9.95 0.436,-22.041C12.988,-34.133 14.26,-39.571 14.18,-41.743C14.1,-43.913 18.848,-54.07 14.183,-59.746C9.518,-65.422 0,-66.015 0,-66.015" style="fill:rgb(73,71,161);fill-rule:nonzero;"/>
                </g>
                <g transform="matrix(1,0,0,1,678.96,289.215)">
                    <path d="M0,-127.029C0,-127.029 -22.543,-137.277 -53.265,-134.702C-83.986,-132.127 -80.386,-124.216 -80.386,-124.216L-84.045,-113.75C-84.045,-113.75 -78.946,-105.202 -72.263,-101.366L-92.603,-38.409C-92.603,-38.409 -103.006,-38.327 -105.641,-36.703L-111.772,-15.457C-111.772,-15.457 -99.4,-1.707 -90.053,2.44C-80.705,6.585 -71.869,10.021 -60.226,10.13C-48.582,10.239 -36.412,10.248 -32.892,7.83L-30.82,6.032L-28.977,-18.099L-30.782,-22.602L-33.454,-25.109L-22.682,-58.073L-11.325,-93.395C-11.325,-93.395 -2.348,-95.594 -1.554,-96.863C-0.761,-98.132 1.7,-106.66 1.7,-106.66L5.693,-120.496C5.693,-120.496 2.514,-126.012 0,-127.029" style="fill:rgb(73,71,161);fill-rule:nonzero;"/>
                </g>
                <g transform="matrix(1,0,0,1,72.9365,163.003)">
                    <path d="M0,226.597L15.494,291.425C15.494,291.425 12.807,298.305 48.591,285.811C84.376,273.317 236.558,253.927 253.937,250.336C271.315,246.746 348.042,240.798 358.826,224.835C369.609,208.872 359.573,195.156 356.352,161.011C353.129,126.866 339.671,9.655 332.947,-11.048C326.224,-31.751 301.039,-62.812 301.039,-62.812C301.039,-62.812 284.534,-71.708 244.488,-64.915C204.442,-58.122 133.649,-40.847 118.65,-36.134C103.652,-31.423 15.468,-3.454 15.468,-3.454C15.468,-3.454 -11.376,2.648 -8.564,37.485C-5.753,72.321 -5.697,109.172 5.414,114.412C16.525,119.652 76.357,114.459 96.688,95.523C96.688,95.523 87.037,56.89 116.039,50.732C145.041,44.574 166.572,41.85 166.572,41.85C166.572,41.85 179.388,46.181 182.974,70.974C186.56,95.766 192.837,149.839 192.837,149.839C192.837,149.839 198.511,166.223 172.616,170.616C146.722,175.008 74.815,189.373 74.815,189.373L69.31,195.263L42.967,200.661C42.967,200.661 38.792,197.962 43.808,196.492C48.824,195.021 47.365,193.72 47.365,193.72C47.365,193.72 24.629,196.647 15.857,201.542C7.085,206.438 -3.399,212.372 0,226.597" style="fill:rgb(73,71,161);fill-rule:nonzero;"/>
                </g>
                <g transform="matrix(1,0,0,1,210.702,428.568)">
                    <path d="M0,-88.52C0,-88.52 -5.43,-82.232 -0.682,-72.505C4.065,-62.779 10.385,-27.298 10.385,-27.298L15.016,0" style="fill:rgb(73,71,161);fill-rule:nonzero;"/>
                </g>
                <g transform="matrix(0.179355,0.983784,0.983784,-0.179355,193.417,227.802)">
                    <path d="M179.046,-145.292C179.046,-145.292 183.356,-115.762 179.629,-98.001C175.899,-80.24 175.617,-3.882 179.046,26.619C182.476,57.118 176.671,131.407 176.671,131.407C176.671,131.407 172.056,203.016 176.468,214.222" style="fill:rgb(73,71,161);fill-rule:nonzero;"/>
                </g>
                <g transform="matrix(1,0,0,1,397.939,199.312)">
                    <path d="M0,-64.394C0,-64.394 30.068,-71.791 36.076,-68.779C42.085,-65.767 48.539,-57.714 51.849,-41.353C55.158,-24.993 56.665,-12.957 56.665,-12.957C56.665,-12.957 57.644,-4.039 45.676,1.019C33.709,6.078 17.485,7.397 17.485,7.397" style="fill:rgb(73,71,161);fill-rule:nonzero;"/>
                </g>
                <g transform="matrix(1,0,0,1,440.836,195.507)">
                    <path d="M0,-59.207C0,-59.207 -3.17,-46.002 1.251,-34.639C5.673,-23.276 13.828,-9.578 10.043,0" style="fill:rgb(73,71,161);fill-rule:nonzero;"/>
                </g>
                <g transform="matrix(1,0,0,1,305.668,54.9813)">
                    <path d="M0,45.229L-3.239,20.316C-3.239,20.316 -2.777,14.762 -5.779,15.272C-8.781,15.781 -14.098,18.368 -14.098,18.368C-14.098,18.368 -17.021,14.372 -14.931,13.456C-12.84,12.54 19.705,0 45.688,0.084C45.688,0.084 49.106,2.032 46.163,7.023C46.163,7.023 37.178,7.845 35.955,9.737C34.731,11.628 40.393,40.553 40.393,40.553" style="fill:rgb(73,71,161);fill-rule:nonzero;"/>
                </g>
                <g transform="matrix(1,0,0,1,334.726,221.154)">
                    <path d="M0,-63.131C0,-63.131 -16.565,-51.481 -20.505,-48.01C-24.443,-44.539 -36.593,-28.464 -26.457,-15.737C-16.321,-3.012 -5.22,5.239 14.505,-1.773C34.229,-8.783 41.726,-26.872 41.707,-33.337C41.688,-39.802 42.101,-66.607 15.299,-65.726C15.299,-65.726 7.36,-68.37 0,-63.131" style="fill:rgb(73,71,161);fill-rule:nonzero;"/>
                </g>
                <g transform="matrix(-0.694062,0.719915,0.719915,0.694062,328.599,205.458)">
                    <path d="M-43.397,-9.505C-43.397,-9.505 -18.414,-40.089 -0.075,-9.505" style="fill:rgb(73,71,161);fill-rule:nonzero;"/>
                </g>
                <g transform="matrix(1,0,0,1,322.365,206.513)">
                    <path d="M0,-39.624C0,-39.624 30.87,-52.492 42.86,-39.003C54.852,-25.513 50.01,4.415 26.865,12.868" style="fill:rgb(73,71,161);fill-rule:nonzero;"/>
                </g>
                <g transform="matrix(1,0,0,1,139.65,257.079)">
                    <path d="M0,-113.776C0,-113.776 -7.745,-108.44 -9.959,-99.266C-12.174,-90.092 -12.047,-72.674 -10.312,-62.443C-8.576,-52.211 -8.063,-33.444 -5.334,-22.91C-2.604,-12.375 -1.265,2.009 2.099,2.381C5.461,2.753 5.953,-11.941 4.502,-20.494C3.052,-29.046 -1.687,-65.319 -1.913,-73.136C-2.14,-80.954 -0.788,-97.994 0.141,-102.708C1.069,-107.422 8.687,-116.529 8.687,-116.529" style="fill:rgb(73,71,161);fill-rule:nonzero;"/>
                </g>
                <g transform="matrix(0.929511,-0.368795,-0.368795,-0.929511,134.163,132.967)">
                    <path d="M2.074,2.517L16.96,2.517L12.542,-12.429L0.022,-11.541L2.074,2.517Z" style="fill:rgb(73,71,161);fill-rule:nonzero;"/>
                </g>
                <g transform="matrix(1,0,0,1,283.581,90.9725)">
                    <path d="M0,13.688C0,13.688 -2.163,0.966 0.687,0.483C3.539,0 4.547,2.298 4.903,4.4C5.26,6.501 8.698,12.212 8.698,12.212" style="fill:rgb(73,71,161);fill-rule:nonzero;"/>
                </g>
                <g transform="matrix(1,0,0,1,252.006,72.1766)">
                    <path d="M0,39.312L-4.078,15.274C-4.078,15.274 -19.449,20.216 -21.635,18.252C-23.82,16.288 -23.95,14.612 -23.95,14.612C-23.95,14.612 10.488,0.124 27.604,0L31.577,6.119C31.577,6.119 16.885,14.168 15.984,14.322C15.084,14.474 18.166,35.381 18.166,35.381" style="fill:rgb(73,71,161);fill-rule:nonzero;"/>
                </g>
                <g transform="matrix(1,0,0,1,354.502,72.6296)">
                    <path d="M0,9.274L-1.146,2.521L7.689,0L9.347,5.218" style="fill:rgb(73,71,161);fill-rule:nonzero;"/>
                </g>
                <g transform="matrix(1,0,0,1,136.729,101.787)">
                    <path d="M0,34.686C0,34.686 76.634,11.032 99.169,7.845C121.703,4.659 132.63,0 132.63,0" style="fill:rgb(73,71,161);fill-rule:nonzero;"/>
                </g>
                <g transform="matrix(-0.949213,0.314635,0.314635,0.949213,157.235,142.232)">
                    <path d="M-102.257,-16.506C-102.257,-16.506 -10.17,-21.142 2.664,-16.506" style="fill:rgb(73,71,161);fill-rule:nonzero;"/>
                </g>
                <g transform="matrix(-0.983055,0.183312,0.183312,0.983055,139.561,332.355)">
                    <path d="M8.533,-57.87C8.533,-57.87 9.317,-21.582 9.29,-11.544C9.261,-1.505 11.574,0.92 8.533,0.211C5.489,-0.496 5.111,-0.49 5.015,-6.36C4.92,-12.23 1.323,-57.817 1.323,-57.817" style="fill:rgb(73,71,161);fill-rule:nonzero;"/>
                </g>
                <g transform="matrix(0.167264,0.985912,0.985912,-0.167264,136.618,338.621)">
                    <path d="M-5.208,-6.166L7.3,-6.166" style="fill:none;fill-rule:nonzero;"/>
                </g>
                <g transform="matrix(1,0,0,1,131.001,344.549)">
                    <path d="M0,-69.485C0,-69.485 1.551,-38.884 2.899,-32.006C4.247,-25.129 8.322,0 8.322,0" style="fill:rgb(73,71,161);fill-rule:nonzero;"/>
                </g>
                <g transform="matrix(-0.0804377,-0.99676,-0.99676,0.0804377,147.241,283.518)">
                    <path d="M-12.073,11.229C-0.769,10.225 10.367,11.229 10.367,11.229" style="fill:rgb(73,71,161);fill-rule:nonzero;"/>
                </g>
                <g transform="matrix(1,0,0,1,146.373,324.55)">
                    <path d="M0,-28.261C0.67,-28.408 1.406,-28.473 2.068,-28.134C2.703,-27.808 3.241,-27.294 3.65,-26.738C4.491,-25.623 5.159,-24.389 5.704,-23.147C6.854,-20.652 7.278,-18.052 7.603,-15.49C7.749,-14.203 7.857,-12.921 7.896,-11.635C7.935,-10.352 7.992,-9.089 7.958,-7.703C7.921,-6.343 7.82,-4.957 7.413,-3.531C7.216,-2.823 6.936,-2.091 6.441,-1.368C6.205,-1.011 5.884,-0.642 5.461,-0.331C5.033,-0.028 4.456,0.212 3.891,0.19C2.728,0.173 2.062,-0.465 1.532,-0.961C1.005,-1.499 0.629,-2.08 0.265,-2.653C-0.447,-3.806 -1.01,-4.989 -1.566,-6.177C-2.653,-8.548 -3.908,-10.956 -4.565,-13.548C-5.239,-16.114 -5.338,-18.92 -4.484,-21.587C-4.072,-22.913 -3.481,-24.187 -2.747,-25.333C-2.567,-25.62 -2.357,-25.892 -2.18,-26.171C-1.955,-26.427 -1.78,-26.709 -1.544,-26.949C-1.093,-27.451 -0.653,-27.902 0,-28.261M0.136,-27.884C-0.327,-27.618 -0.805,-27.137 -1.113,-26.62C-1.446,-26.105 -1.671,-25.522 -1.819,-24.928C-2.119,-23.735 -2.063,-22.481 -1.954,-21.279C-1.691,-18.868 -1.395,-16.534 -1.271,-14.068C-1.162,-11.615 -1.193,-9.03 -0.371,-6.662C0.028,-5.487 0.611,-4.368 1.364,-3.429C1.737,-2.964 2.168,-2.54 2.624,-2.26C3.058,-1.957 3.575,-1.861 3.713,-1.992C3.826,-2.073 3.913,-2.261 4.046,-2.677C4.153,-3.079 4.232,-3.592 4.26,-4.138C4.325,-5.222 4.291,-6.405 4.179,-7.592C4.06,-8.758 3.878,-10.038 3.729,-11.301C3.557,-12.558 3.452,-13.82 3.351,-15.074C3.264,-16.331 3.182,-17.583 3.126,-18.829C3.07,-20.076 3.107,-21.326 3.108,-22.574C3.111,-23.82 3.081,-25.073 2.712,-26.208C2.539,-26.784 2.219,-27.275 1.777,-27.624C1.323,-27.983 0.702,-27.975 0.136,-27.884" style="fill:rgb(73,71,161);fill-rule:nonzero;"/>
                </g>
                <g transform="matrix(-0.985917,0.167233,0.167233,0.985917,137.371,300.938)">
                    <path d="M-10.45,-0.88L0.074,-0.88" style="fill:none;fill-rule:nonzero;"/>
                </g>
                <g transform="matrix(-0.972354,0.233514,0.233514,0.972354,141.499,329.888)">
                    <path d="M-14.574,-1.725L0.204,-1.726" style="fill:none;fill-rule:nonzero;"/>
                </g>
                <g transform="matrix(-0.998831,-0.0483285,-0.0483285,0.998831,92.3968,198.734)">
                    <path d="M0.564,-16.063C0.564,-16.063 5.852,-14.726 7.659,-7.877C9.467,-1.027 5.389,0.868 0.564,-0.193C-4.261,-1.254 -9.598,-8.705 -6.781,-12.795C-3.963,-16.884 0.564,-16.063 0.564,-16.063" style="fill:rgb(73,71,161);fill-rule:nonzero;"/>
                </g>
                <g transform="matrix(1,0,0,1,92.6094,196.914)">
                    <path d="M0,-14.252C0,-14.252 7.107,-16.014 9.022,-12.367C9.022,-12.367 14.258,0.282 -2.354,1.762" style="fill:rgb(73,71,161);fill-rule:nonzero;"/>
                </g>
                <g transform="matrix(-0.985917,0.167235,0.167235,0.985917,355.82,317.015)">
                    <path d="M-0.097,-51.036C-0.097,-51.036 24.801,-47.104 25.063,-33.214C25.326,-19.324 14.842,0.071 -0.097,-8.055C-15.036,-16.18 -24.277,-25.614 -21.097,-36.359C-17.919,-47.104 -11.105,-51.036 -0.097,-51.036" style="fill:rgb(73,71,161);fill-rule:nonzero;"/>
                </g>
                <g transform="matrix(-0.969235,0.246136,0.246136,0.969235,375.485,310.668)">
                    <path d="M20.659,-58.834C20.659,-58.834 44.012,-49.679 49.585,-32.775C55.159,-15.871 49.416,0.895 20.659,2.957C-8.098,5.018 -21.944,-19.893 -17.139,-35.269C-12.334,-50.645 -0.923,-62.348 20.659,-58.834" style="fill:rgb(73,71,161);fill-rule:nonzero;"/>
                </g>
                <g transform="matrix(1,0,0,1,442.993,981.327)">
                    <path d="M0,-37.944C0,-37.944 -2.571,-8.264 -2.571,-5.655C-2.571,-3.045 -3.479,0 -1.286,-1.305" style="fill:rgb(73,71,161);fill-rule:nonzero;"/>
                </g>
                <g transform="matrix(1,0,0,1,454.662,563.412)">
                    <path d="M0,-49.512C-4.667,-46.106 -8.901,-42.194 -12.417,-38.106C-16.931,-32.857 -20.36,-26.325 -20.929,-19.339C-21.513,-12.17 -18.119,-5.226 -13.693,0.217C-3.222,13.098 13.551,8.041 25.851,0.913C32.52,-2.952 38.701,-7.643 44.531,-12.67C49.935,-17.328 55.17,-21.641 58.669,-27.983C63.202,-36.199 68.757,-54.33 55.715,-57.887C45.202,-60.754 34.218,-62.61 23.393,-60.396C15.264,-58.733 7.127,-54.712 0,-49.512Z" style="fill:none;fill-rule:nonzero;stroke:rgb(97,95,214);stroke-width:1px;"/>
                </g>
                <g transform="matrix(1,0,0,1,442.453,509.596)">
                    <path d="M0,43.075C-0.824,40.319 -1.016,37.415 -0.896,34.54C-0.765,31.663 -0.228,28.78 0.784,26.068C1.828,23.36 3.329,20.877 4.937,18.529C6.547,16.178 8.303,13.929 10.289,11.847C14.262,7.657 19.443,4.725 24.833,2.764C30.274,0.866 36.004,0.016 41.687,0L41.709,0.199C36.179,1.468 30.737,2.788 25.558,4.771C24.265,5.266 22.963,5.739 21.709,6.316C20.42,6.827 19.198,7.467 17.971,8.102C15.576,9.467 13.196,10.898 11.029,12.654C8.876,14.413 6.937,16.487 5.482,18.881C4.021,21.272 3.089,23.935 2.364,26.59C0.81,31.876 0.072,37.388 0.196,43.037L0,43.075Z" style="fill:rgb(97,95,214);fill-rule:nonzero;"/>
                </g>
                <g transform="matrix(1,0,0,1,458.709,526.951)">
                    <path d="M0,35.776C5.7,35.433 11.193,34.271 16.59,32.731C19.301,32.008 22.032,31.186 24.591,29.955C27.146,28.72 29.521,27.13 31.696,25.319C33.848,23.475 35.906,21.557 37.87,19.548C39.807,17.512 41.637,15.381 43.359,13.164C46.876,8.78 50.003,4.075 53.029,-0.794L53.21,-0.707C51.317,4.718 48.534,9.851 45.042,14.474C43.308,16.797 41.284,18.892 39.189,20.889C37.098,22.897 34.766,24.642 32.342,26.204C29.913,27.767 27.398,29.148 24.887,30.532C22.371,31.907 19.819,33.289 17.101,34.315C14.377,35.317 11.514,35.921 8.634,36.24C5.752,36.516 2.825,36.57 -0.021,35.974L0,35.776Z" style="fill:rgb(97,95,214);fill-rule:nonzero;"/>
                </g>
                <g transform="matrix(1,0,0,1,463.755,541.964)">
                    <path d="M0,3.557C-0.673,4.208 -1.353,4.893 -2.245,5.369C-2.688,5.605 -3.191,5.786 -3.746,5.798C-4.295,5.822 -4.921,5.628 -5.387,5.197C-5.833,4.743 -6.037,4.111 -6.028,3.557C-6.022,2.996 -5.885,2.481 -5.693,2.006C-5.314,1.048 -4.65,0.274 -3.905,-0.349C-3.15,-0.964 -2.337,-1.477 -1.444,-1.847C-0.997,-2.028 -0.526,-2.187 -0.007,-2.229C0.504,-2.265 1.097,-2.139 1.557,-1.748C1.999,-1.339 2.211,-0.728 2.199,-0.188C2.203,0.36 2.03,0.864 1.799,1.306C1.333,2.202 0.643,2.876 0,3.557M-0.07,3.486C0.593,2.832 1.027,1.956 1.21,1.088C1.387,0.225 1.403,-0.632 0.969,-1.159C0.544,-1.714 -0.484,-1.84 -1.332,-1.543C-2.202,-1.264 -2.939,-0.652 -3.519,0.038C-4.08,0.75 -4.54,1.527 -4.811,2.331C-5.084,3.131 -5.061,4.011 -4.633,4.442C-4.215,4.901 -3.33,4.924 -2.474,4.752C-1.604,4.58 -0.732,4.14 -0.07,3.486" style="fill:rgb(97,95,214);fill-rule:nonzero;"/>
                </g>
                <g transform="matrix(1,0,0,1,473.272,526.021)">
                    <path d="M0,4.638C-0.869,5.481 -1.773,6.335 -2.928,6.903C-3.5,7.186 -4.139,7.397 -4.832,7.406C-5.518,7.427 -6.282,7.186 -6.848,6.659C-7.39,6.105 -7.641,5.334 -7.635,4.644C-7.632,3.945 -7.464,3.293 -7.225,2.69C-6.746,1.476 -5.921,0.472 -4.985,-0.347C-4.034,-1.155 -2.993,-1.833 -1.842,-2.299C-1.266,-2.526 -0.658,-2.716 -0.002,-2.755C0.646,-2.789 1.378,-2.616 1.937,-2.127C2.476,-1.62 2.735,-0.87 2.727,-0.193C2.732,0.492 2.53,1.133 2.251,1.704C1.694,2.862 0.833,3.761 0,4.638M-0.07,4.567C0.785,3.717 1.379,2.611 1.662,1.487C1.933,0.374 1.983,-0.803 1.349,-1.539C0.717,-2.293 -0.634,-2.385 -1.729,-1.994C-2.858,-1.62 -3.823,-0.842 -4.599,0.039C-5.352,0.947 -5.981,1.949 -6.343,3.016C-6.71,4.064 -6.721,5.264 -6.094,5.904C-5.468,6.562 -4.262,6.551 -3.156,6.285C-2.03,6.013 -0.928,5.413 -0.07,4.567" style="fill:rgb(97,95,214);fill-rule:nonzero;"/>
                </g>
                <g transform="matrix(1,0,0,1,476.033,540.946)">
                    <path d="M0,6.843C-1.164,6.51 -2.356,6.154 -3.425,5.437C-3.955,5.082 -4.457,4.634 -4.811,4.038C-5.171,3.455 -5.345,2.672 -5.169,1.918C-4.96,1.172 -4.419,0.571 -3.816,0.231C-3.21,-0.116 -2.562,-0.296 -1.919,-0.389C-0.629,-0.581 0.653,-0.368 1.83,0.034C3.005,0.455 4.112,1.02 5.09,1.784C5.575,2.169 6.043,2.601 6.404,3.151C6.757,3.695 6.973,4.415 6.829,5.144C6.657,5.864 6.138,6.463 5.547,6.793C4.956,7.141 4.3,7.285 3.665,7.328C2.385,7.424 1.176,7.127 0,6.843M0.026,6.746C1.189,7.064 2.445,7.026 3.56,6.71C4.659,6.389 5.705,5.845 6.025,4.928C6.362,4.003 5.769,2.787 4.883,2.033C3.994,1.242 2.84,0.794 1.688,0.563C0.526,0.363 -0.656,0.317 -1.761,0.537C-2.853,0.742 -3.898,1.332 -4.14,2.196C-4.396,3.066 -3.785,4.106 -3.004,4.931C-2.205,5.771 -1.136,6.426 0.026,6.746" style="fill:rgb(97,95,214);fill-rule:nonzero;"/>
                </g>
                <g transform="matrix(1,0,0,1,485.301,530.739)">
                    <path d="M0,-6.088C1.163,-7.39 2.319,-8.769 3.914,-9.797C4.705,-10.304 5.619,-10.719 6.66,-10.819C7.687,-10.943 8.897,-10.665 9.841,-9.913C10.749,-9.115 11.218,-7.948 11.279,-6.905C11.351,-5.851 11.162,-4.864 10.859,-3.952C10.271,-2.112 9.134,-0.582 7.818,0.67C6.477,1.902 5.043,2.974 3.429,3.782C2.623,4.188 1.766,4.538 0.803,4.698C-0.146,4.855 -1.288,4.712 -2.207,4.025C-3.103,3.318 -3.579,2.193 -3.642,1.179C-3.709,0.149 -3.453,-0.814 -3.083,-1.673C-2.301,-3.398 -1.104,-4.736 0,-6.088M0.151,-5.957C-0.99,-4.653 -1.673,-2.958 -1.858,-1.319C-2.063,0.305 -1.955,1.87 -1.118,2.766C-0.689,3.206 -0.031,3.528 0.755,3.596C1.538,3.666 2.381,3.504 3.16,3.191C4.733,2.557 6.029,1.329 6.99,-0.046C7.922,-1.45 8.664,-2.953 9.043,-4.477C9.423,-5.992 9.271,-7.59 8.445,-8.299C7.65,-9.067 6.03,-9.012 4.458,-8.599C2.865,-8.182 1.291,-7.263 0.151,-5.957" style="fill:rgb(97,95,214);fill-rule:nonzero;"/>
                </g>
                <g transform="matrix(1,0,0,1,167.065,661.237)">
                    <path d="M0,-44.132L174.385,63.981C174.385,63.981 137.175,-14.554 96.501,-34.361C55.827,-54.169 37.074,-55.258 13.073,-46.839L1.877,-52.311C1.877,-52.311 23.868,-96.955 -9.608,-102.534C-43.085,-108.113 -71.741,-57.106 -64.147,-36.702C-56.554,-16.3 -35.523,0.438 0,-44.132Z" style="fill:none;fill-rule:nonzero;stroke:rgb(97,95,214);stroke-width:4px;"/>
                </g>
                <g transform="matrix(-0.0987894,0.995108,0.995108,0.0987894,140.517,592.139)">
                    <path d="M3.625,-15.389C3.625,-15.389 30.603,-30.358 33.663,-16.07C36.723,-1.785 25.983,18.344 3.625,18.016C-18.733,17.687 -20.906,7.251 -14.642,-1.256C-8.379,-9.764 3.625,-15.389 3.625,-15.389Z" style="fill:none;fill-rule:nonzero;stroke:rgb(97,95,214);stroke-width:4px;"/>
                </g>
                <g transform="matrix(1,0,0,1,223.902,785.251)">
                    <path d="M0,-132.909L-77.486,17.634C-77.486,17.634 -96.319,-46.248 -28.442,-150.543" style="fill:none;fill-rule:nonzero;stroke:rgb(97,95,214);stroke-width:4px;"/>
                </g>
                <g transform="matrix(1,0,0,1,230.139,488.165)">
                    <path d="M0,125.082L19.677,99.747C19.677,99.747 85.604,65.658 76.95,32.829C68.297,0 26.332,23.865 1.182,54.115C-23.969,84.365 2.146,100.836 2.146,100.836L-16.484,121.657" style="fill:none;fill-rule:nonzero;stroke:rgb(97,95,214);stroke-width:4px;"/>
                </g>
                <g transform="matrix(1,0,0,1,274.866,573.866)">
                    <path d="M0,-51.182C-2.069,-49.94 -49.688,-21.81 -39.03,-5.685C-28.373,10.441 0.871,-16 8.757,-27.19C16.643,-38.379 17.403,-61.623 0,-51.182Z" style="fill:none;fill-rule:nonzero;stroke:rgb(97,95,214);stroke-width:4px;"/>
                </g>
                <g transform="matrix(-0.91849,0.395444,0.395444,0.91849,540.716,959.343)">
                    <path d="M-229.212,98.185L-148.75,98.185C-148.75,98.185 -26.378,112.698 -21.101,37.853C-15.823,-36.992 -70.02,-57.874 -70.02,-57.874L-254.102,-48.4" style="fill:none;fill-rule:nonzero;stroke:rgb(97,95,214);stroke-width:4px;"/>
                </g>
                <g transform="matrix(-0.993506,0.113777,0.113777,0.993506,874.622,963.431)">
                    <path d="M38.022,-199.962C38.022,-199.962 111.233,-202.693 111.646,-112.484C112.058,-22.274 64.451,14.948 38.022,8.287C11.595,1.627 -66.58,-36.859 -41.396,-124.731C-16.21,-212.603 38.022,-199.962 38.022,-199.962Z" style="fill:none;fill-rule:nonzero;stroke:rgb(97,95,214);stroke-width:4px;"/>
                </g>
                <g transform="matrix(1,0,0,1,581.147,1046.58)">
                    <path d="M0,-176.863L-0.459,-176.832C-0.67,-176.818 -22.169,-175.238 -36.929,-157.944C-48.955,-143.863 -53.404,-123.422 -50.152,-97.187C-44.668,-52.941 -26.768,-18.083 -2.271,-3.942C6.61,1.183 15.419,2.738 21.896,0.32C30.35,-2.842 47.75,-12.399 61.454,-28.67C50.819,-28.006 42.229,-28.549 42.229,-28.549C42.229,-28.549 17.267,-32.569 8.964,-40.68C0.661,-48.792 -10.813,-64.173 -16.88,-86.614C-22.946,-109.054 -20.507,-128.183 -10.853,-149.535C-1.199,-170.887 2.46,-170.698 11.455,-174.066C12.397,-174.42 15.168,-175.457 19.339,-177.019C8.306,-179.601 0.51,-177.038 0.424,-177.008L0,-176.863Z" style="fill:none;fill-rule:nonzero;stroke:rgb(97,95,214);stroke-width:4.2px;"/>
                </g>
                <g transform="matrix(1,0,0,1,601.18,871.919)">
                    <path d="M0,174.624C-6.168,176.903 -14.624,175.253 -23.2,170.1C-46.856,155.879 -64.492,121.43 -70.374,77.948C-73.861,52.167 -69.893,32.179 -58.578,18.537C-44.692,1.783 -24.13,0.539 -23.929,0.529L-23.489,0.505L-23.086,0.369C-23.004,0.341 -15.576,-2.063 -4.976,0.627C-2.717,-0.212 -0.021,-1.212 3.045,-2.349L1.32,-3.828L0.778,-4.019C-12.429,-8.648 -22.435,-6.194 -24.636,-5.54C-27.915,-5.294 -48.533,-3.076 -63.211,14.563C-75.709,29.576 -80.153,51.177 -76.421,78.767C-70.295,124.065 -51.573,160.164 -26.344,175.329C-16.173,181.444 -5.8,183.272 2.115,180.348C3.716,179.758 5.445,179.029 7.275,178.166C18.341,172.947 33.033,162.784 44.241,148.042L44.809,147.295L44.868,146.182C42.346,146.45 39.852,146.633 37.462,146.75C24.572,162.516 8.049,171.643 0,174.624Z" style="fill:none;fill-rule:nonzero;stroke:rgb(97,95,214);stroke-width:4.07px;"/>
                </g>
                <g transform="matrix(1,0,0,1,826.822,881.847)">
                    <path d="M0,-38.459C-0.006,-38.479 -0.012,-38.49 -0.012,-38.504L0.018,-38.607L0.079,-38.815L0.228,-39.224C0.343,-39.491 0.466,-39.761 0.639,-40.011C0.964,-40.512 1.418,-41.012 2.062,-41.292L2.553,-41.488L3.08,-41.555C3.449,-41.624 3.774,-41.541 4.121,-41.485C4.486,-41.447 4.764,-41.302 5.066,-41.172C5.372,-41.044 5.674,-40.906 5.912,-40.724L6.684,-40.2C6.933,-40.018 7.133,-39.812 7.361,-39.615L8.021,-39.007C8.223,-38.796 8.405,-38.575 8.599,-38.359C9.399,-37.5 10.061,-36.583 10.722,-35.65C11.362,-34.714 11.938,-33.758 12.54,-32.796L13.35,-31.168L14,-29.491C14.771,-27.228 15.116,-24.891 15.231,-22.577C15.425,-17.94 14.609,-13.377 13.109,-9.063C12.354,-6.907 11.427,-4.793 10.165,-2.832C9.552,-1.847 8.824,-0.911 8.001,-0.051C7.616,0.395 7.121,0.775 6.688,1.181C6.178,1.533 5.728,1.933 5.153,2.207C4.102,2.855 2.763,3.165 1.496,3.109C0.191,3.072 -0.962,2.469 -1.923,1.804C-3.819,0.366 -5.063,-1.538 -6.244,-3.424C-7.412,-5.329 -8.302,-7.347 -9.378,-9.327C-10.234,-11.395 -11.173,-13.489 -11.588,-15.768C-12.568,-20.26 -12.013,-25.241 -9.902,-29.444C-8.791,-31.514 -7.394,-33.407 -5.701,-34.96C-5.26,-35.33 -4.831,-35.707 -4.384,-36.059C-3.927,-36.399 -3.447,-36.71 -2.984,-37.03C-2.497,-37.322 -2.007,-37.602 -1.504,-37.855C-1.25,-37.979 -0.994,-38.096 -0.736,-38.208C-0.487,-38.296 -0.176,-38.457 0,-38.459M0.3,-38.194L-0.375,-37.626L-0.969,-37.077C-1.363,-36.715 -1.728,-36.316 -2.101,-35.944C-2.453,-35.544 -2.816,-35.162 -3.151,-34.758C-3.468,-34.333 -3.803,-33.935 -4.125,-33.528C-5.344,-31.833 -6.306,-30.032 -7.075,-28.173C-7.718,-26.265 -8.239,-24.331 -8.364,-22.326L-8.487,-20.829C-8.514,-20.328 -8.45,-19.82 -8.456,-19.316C-8.446,-18.811 -8.437,-18.305 -8.444,-17.796C-8.423,-17.288 -8.332,-16.78 -8.289,-16.269C-8.188,-14.21 -7.711,-12.16 -7.3,-10.071C-6.676,-8.044 -6.089,-5.952 -5.117,-4.054C-4.127,-2.194 -2.845,-0.41 -1.163,0.678C-0.967,0.841 -0.732,0.911 -0.515,1.017C-0.291,1.101 -0.085,1.249 0.146,1.284L0.829,1.417C1.054,1.455 1.283,1.407 1.505,1.413C2.394,1.333 3.244,0.99 3.966,0.367C5.459,-0.783 6.475,-2.618 7.371,-4.412C8.245,-6.248 8.953,-8.193 9.5,-10.188C10.596,-14.186 11.016,-18.365 10.962,-22.43C10.928,-24.464 10.729,-26.481 10.278,-28.404L9.88,-29.819L9.361,-31.175C8.91,-32.117 8.494,-33.103 8.019,-34.033C7.069,-35.887 6.025,-37.725 4.692,-39.081C4.013,-39.708 3.281,-40.189 2.5,-40.047C2.293,-40.05 2.11,-39.917 1.896,-39.852C1.712,-39.721 1.491,-39.619 1.32,-39.438C1.133,-39.277 0.959,-39.092 0.789,-38.896L0.551,-38.585L0.441,-38.422L0.387,-38.339C0.361,-38.289 0.331,-38.238 0.3,-38.194" style="fill:rgb(97,95,214);fill-rule:nonzero;"/>
                </g>
                <g transform="matrix(1,0,0,1,603.977,941.975)">
                    <path d="M0,62.125C6.15,59.166 12.44,56.61 18.76,54.137L23.511,52.317L28.288,50.571C31.471,49.399 34.686,48.321 37.926,47.314C44.412,45.313 51.033,43.689 57.474,41.557C60.687,40.481 63.912,39.392 67.05,38.149C70.203,36.909 73.288,35.487 76.397,34.136C82.573,31.322 88.745,28.521 94.967,25.857L113.507,17.618C119.705,14.931 125.879,12.199 131.994,9.364C135.047,7.938 138.085,6.48 141.06,4.912C144.03,3.337 146.976,1.708 149.629,-0.378L149.913,-0.097C148.797,1.21 147.548,2.422 146.219,3.51C144.906,4.628 143.538,5.672 142.131,6.655C139.331,8.648 136.41,10.44 133.453,12.155C127.545,15.607 121.423,18.622 115.255,21.51C109.063,24.351 102.736,26.861 96.403,29.335C93.236,30.569 90.062,31.784 86.855,32.917C83.655,34.063 80.415,35.105 77.189,36.178C73.975,37.28 70.725,38.282 67.526,39.422C64.296,40.514 61.093,41.593 57.911,42.778C51.546,45.122 45.361,47.976 39.041,50.451C35.878,51.684 32.69,52.844 29.47,53.91L24.643,55.521L19.79,57.061C13.303,59.063 6.787,60.984 0.132,62.503L0,62.125Z" style="fill:rgb(97,95,214);fill-rule:nonzero;"/>
                </g>
                <g transform="matrix(1,0,0,1,611.558,935.359)">
                    <path d="M0,46.193C5.621,43.673 11.36,41.548 17.123,39.499C20.009,38.488 22.898,37.489 25.808,36.557C28.711,35.602 31.635,34.715 34.59,33.926C40.498,32.344 46.52,31.119 52.382,29.384C58.246,27.655 64.008,25.604 69.708,23.368C72.564,22.27 75.403,21.121 78.27,20.057C81.131,18.979 84.013,17.964 86.889,16.934C92.645,14.882 98.387,12.801 104.183,10.89C109.983,8.99 115.807,7.164 121.637,5.364L130.371,2.643C131.825,2.181 133.278,1.724 134.718,1.231C136.161,0.744 137.587,0.24 138.972,-0.382L139.19,-0.047C137.947,0.897 136.604,1.695 135.251,2.439C133.892,3.173 132.521,3.888 131.129,4.544C128.358,5.894 125.544,7.125 122.717,8.324C117.061,10.71 111.331,12.886 105.561,14.934C99.786,16.97 93.928,18.75 88.072,20.525C85.144,21.413 82.214,22.294 79.264,23.11C76.317,23.939 73.341,24.673 70.38,25.453C64.445,26.971 58.56,28.638 52.772,30.614C46.982,32.578 41.345,35.031 35.589,37.11C32.71,38.148 29.801,39.089 26.868,39.954C23.942,40.842 20.995,41.661 18.042,42.46C12.128,44.033 6.187,45.515 0.117,46.575L0,46.193Z" style="fill:rgb(97,95,214);fill-rule:nonzero;"/>
                </g>
                <g transform="matrix(1,0,0,1,565.192,861.725)">
                    <path d="M0,71.501C14.329,64.579 28.744,57.839 43.289,51.356C50.577,48.149 57.899,45.016 65.313,42.065C69.02,40.59 72.754,39.17 76.537,37.841L87.831,33.975C95.352,31.395 102.857,28.78 110.328,26.079L132.784,18.152C140.276,15.545 147.742,12.871 155.135,10.037C158.824,8.604 162.506,7.147 166.103,5.521C167.9,4.71 169.701,3.889 171.418,2.935C173.127,1.977 174.858,0.996 176.258,-0.362L176.562,-0.103C175.313,1.53 173.672,2.76 172.03,3.916C170.386,5.088 168.662,6.12 166.934,7.146C163.445,9.136 159.863,10.932 156.24,12.624C149,16.028 141.598,19.026 134.161,21.908C119.279,27.665 104.001,32.224 88.827,37.016L77.451,40.594C73.698,41.807 69.962,43.12 66.243,44.493C58.805,47.239 51.422,50.181 44.071,53.197C29.345,59.177 14.715,65.429 0.17,71.863L0,71.501Z" style="fill:rgb(97,95,214);fill-rule:nonzero;"/>
                </g>
                <g transform="matrix(1,0,0,1,584.304,875.405)">
                    <path d="M0,59.842C13.345,55.04 26.671,50.187 39.982,45.297C53.315,40.47 66.631,35.596 79.912,30.642C86.551,28.16 93.175,25.64 99.769,23.055L109.687,19.259L119.615,15.531C121.267,14.912 122.941,14.326 124.574,13.68L129.481,11.75C131.093,11.086 132.632,10.388 134.225,9.674C135.815,8.867 137.417,8.082 139.033,7.327C145.484,4.291 152.084,1.507 158.986,-0.379L159.108,0.002C155.883,1.444 152.711,3.019 149.604,4.701C146.48,6.351 143.399,8.075 140.334,9.822L135.759,12.483C134.168,13.322 132.524,14.194 130.902,14.982C127.646,16.46 124.371,17.908 121.083,19.253C107.933,24.713 94.403,29.033 80.987,33.655C67.559,38.238 54.105,42.737 40.637,47.187C27.146,51.574 13.646,55.923 0.128,60.221L0,59.842Z" style="fill:rgb(97,95,214);fill-rule:nonzero;"/>
                </g>
                <g transform="matrix(1,0,0,1,576.443,836.956)">
                    <path d="M0,54.972L79.717,26.864C92.998,22.171 106.151,17.118 119.526,12.726C132.876,8.246 146.334,4.129 159.678,-0.38L159.848,-0.017C158.287,0.809 156.712,1.621 155.121,2.41L150.312,4.646C147.093,6.121 143.833,7.466 140.572,8.822C134.047,11.517 127.46,14.042 120.853,16.499C117.542,17.71 114.231,18.922 110.897,20.064L100.874,23.423L80.746,29.894L40.493,42.808L0.125,55.352L0,54.972Z" style="fill:rgb(97,95,214);fill-rule:nonzero;"/>
                </g>
                <g transform="matrix(1,0,0,1,828.17,952.563)">
                    <path d="M0,-161.272C-0.239,-161.545 -0.619,-161.617 -0.959,-161.694C-1.309,-161.767 -1.663,-161.812 -2.019,-161.845C-2.73,-161.908 -3.445,-161.935 -4.16,-161.927C-5.59,-161.92 -7.018,-161.823 -8.438,-161.669C-11.278,-161.377 -14.096,-160.883 -16.863,-160.205C-22.396,-158.851 -27.748,-156.794 -32.688,-154.048C-42.652,-148.682 -50.771,-140.252 -55.705,-130.216C-60.649,-120.154 -62.671,-108.84 -62.808,-97.584C-62.87,-91.943 -62.537,-86.286 -61.858,-80.661C-61.707,-79.252 -61.503,-77.849 -61.293,-76.447C-61.11,-75.041 -60.844,-73.647 -60.583,-72.252C-60.058,-69.465 -59.612,-66.66 -58.893,-63.919L-57.928,-59.783C-57.583,-58.411 -57.15,-57.065 -56.766,-55.705C-56.351,-54.355 -56.019,-52.974 -55.535,-51.649L-54.114,-47.662C-53.868,-47.001 -53.66,-46.324 -53.384,-45.676L-52.553,-43.734C-51.991,-42.443 -51.46,-41.136 -50.875,-39.857C-49.575,-37.367 -48.407,-34.797 -46.91,-32.424L-45.84,-30.611L-45.303,-29.707L-44.704,-28.842L-42.314,-25.385C-40.567,-23.203 -38.855,-20.98 -36.874,-19.007C-32.997,-14.991 -28.619,-11.453 -23.787,-8.653C-14.132,-3.047 -2.659,-0.565 8.565,-1.72C11.379,-1.956 14.152,-2.517 16.902,-3.187C19.614,-3.977 22.322,-4.858 24.871,-6.109C30.007,-8.505 34.73,-11.938 38.243,-16.506C36.646,-14.119 34.729,-11.934 32.548,-10.02C30.314,-8.188 27.937,-6.484 25.349,-5.163C22.806,-3.746 20.082,-2.697 17.33,-1.738C14.541,-0.901 11.704,-0.171 8.806,0.225C3.018,1.051 -2.916,0.946 -8.707,-0.079C-14.5,-1.101 -20.122,-3.117 -25.309,-5.927C-30.504,-8.734 -35.236,-12.37 -39.38,-16.558C-41.506,-18.61 -43.346,-20.911 -45.22,-23.183L-47.788,-26.768L-48.431,-27.666L-49.009,-28.602L-50.16,-30.479C-51.78,-32.938 -52.991,-35.613 -54.364,-38.203C-54.98,-39.53 -55.54,-40.881 -56.13,-42.22L-57.004,-44.233C-57.294,-44.905 -57.514,-45.601 -57.771,-46.285L-59.265,-50.403C-59.771,-51.773 -60.122,-53.189 -60.558,-54.581C-60.962,-55.98 -61.415,-57.369 -61.778,-58.778L-62.789,-63.026C-65.292,-74.372 -66.875,-85.959 -66.584,-97.664C-66.386,-103.501 -65.791,-109.355 -64.479,-115.085C-63.229,-120.824 -61.213,-126.418 -58.472,-131.635C-55.712,-136.842 -52.172,-141.654 -47.93,-145.731C-43.697,-149.819 -38.822,-153.196 -33.589,-155.777C-28.347,-158.343 -22.772,-160.154 -17.086,-161.235C-14.242,-161.775 -11.367,-162.134 -8.481,-162.269C-7.038,-162.323 -5.592,-162.321 -4.151,-162.227C-3.432,-162.185 -2.712,-162.107 -2,-161.994C-1.644,-161.936 -1.289,-161.866 -0.941,-161.767C-0.604,-161.666 -0.221,-161.564 0,-161.272" style="fill:rgb(97,95,214);fill-rule:nonzero;"/>
                </g>
                <g transform="matrix(1,0,0,1,884.627,638.657)">
                    <path d="M0,163.266L-1.926,162.723C6.123,134.154 2.722,108.124 -12.035,85.364C-54.021,20.602 -174.972,2.158 -176.189,1.978L-175.897,0C-174.673,0.18 -52.829,18.764 -10.358,84.275C4.726,107.54 8.21,134.117 0,163.266Z" style="fill:none;fill-rule:nonzero;stroke:rgb(73,71,161);stroke-width:2px;"/>
                </g>
                <g transform="matrix(1,0,0,1,691.371,631.139)">
                    <path d="M0,11.523C3.432,11.038 18.374,8.598 24.307,2.375C24.446,2.227 24.558,2.101 24.647,1.994C21.482,2.204 10.175,6.484 -0.229,11.037L0,11.523ZM18.939,8.369C10.702,12.253 0.109,13.536 -0.477,13.602L-1.191,13.687L-2.914,10.034L-1.976,9.619C24.713,-2.164 26.237,0.004 26.739,0.718C27.549,1.87 26.246,3.238 25.755,3.752C24.005,5.592 21.594,7.117 18.939,8.369Z" style="fill:none;fill-rule:nonzero;stroke:rgb(73,71,161);stroke-width:2px;"/>
                </g>
                <g transform="matrix(1,0,0,1,690.172,750.854)">
                    <path d="M0,-108.253L-138.267,-52.745L-207.264,-24.658C-218.734,-19.913 -230.237,-15.222 -241.569,-10.172C-252.525,-4.274 -264.536,-0.567 -276.693,1.855C-264.546,-0.652 -252.59,-4.429 -241.678,-10.398C-230.362,-15.531 -218.897,-20.297 -207.456,-25.12L-138.644,-53.672L-0.747,-110.108L0,-108.253Z" style="fill:none;fill-rule:nonzero;stroke:rgb(73,71,161);stroke-width:2px;"/>
                </g>
                <g transform="matrix(1,0,0,1,556.312,1028.46)">
                    <path d="M0,-132.098C-3.114,-126.346 -5.381,-120.216 -7.05,-113.975C-8.752,-107.739 -9.709,-101.338 -10.069,-94.937C-10.692,-82.116 -8.479,-69.271 -3.802,-57.365L-1.973,-52.927L0.074,-48.578L4.619,-40.009L7.061,-35.827C7.884,-34.438 8.655,-33.012 9.574,-31.689C11.353,-28.999 13.072,-26.264 15.026,-23.703C18.853,-18.533 23.005,-13.552 27.868,-9.329C30.319,-7.26 32.843,-5.227 35.641,-3.621C36.317,-3.175 37.035,-2.811 37.756,-2.448L38.835,-1.893L39.95,-1.421C41.432,-0.771 42.981,-0.24 44.6,0C41.306,-0.112 38.12,-1.27 35.123,-2.64C32.086,-3.999 29.346,-5.891 26.631,-7.804C21.314,-11.8 16.705,-16.644 12.558,-21.794C8.295,-26.882 4.801,-32.512 1.331,-38.129C-0.293,-41 -1.833,-43.916 -3.413,-46.814L-5.582,-51.311C-6.229,-52.845 -6.905,-54.369 -7.527,-55.914C-9.905,-62.141 -11.671,-68.619 -12.65,-75.222C-13.621,-81.825 -13.794,-88.54 -13.171,-95.163C-12.819,-98.471 -12.345,-101.762 -11.63,-105.002C-10.901,-108.239 -10,-111.43 -8.916,-114.551C-6.688,-120.762 -3.872,-126.799 0,-132.098" style="fill:rgb(97,95,214);fill-rule:nonzero;"/>
                </g>
                <g transform="matrix(-0.583681,0.811983,0.811983,0.583681,655.838,182.872)">
                    <path d="M-14.044,-30.145C-14.044,-30.145 14.077,-68.935 19.679,-55.6C25.28,-42.263 14.688,-6.132 -14.044,12.75C-23.83,19.183 -32.475,17.35 -29.874,3.428C-27.272,-10.493 -14.044,-30.145 -14.044,-30.145Z" style="fill:none;fill-rule:nonzero;stroke:rgb(97,95,214);stroke-width:1.6px;"/>
                </g>
                <g transform="matrix(1,0,0,1,659.172,175.732)">
                    <path d="M0,-5.158C-3.954,-6.259 -7.927,-7.27 -11.943,-8.057C-15.946,-8.887 -19.985,-9.562 -24.038,-9.874C-28.064,-10.136 -32.206,-10.229 -35.961,-9.086C-36.876,-8.781 -37.772,-8.386 -38.393,-7.845C-39.039,-7.286 -39.128,-6.719 -38.8,-5.997C-38.432,-5.283 -37.735,-4.596 -36.967,-4.022C-36.191,-3.445 -35.36,-2.91 -34.477,-2.448C-30.963,-0.547 -27.068,0.732 -23.161,1.81C-19.242,2.896 -15.232,3.652 -11.205,4.301C-9.188,4.6 -7.163,4.875 -5.13,5.071C-3.098,5.298 -1.082,5.398 0.959,5.358C5.032,5.318 9.111,4.801 13.122,3.944C11.162,4.56 9.153,5.018 7.127,5.376C5.1,5.738 3.052,6.003 0.988,6.142C-1.07,6.269 -3.163,6.232 -5.214,6.078C-7.271,5.954 -9.321,5.749 -11.371,5.521C-15.469,5.044 -19.536,4.287 -23.549,3.275C-27.548,2.216 -31.517,0.938 -35.242,-1.045C-36.172,-1.539 -37.07,-2.12 -37.934,-2.772C-38.787,-3.434 -39.628,-4.198 -40.204,-5.314C-40.45,-5.894 -40.662,-6.589 -40.48,-7.314C-40.313,-8.011 -39.895,-8.607 -39.427,-8.989C-38.488,-9.79 -37.446,-10.199 -36.42,-10.525C-34.344,-11.079 -32.239,-11.386 -30.149,-11.401L-28.582,-11.427C-28.061,-11.424 -27.543,-11.385 -27.023,-11.357L-25.468,-11.265L-23.924,-11.094C-15.699,-10.124 -7.712,-7.97 0,-5.158" style="fill:rgb(97,95,214);fill-rule:nonzero;"/>
                </g>
                <g transform="matrix(-0.27727,0.960792,0.960792,0.27727,668.595,147.183)">
                    <path d="M34.757,-62.95L47.603,-62.95C47.603,-62.95 63.518,-48.707 57.382,-18.027C51.246,12.651 40.509,21.399 40.509,21.399L18.065,21.4" style="fill:none;fill-rule:nonzero;stroke:rgb(97,95,214);stroke-width:1.6px;"/>
                </g>
                <g transform="matrix(1,0,0,1,606.697,273.954)">
                    <path d="M0,-86.105C0,-86.105 -18.441,-30.96 -21.051,-20.538C-21.051,-20.538 6.55,0 38.15,-7.843C38.15,-7.843 56.424,-63.503 60.938,-78.134" style="fill:none;fill-rule:nonzero;stroke:rgb(97,95,214);stroke-width:1.6px;"/>
                </g>
                <g transform="matrix(1,0,0,1,603.187,217.103)">
                    <path d="M0,-18.295C3.103,-15.194 6.732,-12.447 10.525,-10.094C14.327,-7.72 18.383,-5.738 22.608,-4.217L24.187,-3.626L25.802,-3.142C26.882,-2.835 27.951,-2.475 29.044,-2.213C31.244,-1.751 33.433,-1.194 35.679,-0.974C40.141,-0.269 44.676,-0.351 49.188,-0.584C44.688,-0.218 40.138,0 35.631,-0.576C33.362,-0.733 31.144,-1.227 28.907,-1.629C27.796,-1.86 26.708,-2.192 25.605,-2.47L23.958,-2.912L22.345,-3.462C18.021,-4.876 13.847,-6.765 9.908,-9.065C5.958,-11.366 2.236,-13.991 -1.154,-17.187L0,-18.295Z" style="fill:rgb(97,95,214);fill-rule:nonzero;"/>
                </g>
                <g transform="matrix(1,0,0,1,654.509,225.503)">
                    <path d="M0,11.378C-4.513,11.637 -8.968,11.534 -13.433,11.23C-17.891,10.911 -22.326,10.33 -26.71,9.483C-31.092,8.619 -35.394,7.385 -39.578,5.851C-43.749,4.259 -47.718,2.192 -51.427,-0.259C-47.643,2.082 -43.632,4.018 -39.441,5.475C-35.236,6.875 -30.935,7.97 -26.565,8.696C-22.194,9.405 -17.785,9.849 -13.366,10.031C-8.955,10.202 -4.5,10.166 -0.145,9.784L0,11.378Z" style="fill:rgb(97,95,214);fill-rule:nonzero;"/>
                </g>
                <g transform="matrix(1,0,0,1,651.477,237.434)">
                    <path d="M0,8.819C-4.683,8.958 -9.324,8.853 -13.977,8.623C-18.622,8.369 -23.263,7.999 -27.871,7.358C-32.475,6.702 -37.066,5.917 -41.562,4.716C-46.046,3.502 -50.462,1.986 -54.593,-0.139C-50.402,1.867 -45.961,3.248 -41.465,4.328C-36.959,5.394 -32.369,6.044 -27.775,6.563C-23.178,7.069 -18.553,7.304 -13.932,7.423C-9.314,7.52 -4.672,7.49 -0.087,7.221L0,8.819Z" style="fill:rgb(97,95,214);fill-rule:nonzero;"/>
                </g>
                <g transform="matrix(1,0,0,1,643.786,248.319)">
                    <path d="M0,10.464C-2.188,10.602 -4.366,10.567 -6.539,10.45C-8.711,10.327 -10.879,10.142 -13.027,9.797L-16.235,9.178C-17.302,8.952 -18.366,8.723 -19.438,8.549C-20.512,8.387 -21.582,8.207 -22.661,8.077C-23.737,7.933 -24.826,7.86 -25.904,7.715C-26.985,7.591 -28.073,7.494 -29.153,7.345C-30.23,7.184 -31.305,6.997 -32.378,6.807C-34.519,6.394 -36.671,6.002 -38.773,5.388C-42.957,4.19 -47.187,2.659 -50.715,-0.001L-50.632,-0.138C-46.653,1.611 -42.5,2.68 -38.331,3.74C-37.3,4.04 -36.249,4.277 -35.205,4.545C-34.16,4.808 -33.125,5.11 -32.068,5.334C-29.962,5.81 -27.865,6.342 -25.756,6.852C-23.648,7.364 -21.518,7.785 -19.365,8.035C-17.211,8.285 -15.032,8.33 -12.871,8.475C-10.71,8.633 -8.565,8.918 -6.419,9.216C-4.272,9.509 -2.132,9.869 0.01,10.304L0,10.464Z" style="fill:rgb(97,95,214);fill-rule:nonzero;"/>
                </g>
                <g transform="matrix(1,0,0,1,586.357,277.554)">
                    <path d="M0,-26.748C0,-26.748 -16.452,-26.299 -12.774,-23.136C-9.098,-19.972 23.456,0 48.771,-1.276C74.085,-2.553 59.2,-13.434 59.2,-13.434" style="fill:none;fill-rule:nonzero;stroke:rgb(97,95,214);stroke-width:1.6px;"/>
                </g>
                <g transform="matrix(-0.277277,0.96079,0.96079,0.277277,640.97,249.644)">
                    <path d="M23.272,-64.204L43.627,-64.204C43.627,-64.204 61.426,-40.655 54.826,-11.455C48.226,17.744 42.426,19.533 42.426,19.533L17.426,14.471" style="fill:none;fill-rule:nonzero;stroke:rgb(97,95,214);stroke-width:1.6px;"/>
                </g>
                <g transform="matrix(1,0,0,1,653.322,264.737)">
                    <path d="M0,-24.527L0.635,-26.471C1.016,-26.478 38.291,-27.077 62.388,-12.981C86.026,0.858 158.901,-17.049 159.636,-17.232L160.021,-15.68C157.002,-14.928 85.771,2.55 61.579,-11.599C37.865,-25.472 0.377,-24.535 0,-24.527" style="fill:rgb(73,71,161);fill-rule:nonzero;"/>
                </g>
                <g transform="matrix(1,0,0,1,812.584,298.28)">
                    <path d="M0,-44.733C0.223,-45.482 0.353,-46.366 0.368,-47.184C0.384,-48.014 0.277,-48.833 0.006,-49.569C-0.255,-50.314 -0.745,-50.923 -1.355,-51.391C-1.952,-51.891 -2.752,-52.13 -3.541,-52.351L-2.783,-53.333L27.055,9.331L-4.026,-52.726L-4.696,-54.064L-3.268,-53.708C-2.317,-53.47 -1.33,-53.193 -0.499,-52.545C0.335,-51.941 1.033,-51.08 1.395,-50.114C1.771,-49.156 1.912,-48.15 1.914,-47.171C1.907,-46.18 1.8,-45.252 1.528,-44.256L0,-44.733Z" style="fill:rgb(73,71,161);fill-rule:nonzero;"/>
                </g>
                <g transform="matrix(1,0,0,1,846.175,524.827)">
                    <path d="M0,-108.069C0,-108.069 -4.148,-116.611 -8.085,-121.972C-12.021,-127.334 -26.162,-144.667 -26.162,-144.667C-26.162,-144.667 -36.578,-157.642 -43.664,-162.954C-50.749,-168.264 -56.217,-169.37 -61.725,-169.119C-67.233,-168.867 -76.14,-161.645 -76.14,-161.645L-115.795,-131.865C-115.795,-131.865 -149.161,-106.172 -153.021,-102.579C-156.88,-98.986 -174.063,-83.568 -174.063,-83.568L-190.702,-69.321L-220.062,-43.744C-220.062,-43.744 -221.557,-35.161 -220.573,-27.501C-219.59,-19.841 -212.795,-9.548 -208.206,-3.376C-203.617,2.796 -196.864,9.512 -191.336,11.981C-185.808,14.449 -179.332,18.406 -170.66,12.323C-161.988,6.24 -166.318,6.523 -161.341,8.206C-156.362,9.89 -148.142,12.542 -146.416,20.858C-144.69,29.173 -143.507,40.699 -143.507,40.699C-143.507,40.699 -142.963,52.26 -136.384,56.76C-129.804,61.259 -122.871,61.301 -122.871,61.301L-61.525,25.743C-61.525,25.743 -49.09,18.792 -44.467,15.058C-39.844,11.324 -32.036,5.934 -26.403,2.614C-20.771,-0.707 0.306,-12.241 0.306,-12.241L45.906,-35.322C45.906,-35.322 37.514,-37.284 34.581,-38.812C31.649,-40.341 24.253,-43.841 19.095,-51.772C13.938,-59.702 9.666,-76.826 9.666,-76.826C9.666,-76.826 5.89,-93.985 3.252,-100.374C0.615,-106.763 0,-108.069 0,-108.069" style="fill:rgb(73,71,161);fill-rule:nonzero;"/>
                </g>
                <g transform="matrix(1,0,0,1,681.975,403.256)">
                    <path d="M0,129.177C22.331,133.076 18.304,149.114 21.292,166.386C24.28,183.657 41.329,182.872 41.329,182.872C41.329,182.872 114.157,142.087 128.104,130.697C142.049,119.305 210.106,86.249 210.106,86.249C210.106,86.249 188.289,83.968 179.26,62.426C170.229,40.883 174.008,20.899 150.157,-8.302C126.307,-37.502 113.849,-54.48 95.643,-45.252C77.436,-36.023 81.531,-15.035 128.007,20.709C128.007,20.709 155.071,40.868 160.381,28.826C160.381,28.826 166.406,13.099 154.6,-2.542" style="fill:none;fill-rule:nonzero;stroke:rgb(97,95,214);stroke-width:1px;"/>
                </g>
                <g transform="matrix(1,0,0,1,774.689,551.535)">
                    <path d="M0,-191.809C0,-191.809 -70.959,-139.231 -82.404,-128.494C-93.849,-117.756 -97.012,-114.965 -107.132,-106.414C-117.252,-97.863 -148.575,-70.452 -148.575,-70.452C-148.575,-70.452 -156.71,-51.702 -133.072,-25.851C-109.435,0 -96.932,-16.497 -96.932,-16.497L64.582,-116.271" style="fill:none;fill-rule:nonzero;stroke:rgb(97,95,214);stroke-width:1px;"/>
                </g>
                <g transform="matrix(1,0,0,1,746.115,489.156)">
                    <path d="M0,-94.18C-4.855,-90.276 -9.759,-86.448 -14.695,-82.665C-19.636,-78.888 -24.58,-75.118 -29.604,-71.454L-37.191,-66.023C-39.716,-64.204 -42.257,-62.408 -44.721,-60.51C-47.189,-58.618 -49.641,-56.704 -52.064,-54.755C-54.48,-52.797 -56.844,-50.773 -59.233,-48.784C-68.683,-40.689 -78.221,-32.72 -87.572,-24.54C-96.98,-16.426 -106.33,-8.26 -115.504,0.163L-115.646,0.023C-107.364,-9.295 -98.295,-17.887 -88.973,-26.15C-86.611,-28.182 -84.26,-30.225 -81.875,-32.229L-74.643,-38.144C-72.248,-40.134 -69.787,-42.043 -67.334,-43.959C-64.887,-45.884 -62.413,-47.777 -59.918,-49.639C-54.951,-53.394 -49.988,-57.148 -45.119,-61.022C-40.246,-64.892 -35.493,-68.921 -30.608,-72.782C-28.165,-74.711 -25.692,-76.601 -23.178,-78.436C-20.677,-80.288 -18.159,-82.118 -15.615,-83.912C-10.541,-87.519 -5.392,-91.022 -0.116,-94.343L0,-94.18Z" style="fill:rgb(97,95,214);fill-rule:nonzero;"/>
                </g>
                <g transform="matrix(1,0,0,1,762.857,501.675)">
                    <path d="M0,-103.839C-9.816,-94.064 -19.942,-84.595 -30.452,-75.551C-40.998,-66.594 -51.913,-57.848 -64.107,-51.111C-70.026,-47.625 -75.676,-43.639 -81.158,-39.445C-83.921,-37.377 -86.634,-35.237 -89.344,-33.097L-93.406,-29.879L-97.428,-26.607C-108.196,-17.931 -118.674,-8.886 -129.19,0.134L-129.319,-0.004C-119.531,-9.825 -109.213,-19.095 -98.63,-28.064C-93.319,-32.526 -87.867,-36.825 -82.275,-40.946C-76.688,-45.068 -70.929,-48.987 -64.854,-52.425C-52.669,-58.94 -41.721,-67.469 -31.061,-76.274C-20.411,-85.106 -10.119,-94.384 -0.133,-103.973L0,-103.839Z" style="fill:rgb(97,95,214);fill-rule:nonzero;"/>
                </g>
                <g transform="matrix(1,0,0,1,785.963,515.347)">
                    <path d="M0,-102.377C-5.498,-97.976 -11.104,-93.717 -16.695,-89.434C-22.323,-85.201 -27.987,-81.017 -33.685,-76.873C-39.37,-72.712 -45.174,-68.716 -51.027,-64.782C-52.489,-63.797 -53.96,-62.823 -55.448,-61.872C-56.925,-60.906 -58.413,-59.956 -59.927,-59.039C-61.446,-58.115 -62.914,-57.174 -64.374,-56.231C-65.854,-55.321 -67.271,-54.285 -68.701,-53.279C-74.428,-49.25 -80.01,-44.976 -85.493,-40.579C-88.256,-38.406 -90.961,-36.159 -93.693,-33.947L-101.834,-27.235C-107.267,-22.765 -112.639,-18.22 -118.002,-13.662L-134.105,0C-129.02,-4.871 -123.81,-9.608 -118.611,-14.36C-113.369,-19.062 -108.1,-23.734 -102.774,-28.346C-97.476,-32.989 -92.039,-37.472 -86.571,-41.921C-81.106,-46.372 -75.545,-50.714 -69.786,-54.825C-68.33,-55.832 -66.895,-56.863 -65.369,-57.786C-63.863,-58.741 -62.359,-59.687 -60.864,-60.578C-59.36,-61.475 -57.875,-62.405 -56.398,-63.355C-54.912,-64.287 -53.44,-65.244 -51.976,-66.215C-46.098,-70.063 -40.329,-74.086 -34.521,-78.055C-28.729,-82.049 -22.977,-86.102 -17.239,-90.177L0,-102.377Z" style="fill:rgb(97,95,214);fill-rule:nonzero;"/>
                </g>
                <g transform="matrix(1,0,0,1,809.495,531.617)">
                    <path d="M0,-99.507C-4.817,-93.59 -10.382,-88.298 -16.358,-83.528C-22.358,-78.796 -28.842,-74.588 -35.855,-71.446C-37.599,-70.645 -39.426,-70.028 -41.201,-69.315C-42.968,-68.641 -44.757,-68.019 -46.511,-67.302C-50.027,-65.889 -53.511,-64.373 -56.917,-62.694C-63.734,-59.346 -70.327,-55.549 -76.768,-51.527C-83.194,-47.479 -89.535,-43.302 -95.771,-38.989C-98.876,-36.819 -101.959,-34.608 -104.918,-32.281C-107.839,-29.908 -110.924,-27.546 -113.987,-25.317C-126.36,-16.427 -139.005,-7.971 -151.896,0.126L-152.006,-0.035C-139.818,-9.148 -127.431,-17.976 -115.216,-26.992L-110.663,-30.392C-109.145,-31.532 -107.717,-32.707 -106.166,-33.883C-103.105,-36.204 -99.968,-38.371 -96.804,-40.503C-90.467,-44.747 -83.95,-48.706 -77.313,-52.443C-70.682,-56.19 -63.981,-59.801 -57.199,-63.26C-53.813,-64.999 -50.399,-66.692 -46.938,-68.299C-45.21,-69.109 -43.437,-69.822 -41.685,-70.589C-39.966,-71.371 -38.222,-72.076 -36.536,-72.918C-34.854,-73.767 -33.155,-74.574 -31.521,-75.516L-29.053,-76.89L-26.63,-78.347C-24.991,-79.281 -23.456,-80.385 -21.865,-81.4C-20.332,-82.5 -18.758,-83.548 -17.27,-84.714C-14.239,-86.971 -11.286,-89.343 -8.439,-91.842C-5.593,-94.34 -2.791,-96.905 -0.148,-99.633L0,-99.507Z" style="fill:rgb(97,95,214);fill-rule:nonzero;"/>
                </g>
                <g transform="matrix(1,0,0,1,867.591,575.468)">
                    <path d="M0,-99.507C-4.816,-93.59 -10.381,-88.298 -16.358,-83.528C-22.357,-78.796 -28.842,-74.588 -35.854,-71.446C-37.598,-70.645 -39.426,-70.028 -41.201,-69.315C-42.968,-68.641 -44.756,-68.019 -46.511,-67.302C-50.027,-65.889 -53.51,-64.373 -56.916,-62.694C-63.733,-59.346 -70.327,-55.549 -76.768,-51.527C-83.194,-47.479 -89.535,-43.302 -95.771,-38.989C-98.875,-36.819 -101.959,-34.608 -104.918,-32.281C-107.838,-29.908 -110.924,-27.546 -113.986,-25.317C-126.36,-16.427 -139.005,-7.97 -151.896,0.126L-152.006,-0.034C-139.818,-9.148 -127.431,-17.976 -115.216,-26.992L-110.662,-30.392C-109.145,-31.532 -107.716,-32.706 -106.165,-33.883C-103.105,-36.204 -99.968,-38.371 -96.804,-40.503C-90.466,-44.747 -83.95,-48.706 -77.313,-52.443C-70.682,-56.19 -63.981,-59.801 -57.199,-63.26C-53.813,-64.999 -50.398,-66.692 -46.938,-68.299C-45.21,-69.109 -43.437,-69.822 -41.685,-70.589C-39.965,-71.371 -38.221,-72.076 -36.536,-72.918C-34.854,-73.767 -33.154,-74.574 -31.521,-75.516L-29.053,-76.89L-26.63,-78.347C-24.991,-79.281 -23.456,-80.385 -21.864,-81.4C-20.331,-82.5 -18.757,-83.548 -17.27,-84.714C-14.239,-86.971 -11.286,-89.343 -8.438,-91.842C-5.593,-94.34 -2.791,-96.905 -0.148,-99.633L0,-99.507Z" style="fill:rgb(97,95,214);fill-rule:nonzero;"/>
                </g>
                <g transform="matrix(1,0,0,1,833.091,530.545)">
                    <path d="M0,-55.825C-7.443,-50.981 -14.936,-46.226 -22.482,-41.563C-30.014,-36.874 -37.598,-32.274 -45.17,-27.657L-67.961,-13.933L-79.354,-7.068C-83.166,-4.8 -86.931,-2.469 -90.622,0C-83.677,-5.549 -76.222,-10.416 -68.787,-15.258C-61.34,-20.093 -53.784,-24.749 -46.206,-29.366C-38.608,-33.953 -30.977,-38.48 -23.28,-42.897C-15.596,-47.337 -7.836,-51.646 0,-55.825" style="fill:rgb(97,95,214);fill-rule:nonzero;"/>
                </g>
                <g transform="matrix(1,0,0,1,838.951,531.52)">
                    <path d="M0,-84.71C-11.031,-77.909 -22.101,-71.226 -33.284,-64.717C-38.896,-61.497 -44.573,-58.379 -50.103,-55.013C-52.883,-53.356 -55.58,-51.566 -58.3,-49.814C-61.035,-48.085 -63.692,-46.234 -66.362,-44.405L-82.334,-33.375L-98.216,-22.237C-108.863,-14.892 -119.308,-7.28 -129.912,0.177L-130.036,0.019C-127.578,-2.091 -125.099,-4.179 -122.601,-6.243C-120.106,-8.314 -117.591,-10.359 -115.013,-12.323L-107.302,-18.247C-104.703,-20.184 -102.065,-22.065 -99.448,-23.979C-94.184,-27.761 -88.781,-31.344 -83.387,-34.935C-77.975,-38.499 -72.509,-41.981 -66.958,-45.324C-61.445,-48.728 -55.899,-52.073 -50.445,-55.564L-34.141,-66.144C-28.639,-69.565 -23.029,-72.812 -17.36,-75.949C-11.678,-79.062 -5.958,-82.11 -0.095,-84.887L0,-84.71Z" style="fill:rgb(97,95,214);fill-rule:nonzero;"/>
                </g>
                <g transform="matrix(1,0,0,1,815.719,396.377)">
                    <path d="M0,-6.298C0,-6.298 -17.064,-21.956 -21.049,-14.755C-25.033,-7.555 -4.325,14.665 -0.102,15.162C4.122,15.658 12.479,8.175 0,-6.298Z" style="fill:none;fill-rule:nonzero;stroke:rgb(97,95,214);stroke-width:1px;"/>
                </g>
                <g transform="matrix(1,0,0,1,818.82,397.263)">
                    <path d="M0,-9.088C0,-9.088 -24.634,-31.692 -30.385,-21.297C-36.136,-10.903 -6.244,21.171 -0.147,21.888C5.949,22.604 18.012,11.802 0,-9.088Z" style="fill:none;fill-rule:nonzero;stroke:rgb(97,95,214);stroke-width:1px;"/>
                </g>
                <g transform="matrix(1,0,0,1,821.939,398.156)">
                    <path d="M0,-11.898C0,-11.898 -32.247,-41.488 -39.776,-27.88C-47.305,-14.274 -8.174,27.714 -0.193,28.653C7.788,29.59 23.58,15.449 0,-11.898Z" style="fill:none;fill-rule:nonzero;stroke:rgb(97,95,214);stroke-width:1px;"/>
                </g>
                <g transform="matrix(1,0,0,1,812.03,395.323)">
                    <path d="M0,-2.977C0,-2.977 -8.062,-10.373 -9.943,-6.972C-11.826,-3.571 -2.043,6.926 -0.048,7.161C1.947,7.396 5.896,3.86 0,-2.977Z" style="fill:none;fill-rule:nonzero;stroke:rgb(97,95,214);stroke-width:1px;"/>
                </g>
                <g transform="matrix(1,0,0,1,72.9365,163.003)">
                    <path d="M0,226.597L15.494,291.425C15.494,291.425 12.807,298.305 48.591,285.811C84.376,273.317 236.558,253.927 253.937,250.336C271.315,246.746 348.042,240.798 358.826,224.835C369.609,208.872 359.573,195.156 356.352,161.011C353.129,126.866 339.671,9.655 332.947,-11.048C326.224,-31.751 301.039,-62.812 301.039,-62.812C301.039,-62.812 284.534,-71.708 244.488,-64.915C204.442,-58.122 133.649,-40.847 118.65,-36.134C103.652,-31.423 15.468,-3.454 15.468,-3.454C15.468,-3.454 -11.376,2.648 -8.564,37.485C-5.753,72.321 -5.697,109.172 5.414,114.412C16.525,119.652 76.357,114.459 96.688,95.523C96.688,95.523 87.037,56.89 116.039,50.732C145.041,44.574 166.572,41.85 166.572,41.85C166.572,41.85 179.388,46.181 182.974,70.974C186.56,95.766 192.837,149.839 192.837,149.839C192.837,149.839 198.511,166.223 172.616,170.616C146.722,175.008 74.815,189.373 74.815,189.373L69.31,195.263L42.967,200.661C42.967,200.661 38.792,197.962 43.808,196.492C48.824,195.021 47.365,193.72 47.365,193.72C47.365,193.72 24.629,196.647 15.857,201.542C7.085,206.438 -3.399,212.372 0,226.597Z" style="fill:none;fill-rule:nonzero;stroke:rgb(97,95,214);stroke-width:2px;"/>
                </g>
                <g transform="matrix(1,0,0,1,210.702,428.568)">
                    <path d="M0,-88.52C0,-88.52 -5.43,-82.232 -0.682,-72.505C4.065,-62.779 10.385,-27.298 10.385,-27.298L15.016,0" style="fill:none;fill-rule:nonzero;stroke:rgb(97,95,214);stroke-width:2px;"/>
                </g>
                <g transform="matrix(0.179355,0.983784,0.983784,-0.179355,193.417,227.802)">
                    <path d="M179.046,-145.292C179.046,-145.292 183.356,-115.762 179.629,-98.001C175.899,-80.24 175.617,-3.882 179.046,26.619C182.476,57.118 176.671,131.407 176.671,131.407C176.671,131.407 172.056,203.016 176.468,214.222" style="fill:none;fill-rule:nonzero;stroke:rgb(97,95,214);stroke-width:2px;"/>
                </g>
                <g transform="matrix(1,0,0,1,397.939,199.312)">
                    <path d="M0,-64.394C0,-64.394 30.068,-71.791 36.076,-68.779C42.085,-65.767 48.539,-57.714 51.849,-41.353C55.158,-24.993 56.665,-12.957 56.665,-12.957C56.665,-12.957 57.644,-4.039 45.676,1.019C33.709,6.078 17.485,7.397 17.485,7.397" style="fill:none;fill-rule:nonzero;stroke:rgb(97,95,214);stroke-width:2px;"/>
                </g>
                <g transform="matrix(1,0,0,1,440.836,195.507)">
                    <path d="M0,-59.207C0,-59.207 -3.17,-46.002 1.251,-34.639C5.673,-23.276 13.828,-9.578 10.043,0" style="fill:none;fill-rule:nonzero;stroke:rgb(97,95,214);stroke-width:2px;"/>
                </g>
                <g transform="matrix(1,0,0,1,305.668,54.9813)">
                    <path d="M0,45.229L-3.239,20.316C-3.239,20.316 -2.777,14.762 -5.779,15.272C-8.781,15.781 -14.098,18.368 -14.098,18.368C-14.098,18.368 -17.021,14.372 -14.931,13.456C-12.84,12.54 19.705,0 45.688,0.084C45.688,0.084 49.106,2.032 46.163,7.023C46.163,7.023 37.178,7.845 35.955,9.737C34.731,11.628 40.393,40.553 40.393,40.553" style="fill:none;fill-rule:nonzero;stroke:rgb(97,95,214);stroke-width:2px;"/>
                </g>
                <g transform="matrix(1,0,0,1,334.61,219.265)">
                    <path d="M0,-61.405C1.114,-62.164 2.267,-62.89 3.529,-63.394C4.772,-63.934 6.084,-64.314 7.417,-64.584C8.752,-64.854 10.12,-64.966 11.49,-64.948C12.871,-64.939 14.214,-64.817 15.625,-64.47L15.393,-64.505C19.613,-64.843 24.027,-64.621 28.229,-63.07C32.431,-61.555 36.152,-58.482 38.586,-54.682C41.074,-50.892 42.405,-46.563 43.196,-42.281C43.586,-40.129 43.766,-37.959 43.874,-35.803C43.922,-34.726 43.942,-33.649 43.946,-32.587C43.939,-32.026 43.972,-31.602 43.918,-30.93C43.89,-30.302 43.828,-29.683 43.707,-29.125C43.281,-26.825 42.579,-24.713 41.679,-22.699C41.274,-21.67 40.729,-20.718 40.251,-19.731C39.713,-18.779 39.173,-17.828 38.59,-16.906C36.232,-13.237 33.365,-9.907 30.059,-7.093C26.752,-4.286 23.028,-1.974 19.049,-0.337C15.054,1.267 10.949,2.445 6.714,3.008C2.493,3.561 -1.858,3.457 -5.986,2.336C-10.123,1.255 -13.97,-0.788 -17.345,-3.375C-20.757,-5.93 -23.799,-8.937 -26.624,-12.087C-27.321,-12.851 -28.068,-13.706 -28.707,-14.635C-29.022,-15.102 -29.348,-15.565 -29.612,-16.068C-29.902,-16.556 -30.167,-17.06 -30.395,-17.584C-31.368,-19.651 -31.883,-21.936 -32.014,-24.21C-32.242,-28.79 -30.949,-33.226 -28.935,-37.093C-26.847,-40.951 -24.317,-44.471 -20.812,-47.28C-17.354,-49.812 -13.836,-52.005 -10.347,-54.335C-6.869,-56.655 -3.397,-58.978 0,-61.405M0.231,-61.078C-3.195,-58.693 -6.52,-56.164 -9.801,-53.582C-13.047,-50.979 -16.322,-48.302 -19.305,-45.52C-20.687,-44.181 -21.891,-42.529 -22.971,-40.843C-24.066,-39.161 -25.045,-37.403 -25.852,-35.589C-26.682,-33.784 -27.36,-31.927 -27.827,-30.043C-28.326,-28.164 -28.548,-26.243 -28.505,-24.351C-28.499,-22.452 -28.112,-20.591 -27.456,-18.813C-27.303,-18.364 -27.113,-17.928 -26.9,-17.501C-26.713,-17.061 -26.463,-16.651 -26.227,-16.233C-25.743,-15.403 -25.192,-14.615 -24.555,-13.777C-22.101,-10.468 -19.454,-7.298 -16.354,-4.614C-15.597,-3.921 -14.741,-3.362 -13.937,-2.726C-13.092,-2.156 -12.233,-1.596 -11.345,-1.095C-9.53,-0.174 -7.665,0.699 -5.675,1.162C-1.727,2.198 2.453,2.207 6.454,1.395C10.453,0.578 14.356,-0.828 17.971,-2.647C21.584,-4.498 24.862,-6.904 27.794,-9.632C30.717,-12.374 33.271,-15.504 35.324,-18.923C35.831,-19.779 36.295,-20.662 36.759,-21.539C37.16,-22.444 37.636,-23.322 37.964,-24.25C38.72,-26.066 39.268,-27.972 39.545,-29.784C39.64,-30.25 39.646,-30.673 39.67,-31.088C39.715,-31.457 39.686,-32.078 39.689,-32.561C39.682,-33.587 39.658,-34.596 39.61,-35.604C39.518,-37.619 39.292,-39.61 39,-41.578C38.403,-45.509 37.216,-49.312 35.291,-52.634C34.327,-54.293 33.145,-55.801 31.785,-57.137C30.411,-58.459 28.833,-59.582 27.104,-60.494C23.612,-62.279 19.537,-63.043 15.437,-63.169L15.286,-63.174L15.203,-63.203C14.05,-63.609 12.729,-63.877 11.442,-64.005C10.143,-64.132 8.825,-64.092 7.525,-63.919C6.871,-63.856 6.231,-63.698 5.588,-63.562C4.961,-63.366 4.321,-63.2 3.719,-62.932C2.48,-62.474 1.341,-61.794 0.231,-61.078" style="fill:rgb(97,95,214);fill-rule:nonzero;"/>
                </g>
                <g transform="matrix(1,0,0,1,350.224,199.464)">
                    <path d="M0,-29.34C-2.229,-28.726 -4.373,-28.313 -6.497,-27.904L-9.659,-27.328C-10.706,-27.127 -11.75,-26.962 -12.813,-26.858C-14.928,-26.646 -17.183,-26.615 -19.219,-25.837C-21.251,-25.086 -23.046,-23.747 -24.382,-22.1C-25.076,-21.3 -25.617,-20.398 -26.16,-19.548C-26.391,-19.091 -26.689,-18.692 -26.916,-18.245C-27.126,-17.79 -27.355,-17.352 -27.575,-16.911C-28.356,-15.083 -28.742,-13.153 -29.107,-11.192C-29.182,-10.694 -29.244,-10.195 -29.342,-9.697C-29.43,-9.197 -29.431,-8.68 -29.499,-8.169C-29.639,-7.147 -29.64,-6.094 -29.718,-5.03C-29.777,-3.965 -29.726,-2.888 -29.798,-1.78C-29.781,-0.682 -29.771,0.433 -29.859,1.597L-30.246,1.701C-30.833,0.709 -31.351,-0.326 -31.807,-1.39C-32.007,-1.93 -32.201,-2.476 -32.373,-3.028C-32.542,-3.582 -32.764,-4.13 -32.851,-4.707C-33.078,-5.851 -33.358,-7.002 -33.387,-8.195C-33.421,-8.79 -33.483,-9.384 -33.457,-9.985C-33.437,-10.587 -33.381,-11.189 -33.337,-11.791C-33.039,-14.201 -32.184,-16.572 -30.917,-18.68C-30.568,-19.19 -30.23,-19.701 -29.872,-20.196C-29.495,-20.677 -29.081,-21.129 -28.659,-21.565C-27.795,-22.418 -26.815,-23.138 -25.811,-23.759C-23.79,-24.998 -21.749,-25.958 -19.746,-27.015C-17.741,-28.046 -15.751,-29.347 -13.549,-30.111C-12.453,-30.491 -11.319,-30.731 -10.176,-30.849C-9.034,-30.984 -7.887,-31.041 -6.74,-31.01C-5.595,-30.989 -4.451,-30.886 -3.317,-30.678C-2.186,-30.486 -1.062,-30.206 0.032,-29.738L0,-29.34Z" style="fill:rgb(97,95,214);fill-rule:nonzero;"/>
                </g>
                <g transform="matrix(1,0,0,1,322.289,213.184)">
                    <path d="M0,-46.48C4.145,-48.292 8.437,-49.734 12.833,-50.851C17.229,-51.956 21.742,-52.736 26.354,-52.825C30.929,-52.865 35.745,-52.227 39.978,-49.789C42.076,-48.594 43.939,-46.852 45.364,-44.957C46.823,-43.051 47.98,-40.935 48.861,-38.723C52.284,-29.852 51.958,-19.62 47.851,-11.035C45.797,-6.761 42.906,-2.875 39.303,0.155C37.505,1.67 35.543,2.965 33.486,4.038C31.398,5.058 29.231,5.866 27.01,6.385L26.873,6.009C28.859,4.933 30.763,3.793 32.525,2.483C34.281,1.162 35.888,-0.31 37.362,-1.882C38.828,-3.464 40.131,-5.18 41.263,-6.992C42.403,-8.796 43.42,-10.68 44.197,-12.665C45.804,-16.6 46.865,-20.763 47.226,-25.008C47.615,-29.242 47.246,-33.591 45.863,-37.605C44.459,-41.573 42.123,-45.356 38.626,-47.567C35.106,-49.828 30.694,-50.679 26.331,-50.825C21.937,-50.992 17.483,-50.489 13.102,-49.648C8.723,-48.782 4.374,-47.618 0.153,-46.111L0,-46.48Z" style="fill:rgb(97,95,214);fill-rule:nonzero;"/>
                </g>
                <g transform="matrix(1,0,0,1,139.764,257.591)">
                    <path d="M0,-114.124C-1.898,-112.469 -3.577,-110.552 -4.983,-108.501C-6.416,-106.463 -7.527,-104.233 -8.285,-101.926C-9.028,-99.635 -9.345,-97.16 -9.612,-94.676C-9.854,-92.187 -9.974,-89.677 -10.043,-87.161C-10.146,-82.129 -10.02,-77.078 -9.659,-72.064C-9.446,-69.561 -9.223,-67.061 -8.876,-64.601C-8.701,-63.401 -8.485,-62.087 -8.338,-60.799C-8.187,-59.511 -8.058,-58.228 -7.941,-56.947C-7.058,-46.728 -7.252,-36.495 -5.474,-26.511C-4.995,-24.055 -4.334,-21.562 -3.803,-19.058L-2.224,-11.563C-1.693,-9.074 -1.142,-6.587 -0.412,-4.186C-0.051,-2.991 0.347,-1.801 0.861,-0.745C1.117,-0.228 1.419,0.271 1.723,0.567C1.873,0.73 2.007,0.779 2.066,0.795C2.144,0.814 2.078,0.775 2.127,0.761C2.234,0.693 2.539,0.253 2.705,-0.25C2.889,-0.757 3.027,-1.327 3.144,-1.905C3.363,-3.076 3.49,-4.3 3.563,-5.532C3.694,-8.001 3.658,-10.505 3.519,-12.994C3.357,-15.479 3.132,-17.971 2.696,-20.375C2.229,-22.884 1.837,-25.435 1.437,-27.953C-0.125,-38.056 -1.594,-48.154 -2.718,-58.317L-3.467,-65.959C-3.681,-68.53 -3.937,-71.042 -3.967,-73.735C-3.958,-78.985 -3.546,-84.067 -3.041,-89.181C-2.795,-91.732 -2.484,-94.277 -2.139,-96.822C-1.966,-98.095 -1.783,-99.366 -1.567,-100.642C-1.317,-101.929 -1.176,-103.16 -0.659,-104.567C0.375,-107.137 1.908,-109.218 3.445,-111.292C5.009,-113.342 6.653,-115.307 8.419,-117.169L8.727,-116.912C7.252,-114.839 5.83,-112.724 4.513,-110.566C3.229,-108.408 1.979,-106.155 1.279,-103.915C0.987,-102.896 0.908,-101.564 0.786,-100.336C0.675,-99.082 0.576,-97.82 0.497,-96.556C0.332,-94.026 0.221,-91.49 0.102,-88.956C-0.011,-86.422 -0.083,-83.887 -0.126,-81.358C-0.177,-78.834 -0.197,-76.302 -0.092,-73.839C0.255,-68.956 0.897,-63.825 1.521,-58.805L3.326,-43.644C3.909,-38.586 4.515,-33.528 5.162,-28.483C5.487,-25.955 5.828,-23.459 6.193,-20.937C6.556,-18.305 6.725,-15.701 6.728,-13.093C6.738,-10.486 6.618,-7.882 6.279,-5.273C6.109,-3.969 5.885,-2.662 5.539,-1.346C5.356,-0.686 5.15,-0.024 4.85,0.648C4.523,1.302 4.198,2.061 3.204,2.668C2.707,2.954 1.955,3.045 1.427,2.827C0.887,2.638 0.483,2.305 0.215,1.989C-0.346,1.345 -0.644,0.697 -0.92,0.061C-1.445,-1.214 -1.773,-2.478 -2.075,-3.741C-2.651,-6.27 -3.091,-8.789 -3.557,-11.3C-3.994,-13.814 -4.479,-16.313 -4.993,-18.802C-5.477,-21.294 -6.225,-23.711 -6.745,-26.255C-7.293,-28.77 -7.729,-31.3 -8.115,-33.832C-8.532,-36.362 -8.876,-38.898 -9.236,-41.431L-11.25,-56.581C-11.415,-57.835 -11.592,-59.082 -11.788,-60.32L-12.399,-64.08C-12.79,-66.664 -13.051,-69.244 -13.193,-71.827C-13.342,-74.408 -13.406,-76.988 -13.418,-79.568C-13.41,-82.148 -13.3,-84.728 -13.14,-87.305C-12.987,-89.884 -12.685,-92.458 -12.275,-95.026C-11.857,-97.585 -11.329,-100.18 -10.279,-102.671C-9.26,-105.142 -7.802,-107.385 -6.09,-109.359C-4.378,-111.338 -2.42,-113.066 -0.228,-114.453L0,-114.124Z" style="fill:rgb(97,95,214);fill-rule:nonzero;"/>
                </g>
                <g transform="matrix(0.901687,-0.43239,-0.43239,-0.901687,132.503,129.06)">
                    <path d="M3.406,2.855L18.552,2.855L11.623,-16.931L-0.971,-15.756L3.406,2.855Z" style="fill:none;fill-rule:nonzero;stroke:rgb(97,95,214);stroke-width:2.32px;"/>
                </g>
                <g transform="matrix(1,0,0,1,283.581,90.9725)">
                    <path d="M0,13.688C0,13.688 -2.163,0.966 0.687,0.483C3.539,0 4.547,2.298 4.903,4.4C5.26,6.501 8.698,12.212 8.698,12.212" style="fill:none;fill-rule:nonzero;stroke:rgb(97,95,214);stroke-width:2px;"/>
                </g>
                <g transform="matrix(1,0,0,1,252.006,72.1766)">
                    <path d="M0,39.312L-4.078,15.274C-4.078,15.274 -19.449,20.216 -21.635,18.252C-23.82,16.288 -23.95,14.612 -23.95,14.612C-23.95,14.612 10.488,0.124 27.604,0L31.577,6.119C31.577,6.119 16.885,14.168 15.984,14.322C15.084,14.474 18.166,35.381 18.166,35.381" style="fill:none;fill-rule:nonzero;stroke:rgb(97,95,214);stroke-width:2px;"/>
                </g>
                <g transform="matrix(1,0,0,1,138.701,102.137)">
                    <path d="M0,34.001C0,34.001 74.286,10.746 96.148,7.673C118.011,4.601 128.597,0 128.597,0" style="fill:none;fill-rule:nonzero;stroke:rgb(73,71,161);stroke-width:1.97px;"/>
                </g>
                <g transform="matrix(-0.952307,0.305141,0.305141,0.952307,153.975,143.455)">
                    <path d="M-109.564,-17.125C-109.564,-17.125 -10.958,-21.768 2.677,-17.125" style="fill:none;fill-rule:nonzero;stroke:rgb(73,71,161);stroke-width:2.07px;"/>
                </g>
                <g transform="matrix(-0.983055,0.183312,0.183312,0.983055,139.561,332.355)">
                    <path d="M8.533,-57.87C8.533,-57.87 9.317,-21.582 9.29,-11.544C9.261,-1.505 11.574,0.92 8.533,0.211C5.489,-0.496 5.111,-0.49 5.015,-6.36C4.92,-12.23 1.323,-57.817 1.323,-57.817" style="fill:none;fill-rule:nonzero;stroke:rgb(97,95,214);stroke-width:2px;"/>
                </g>
                <g transform="matrix(-0.985958,0.166993,0.166993,0.985958,127.709,335.107)">
                    <rect x="-3.033" y="-0.254" width="2.003" height="12.507" style="fill:rgb(97,95,214);"/>
                </g>
                <g transform="matrix(1,0,0,1,139.323,277.344)">
                    <path d="M0,67.205L-0.62,69.535C-0.66,69.284 -5.075,42.174 -6.405,35.391C-7.751,28.52 -9.257,-0.977 -9.32,-2.23L-7.323,-2.33C-7.308,-2.024 -5.761,28.276 -4.441,35.006C-3.106,41.821 -0.041,66.955 0,67.205" style="fill:rgb(73,71,161);fill-rule:nonzero;"/>
                </g>
                <g transform="matrix(1,0,0,1,142.63,273.918)">
                    <path d="M0,70.086C-0.273,68.611 -6.701,33.842 -6.61,22.529C-6.521,11.399 -8.383,0.449 -8.401,0.34L-6.431,0C-6.411,0.111 -4.52,11.238 -4.611,22.545L0.662,67.662L0,70.086Z" style="fill:rgb(73,71,161);fill-rule:nonzero;"/>
                </g>
                <g transform="matrix(-0.985915,0.167245,0.167245,0.985915,138.245,298.425)">
                    <path d="M-6.847,0.452L1.357,0.452L1.356,-0.548L-8.406,-0.549L-6.847,0.452Z" style="fill:rgb(73,71,161);fill-rule:nonzero;"/>
                </g>
                <g transform="matrix(-0.212741,-0.977109,-0.977109,0.212741,149.307,329.544)">
                    <path d="M4.045,7.872L6.043,7.872L6.578,-2.181L5.864,-3.59L4.045,7.872Z" style="fill:rgb(73,71,161);fill-rule:nonzero;"/>
                </g>
                <g transform="matrix(-0.999942,-0.0107295,-0.0107295,0.999942,91.5855,198.927)">
                    <path d="M0.89,-15.96C0.89,-15.96 5.269,-14.996 6.765,-8.322C8.262,-1.647 4.885,0.513 0.89,-0.209C-3.106,-0.932 -7.527,-7.961 -5.193,-12.212C-2.86,-16.464 0.89,-15.96 0.89,-15.96Z" style="fill:none;fill-rule:nonzero;stroke:rgb(97,95,214);stroke-width:1.81px;"/>
                </g>
                <g transform="matrix(1,0,0,1,91.8916,197.092)">
                    <path d="M0,-14.308C0,-14.308 6.059,-15.892 7.791,-12.214C7.791,-12.214 12.589,0.509 -1.637,1.584" style="fill:none;fill-rule:nonzero;stroke:rgb(97,95,214);stroke-width:1.85px;"/>
                </g>
                <g transform="matrix(1,0,0,1,351.609,313.685)">
                    <path d="M0,-45.895C2.963,-46.403 5.916,-46.725 8.97,-46.579C11.985,-46.389 15.165,-45.601 17.851,-43.8C20.565,-42.05 22.725,-39.536 24.3,-36.823C24.692,-36.147 25.094,-35.472 25.41,-34.674L25.909,-33.52L26.262,-32.301C26.363,-31.89 26.52,-31.49 26.571,-31.068L26.738,-29.802C26.893,-28.958 26.796,-28.108 26.812,-27.259C26.646,-23.853 25.4,-20.705 23.787,-17.98C22.174,-15.231 20.182,-12.829 18.05,-10.629C15.913,-8.435 13.666,-6.382 11.266,-4.553C10.061,-3.62 8.893,-2.755 7.577,-1.887C6.263,-0.997 4.791,-0.299 3.257,0.167C1.724,0.64 0.104,0.83 -1.482,0.747C-3.07,0.642 -4.611,0.252 -6.046,-0.332C-8.919,-1.518 -11.371,-3.419 -13.496,-5.573C-15.65,-7.712 -17.497,-10.144 -19.128,-12.731C-19.929,-14.034 -20.663,-15.385 -21.314,-16.785C-21.946,-18.192 -22.494,-19.646 -22.93,-21.147C-23.142,-21.9 -23.324,-22.664 -23.465,-23.44C-23.596,-24.244 -23.71,-25.124 -23.672,-25.979C-23.643,-27.703 -23.22,-29.409 -22.525,-30.935C-21.128,-34.024 -18.741,-36.297 -16.26,-38.111C-13.75,-39.931 -11.021,-41.274 -8.304,-42.531C-5.557,-43.75 -2.837,-44.877 0,-45.895M0.098,-45.506C-5.416,-43.545 -10.597,-40.24 -14.605,-36.172C-16.595,-34.142 -18.31,-31.907 -19.272,-29.524C-19.756,-28.334 -20.036,-27.111 -20.091,-25.873C-20.141,-25.245 -20.069,-24.648 -20.015,-23.985C-19.923,-23.297 -19.815,-22.609 -19.684,-21.919C-18.618,-16.437 -16.443,-10.793 -12.561,-6.461C-10.637,-4.31 -8.236,-2.543 -5.566,-1.602C-2.901,-0.621 0.036,-0.759 2.511,-1.892C3.754,-2.445 4.92,-3.175 5.959,-4.085C6.483,-4.491 7.033,-5.048 7.57,-5.523C8.112,-6.012 8.667,-6.489 9.187,-6.999C11.331,-8.975 13.37,-11.033 15.262,-13.183C17.137,-15.339 18.852,-17.617 20.149,-20.039C21.434,-22.456 22.397,-24.988 22.548,-27.528C22.538,-28.157 22.657,-28.798 22.543,-29.42C22.48,-30.047 22.445,-30.68 22.262,-31.291L22.049,-32.221L21.701,-33.122C21.575,-33.423 21.5,-33.723 21.347,-34.037L20.893,-34.976C20.296,-36.237 19.603,-37.419 18.864,-38.581C18.053,-39.666 17.253,-40.797 16.226,-41.698C15.751,-42.201 15.182,-42.578 14.646,-43.022C14.062,-43.382 13.496,-43.806 12.855,-44.092C11.618,-44.766 10.24,-45.192 8.828,-45.497C5.993,-46.079 2.972,-45.976 0.098,-45.506" style="fill:rgb(97,95,214);fill-rule:nonzero;"/>
                </g>
                <g transform="matrix(1,0,0,1,340.882,315.942)">
                    <path d="M0,-57.387L3.034,-58.615C4.038,-59.058 5.104,-59.278 6.13,-59.65C7.153,-60.033 8.224,-60.247 9.288,-60.5C9.821,-60.617 10.351,-60.767 10.891,-60.857L12.518,-61.104C16.858,-61.729 21.434,-61.561 25.782,-60.207C26.866,-59.877 27.911,-59.425 28.981,-59.021C29.99,-58.504 31.037,-58.023 32.002,-57.418C33.943,-56.225 35.797,-54.861 37.421,-53.271L38.659,-52.096L39.797,-50.833C40.571,-50.001 41.251,-49.101 41.937,-48.202C42.651,-47.323 43.24,-46.366 43.88,-45.438L44.35,-44.733L44.801,-43.955C45.115,-43.443 45.371,-42.906 45.625,-42.366C47.592,-38.022 48.219,-33.256 47.824,-28.67C47.434,-24.073 46.101,-19.603 43.98,-15.561C41.897,-11.498 38.964,-7.898 35.494,-4.992C33.739,-3.562 31.868,-2.291 29.898,-1.213C27.908,-0.177 25.878,0.767 23.762,1.454C19.571,2.973 15.164,3.549 10.842,4.006C8.664,4.18 6.481,4.342 4.29,4.28C2.103,4.232 -0.098,4.128 -2.269,3.728C-6.602,3.025 -10.943,1.484 -14.546,-1.351C-16.338,-2.76 -17.929,-4.469 -19.191,-6.398C-20.454,-8.327 -21.422,-10.445 -22.097,-12.635C-22.752,-14.831 -23.184,-17.088 -23.321,-19.353C-23.455,-21.626 -23.493,-23.851 -23.136,-26.136C-22.558,-30.739 -20.686,-34.995 -18.304,-38.739C-15.898,-42.494 -12.95,-45.783 -9.861,-48.85C-6.744,-51.912 -3.501,-54.741 0,-57.387M0.197,-57.038C-3.216,-54.491 -6.352,-51.433 -9.107,-48.154C-11.871,-44.868 -14.239,-41.264 -16.084,-37.488C-17.933,-33.716 -19.223,-29.739 -19.612,-25.738C-20.046,-21.677 -19.837,-17.46 -18.889,-13.528C-17.944,-9.592 -16.089,-5.843 -13.103,-3.021C-11.629,-1.598 -9.893,-0.434 -8.019,0.485C-6.135,1.386 -4.112,2.033 -2.037,2.453C2.129,3.263 6.46,3.21 10.692,2.656C12.809,2.38 14.932,1.999 16.978,1.45C18.015,1.22 19.011,0.846 20.024,0.553C21.011,0.175 22.018,-0.148 22.974,-0.589C30.717,-3.908 37.076,-9.883 40.618,-17.249C42.401,-20.919 43.453,-24.937 43.666,-28.964C43.876,-32.977 43.354,-37.051 41.742,-40.599C41.547,-41.043 41.353,-41.489 41.108,-41.903L40.765,-42.538L40.351,-43.192C39.784,-44.057 39.265,-44.961 38.632,-45.776C38.027,-46.612 37.428,-47.454 36.745,-48.222L35.766,-49.415L34.712,-50.533C31.867,-53.463 28.638,-56.075 24.856,-57.743C21.097,-59.417 16.871,-60.232 12.62,-60.018L11.021,-59.94C10.489,-59.902 9.968,-59.78 9.438,-59.704C8.385,-59.527 7.317,-59.389 6.288,-59.078L4.734,-58.655C4.215,-58.516 3.699,-58.366 3.206,-58.162L0.197,-57.038Z" style="fill:rgb(97,95,214);fill-rule:nonzero;"/>
                </g>
                <g transform="matrix(1,0,0,1,186.74,953.877)">
                    <path d="M0,52.613C0,52.613 1.402,37.119 -8.298,17.831C-17.997,-1.457 -37.055,-15.229 -50.503,-21.404C-63.95,-27.578 -83.33,-28.66 -94.063,-14.868C-104.798,-1.076 -107.984,7.665 -101.95,20.932C-95.917,34.199 -77.876,54.273 -57.948,67.044C-38.021,79.815 -30.437,79.781 -27.594,78.991C-24.751,78.201 -9.84,81.273 -3.812,73.322C2.216,65.371 0,52.613 0,52.613" style="fill:rgb(73,71,161);fill-rule:nonzero;"/>
                </g>
                <g transform="matrix(1,0,0,1,158.103,1016.38)">
                    <path d="M0,-69.716C-5.97,-74.807 -12.471,-79.167 -18.979,-82.523C-27.334,-86.831 -37.044,-89.303 -46.449,-87.854C-56.104,-86.365 -64.207,-79.695 -70.002,-72.134C-83.717,-54.241 -71.751,-33.681 -58.46,-19.681C-51.253,-12.09 -43.108,-5.403 -34.631,0.716C-26.775,6.384 -19.429,11.941 -9.949,14.564C2.332,17.963 28.031,19.587 28.62,1.238C29.094,-13.55 28.085,-28.646 21.748,-42.246C16.99,-52.46 9.115,-61.941 0,-69.716Z" style="fill:none;fill-rule:nonzero;stroke:rgb(97,95,214);stroke-width:1.36px;"/>
                </g>
                <g transform="matrix(1,0,0,1,103.043,979.72)">
                    <path d="M0,-36.963C3.382,-38.919 7.156,-40.088 10.992,-40.835C11.953,-41.024 12.925,-41.149 13.896,-41.287C14.873,-41.359 15.848,-41.488 16.83,-41.51C17.811,-41.56 18.793,-41.583 19.775,-41.526C20.267,-41.51 20.758,-41.495 21.248,-41.458L22.712,-41.286C26.621,-40.784 30.367,-39.537 33.979,-38.175C37.592,-36.79 41.117,-35.18 44.491,-33.212C47.889,-31.274 50.954,-28.774 53.718,-25.997L55.734,-23.857C56.415,-23.15 56.993,-22.359 57.628,-21.611C58.919,-20.13 59.969,-18.476 61.072,-16.862C65.285,-10.27 68.238,-2.98 70.034,4.528L69.779,4.62C66.345,-2.278 62.911,-9.061 58.65,-15.274L57.063,-17.604C56.56,-18.401 55.937,-19.103 55.396,-19.87C54.823,-20.612 54.305,-21.403 53.688,-22.108L51.858,-24.245C51.273,-24.985 50.559,-25.593 49.924,-26.286C49.275,-26.965 48.626,-27.646 47.923,-28.266C47.227,-28.895 46.554,-29.558 45.851,-30.185L43.659,-31.98C40.657,-34.271 37.306,-36.178 33.687,-37.345C30.071,-38.544 26.252,-38.891 22.521,-39.034C15.049,-39.422 7.535,-38.659 0.112,-36.716L0,-36.963Z" style="fill:rgb(97,95,214);fill-rule:nonzero;"/>
                </g>
                <g transform="matrix(1,0,0,1,94.8838,1026.19)">
                    <path d="M0,-58.789C1.123,-55.079 2.518,-51.506 4.062,-48.018C5.63,-44.534 7.404,-41.174 9.249,-37.835C11.079,-34.494 12.985,-31.119 15.438,-28.141C17.873,-25.155 20.724,-22.518 23.801,-20.217C25.361,-19.093 26.909,-17.963 28.528,-16.941C29.342,-16.435 30.105,-15.863 30.928,-15.375L33.368,-13.879C36.669,-11.963 40.059,-10.217 43.532,-8.641C50.428,-5.367 57.636,-2.745 65.016,-0.266L64.959,0C57.19,-0.773 49.541,-2.859 42.331,-6.005C40.522,-6.781 38.775,-7.692 37.05,-8.639C36.175,-9.089 35.354,-9.641 34.51,-10.143C33.679,-10.671 32.813,-11.14 32.013,-11.715C28.701,-13.844 25.662,-16.375 22.835,-19.086L20.747,-21.147L18.727,-23.268C18.042,-23.962 17.392,-24.687 16.733,-25.406C16.409,-25.768 16.07,-26.119 15.732,-26.47L14.77,-27.568C12.18,-30.471 9.511,-33.38 7.317,-36.661C5.137,-39.942 3.438,-43.535 2.107,-47.238C0.834,-50.957 -0.159,-54.807 -0.27,-58.754L0,-58.789Z" style="fill:rgb(97,95,214);fill-rule:nonzero;"/>
                </g>
                <g transform="matrix(1,0,0,1,119.201,962.411)">
                    <path d="M0,6.232C-1.073,5.548 -2.191,4.866 -3.103,3.836C-3.553,3.326 -3.95,2.718 -4.141,1.989C-4.346,1.272 -4.287,0.384 -3.863,-0.368C-3.404,-1.1 -2.635,-1.569 -1.899,-1.731C-1.157,-1.901 -0.433,-1.881 0.255,-1.778C1.639,-1.58 2.871,-0.946 3.929,-0.159C4.979,0.645 5.913,1.558 6.684,2.621C7.063,3.154 7.422,3.726 7.64,4.399C7.85,5.062 7.87,5.884 7.497,6.617C7.098,7.329 6.357,7.802 5.64,7.957C4.918,8.133 4.197,8.065 3.54,7.898C2.211,7.564 1.102,6.866 0,6.232M0.071,6.116C1.145,6.787 2.438,7.084 3.642,7.052C4.839,7.013 5.976,6.765 6.534,6.024C7.133,5.289 6.977,3.89 6.316,2.865C5.674,1.803 4.634,1.022 3.539,0.475C2.422,-0.042 1.251,-0.405 0.103,-0.509C-1.04,-0.618 -2.194,-0.31 -2.629,0.391C-3.104,1.087 -2.855,2.263 -2.359,3.341C-1.857,4.436 -1.002,5.449 0.071,6.116" style="fill:rgb(97,95,214);fill-rule:nonzero;"/>
                </g>
                <g transform="matrix(1,0,0,1,141.832,968.535)">
                    <path d="M0,7.996C-1.388,7.114 -2.795,6.183 -3.914,4.843C-4.468,4.176 -4.948,3.398 -5.179,2.486C-5.423,1.587 -5.346,0.501 -4.826,-0.412C-4.266,-1.303 -3.328,-1.878 -2.413,-2.087C-1.49,-2.304 -0.576,-2.287 0.297,-2.161C2.051,-1.911 3.638,-1.138 5.015,-0.16C6.381,0.842 7.604,2.004 8.581,3.378C9.064,4.066 9.507,4.809 9.764,5.665C10.014,6.51 10.016,7.53 9.547,8.424C9.046,9.294 8.137,9.874 7.24,10.075C6.337,10.3 5.427,10.233 4.584,10.045C2.883,9.667 1.421,8.821 0,7.996M0.071,7.88C1.464,8.742 3.11,9.186 4.686,9.198C6.24,9.205 7.812,8.901 8.584,7.832C9.381,6.759 9.077,4.946 8.215,3.622C7.365,2.249 6.034,1.219 4.625,0.474C3.189,-0.236 1.668,-0.753 0.145,-0.894C-1.355,-1.048 -2.945,-0.685 -3.593,0.347C-4.265,1.38 -3.87,2.97 -3.171,4.347C-2.462,5.753 -1.316,7.015 0.071,7.88" style="fill:rgb(97,95,214);fill-rule:nonzero;"/>
                </g>
                <g transform="matrix(1,0,0,1,120.074,985.681)">
                    <path d="M0,-0.105C0.071,-1.749 0.175,-3.432 0.777,-5.072C1.079,-5.883 1.513,-6.688 2.188,-7.343C2.845,-8.003 3.824,-8.479 4.875,-8.485C5.927,-8.444 6.893,-7.918 7.531,-7.23C8.18,-6.539 8.622,-5.738 8.948,-4.919C9.607,-3.275 9.73,-1.514 9.57,0.167C9.384,1.851 8.987,3.492 8.285,5.025C7.93,5.787 7.507,6.541 6.895,7.191C6.287,7.829 5.403,8.339 4.396,8.38C3.391,8.38 2.436,7.882 1.812,7.206C1.168,6.535 0.771,5.714 0.513,4.89C-0.009,3.226 -0.007,1.539 0,-0.105M0.136,-0.101C0.084,1.536 0.521,3.184 1.297,4.555C2.067,5.906 3.115,7.117 4.428,7.249C5.755,7.404 7.174,6.237 7.891,4.83C8.656,3.407 8.885,1.74 8.827,0.146C8.726,-1.452 8.413,-3.028 7.773,-4.418C7.159,-5.795 6.05,-6.991 4.834,-7.038C3.603,-7.103 2.423,-5.967 1.579,-4.674C0.714,-3.358 0.193,-1.736 0.136,-0.101" style="fill:rgb(97,95,214);fill-rule:nonzero;"/>
                </g>
                <g transform="matrix(1,0,0,1,153.559,1002.72)">
                    <path d="M0,-12.192C2.086,-11.064 4.266,-9.97 6.139,-8.196C7.052,-7.303 7.88,-6.227 8.355,-4.887C8.825,-3.569 8.877,-1.878 8.154,-0.398C7.396,1.063 5.992,2.042 4.634,2.45C3.263,2.875 1.9,2.938 0.6,2.826C-2.015,2.627 -4.396,1.607 -6.464,0.265C-8.513,-1.12 -10.382,-2.673 -11.956,-4.554C-12.75,-5.488 -13.479,-6.512 -13.995,-7.733C-14.502,-8.936 -14.672,-10.491 -14.055,-11.921C-13.405,-13.327 -12.072,-14.317 -10.747,-14.712C-9.408,-15.13 -8.057,-15.096 -6.804,-14.873C-4.278,-14.385 -2.136,-13.219 0,-12.192M-0.125,-11.951C-2.206,-13.052 -4.663,-13.413 -6.886,-13.144C-9.099,-12.894 -11.119,-12.264 -12.048,-10.88C-12.494,-10.174 -12.713,-9.204 -12.554,-8.143C-12.4,-7.086 -11.918,-6.026 -11.265,-5.092C-9.926,-3.217 -7.898,-1.89 -5.778,-1.054C-3.631,-0.266 -1.412,0.24 0.721,0.261C1.781,0.256 2.82,0.109 3.696,-0.229C4.572,-0.582 5.205,-1.096 5.58,-1.734C6.32,-3.022 5.775,-5.151 4.714,-7.088C3.674,-9.07 1.957,-10.858 -0.125,-11.951" style="fill:rgb(97,95,214);fill-rule:nonzero;"/>
                </g>
                <g transform="matrix(1,0,0,1,759.024,76.9165)">
                    <path d="M0,38.661C0,38.661 8.799,45.997 24.544,48.196C40.29,50.396 56.611,44.617 65.982,39.056C75.354,33.494 84.123,22.208 80.262,9.931C76.4,-2.346 72.438,-7.937 61.876,-9.836C51.313,-11.735 31.599,-9.211 15.519,-2.485C-0.561,4.24 -3.715,8.848 -4.427,10.9C-5.139,12.954 -13.243,20.701 -10.95,27.682C-8.657,34.662 0,38.661 0,38.661" style="fill:rgb(73,71,161);fill-rule:nonzero;"/>
                </g>
                <g transform="matrix(1,0,0,1,807.253,67.7897)">
                    <path d="M0,55.486C5.584,54.002 10.947,51.888 15.705,49.35C21.812,46.092 27.375,41.246 30.436,34.941C33.576,28.469 32.927,20.768 30.773,14.091C25.676,-1.708 8.211,-3.067 -5.835,-0.877C-13.451,0.31 -20.912,2.444 -28.167,5.019C-34.89,7.404 -41.333,9.528 -46.891,14.173C-54.091,20.189 -65.834,35.078 -54.966,43.116C-46.205,49.595 -36.638,55.304 -25.746,57.16C-17.566,58.553 -8.526,57.753 0,55.486Z" style="fill:none;fill-rule:nonzero;stroke:rgb(97,95,214);stroke-width:1px;"/>
                </g>
                <g transform="matrix(1,0,0,1,832.674,120.227)">
                    <path d="M0,-28.669C-0.229,-25.802 -1.103,-23.026 -2.256,-20.39C-3.42,-17.755 -4.965,-15.262 -6.89,-13.101C-8.844,-10.955 -11.142,-9.184 -13.491,-7.577C-15.843,-5.969 -18.294,-4.508 -20.898,-3.287C-26.12,-0.82 -32.012,0.036 -37.746,-0.088C-43.505,-0.289 -49.153,-1.571 -54.456,-3.614L-54.404,-3.808C-48.791,-2.988 -43.24,-2.248 -37.694,-2.221C-36.31,-2.214 -34.926,-2.184 -33.547,-2.268C-32.161,-2.276 -30.79,-2.43 -29.415,-2.579C-26.689,-2.983 -23.953,-3.456 -21.297,-4.308C-18.653,-5.167 -16.094,-6.398 -13.872,-8.103C-11.645,-9.803 -9.81,-11.947 -8.174,-14.159C-4.81,-18.523 -2.127,-23.395 -0.196,-28.705L0,-28.669Z" style="fill:rgb(97,95,214);fill-rule:nonzero;"/>
                </g>
                <g transform="matrix(1,0,0,1,821.162,86.3232)">
                    <path d="M0,-10.026C-5.437,-11.771 -10.978,-12.676 -16.565,-13.195C-19.354,-13.503 -22.198,-13.726 -25.029,-13.505C-27.857,-13.28 -30.647,-12.657 -33.331,-11.756C-36.004,-10.817 -38.617,-9.775 -41.176,-8.614C-43.718,-7.417 -46.195,-6.094 -48.604,-4.65C-53.47,-1.838 -58.089,1.416 -62.673,4.858L-62.81,4.712C-59.08,0.34 -54.627,-3.436 -49.698,-6.481C-47.24,-8.018 -44.595,-9.239 -41.919,-10.341C-39.243,-11.456 -36.438,-12.237 -33.612,-12.815C-30.782,-13.393 -27.938,-13.77 -25.096,-14.15C-22.253,-14.521 -19.374,-14.884 -16.468,-14.857C-13.566,-14.804 -10.679,-14.33 -7.879,-13.585C-5.093,-12.799 -2.345,-11.79 0.092,-10.204L0,-10.026Z" style="fill:rgb(97,95,214);fill-rule:nonzero;"/>
                </g>
                <g transform="matrix(1,0,0,1,810.229,95.1391)">
                    <path d="M0,-4.631C0.863,-4.994 1.744,-5.386 2.75,-5.508C3.248,-5.567 3.782,-5.553 4.304,-5.362C4.823,-5.187 5.337,-4.779 5.615,-4.208C5.866,-3.623 5.828,-2.961 5.619,-2.447C5.411,-1.927 5.096,-1.496 4.745,-1.123C4.046,-0.367 3.146,0.114 2.227,0.425C1.299,0.724 0.354,0.908 -0.611,0.93C-1.093,0.936 -1.59,0.914 -2.089,0.765C-2.578,0.614 -3.085,0.282 -3.372,-0.25C-3.636,-0.79 -3.613,-1.437 -3.406,-1.937C-3.211,-2.448 -2.868,-2.856 -2.492,-3.184C-1.733,-3.85 -0.846,-4.229 0,-4.631M0.04,-4.539C-0.815,-4.17 -1.537,-3.511 -2.021,-2.768C-2.499,-2.027 -2.825,-1.235 -2.61,-0.586C-2.416,0.085 -1.503,0.576 -0.605,0.605C0.307,0.661 1.216,0.357 2.006,-0.076C2.786,-0.537 3.496,-1.095 4.041,-1.746C4.585,-2.393 4.882,-3.221 4.639,-3.778C4.416,-4.357 3.6,-4.698 2.738,-4.85C1.865,-5.004 0.894,-4.909 0.04,-4.539" style="fill:rgb(97,95,214);fill-rule:nonzero;"/>
                </g>
                <g transform="matrix(1,0,0,1,795.975,106.945)">
                    <path d="M0,-6.03C1.115,-6.501 2.268,-6.97 3.55,-7.081C4.186,-7.137 4.857,-7.103 5.506,-6.86C6.153,-6.632 6.778,-6.131 7.114,-5.433C7.42,-4.721 7.375,-3.912 7.119,-3.27C6.863,-2.62 6.471,-2.073 6.029,-1.597C5.144,-0.64 4.011,-0.003 2.842,0.422C1.663,0.83 0.446,1.085 -0.795,1.102C-1.414,1.107 -2.049,1.063 -2.676,0.862C-3.292,0.658 -3.91,0.233 -4.256,-0.426C-4.573,-1.093 -4.544,-1.886 -4.29,-2.514C-4.048,-3.156 -3.627,-3.679 -3.16,-4.111C-2.223,-4.988 -1.094,-5.514 0,-6.03M0.04,-5.938C-1.065,-5.456 -2.02,-4.639 -2.69,-3.695C-3.345,-2.756 -3.819,-1.676 -3.494,-0.761C-3.178,0.171 -1.953,0.746 -0.79,0.778C0.398,0.838 1.579,0.463 2.621,-0.079C3.652,-0.651 4.603,-1.357 5.325,-2.22C6.047,-3.065 6.491,-4.18 6.139,-5.004C5.793,-5.843 4.665,-6.27 3.539,-6.423C2.391,-6.577 1.146,-6.417 0.04,-5.938" style="fill:rgb(97,95,214);fill-rule:nonzero;"/>
                </g>
                <g transform="matrix(1,0,0,1,799.606,89.5246)">
                    <path d="M0,-5.577C0.964,-4.846 1.946,-4.082 2.683,-3.026C3.049,-2.504 3.354,-1.904 3.468,-1.221C3.593,-0.547 3.471,0.246 3.035,0.885C2.57,1.505 1.847,1.87 1.163,1.969C0.472,2.072 -0.198,2.005 -0.831,1.86C-2.103,1.57 -3.221,0.907 -4.172,0.107C-5.114,-0.711 -5.942,-1.638 -6.577,-2.705C-6.89,-3.24 -7.169,-3.811 -7.307,-4.455C-7.438,-5.09 -7.379,-5.839 -6.98,-6.467C-6.561,-7.075 -5.859,-7.445 -5.188,-7.539C-4.512,-7.649 -3.848,-7.547 -3.241,-7.357C-2.013,-6.982 -0.993,-6.267 0,-5.577M-0.06,-5.496C-1.029,-6.214 -2.213,-6.633 -3.367,-6.742C-4.507,-6.841 -5.68,-6.713 -6.31,-5.974C-6.959,-5.234 -6.847,-3.886 -6.293,-2.862C-5.752,-1.803 -4.838,-0.967 -3.849,-0.335C-2.838,0.273 -1.752,0.743 -0.643,0.939C0.449,1.143 1.638,0.971 2.175,0.254C2.73,-0.465 2.537,-1.654 2.106,-2.707C1.667,-3.779 0.907,-4.777 -0.06,-5.496" style="fill:rgb(97,95,214);fill-rule:nonzero;"/>
                </g>
                <g transform="matrix(1,0,0,1,782.587,93.8965)">
                    <path d="M0,8.263C-1.556,9.055 -3.132,9.922 -4.991,10.303C-5.912,10.489 -6.914,10.544 -7.921,10.261C-8.924,10.005 -9.951,9.308 -10.558,8.265C-11.115,7.192 -11.13,5.935 -10.81,4.941C-10.493,3.931 -9.961,3.08 -9.349,2.339C-8.134,0.838 -6.52,-0.177 -4.84,-0.868C-3.144,-1.53 -1.419,-2.009 0.379,-2.178C1.277,-2.265 2.203,-2.281 3.158,-2.082C4.1,-1.884 5.112,-1.337 5.72,-0.365C6.299,0.618 6.335,1.84 6.026,2.808C5.716,3.792 5.13,4.597 4.473,5.264C3.119,6.588 1.519,7.403 0,8.263M-0.094,8.086C1.443,7.284 2.693,5.951 3.46,4.491C4.238,3.051 4.704,1.553 4.249,0.415C4.009,-0.15 3.512,-0.689 2.803,-1.037C2.099,-1.385 1.255,-1.54 0.415,-1.531C-1.281,-1.508 -2.934,-0.834 -4.327,0.1C-5.704,1.071 -6.939,2.203 -7.846,3.487C-8.748,4.761 -9.185,6.306 -8.673,7.266C-8.21,8.27 -6.68,8.805 -5.064,8.989C-3.429,9.177 -1.629,8.89 -0.094,8.086" style="fill:rgb(97,95,214);fill-rule:nonzero;"/>
                </g>
                <g transform="matrix(1,0,0,1,442.993,981.327)">
                    <path d="M0,-37.944C0,-37.944 -2.571,-8.264 -2.571,-5.655C-2.571,-3.045 -3.479,0 -1.286,-1.305" style="fill:none;fill-rule:nonzero;stroke:rgb(97,95,214);stroke-width:1px;"/>
                </g>
                <g transform="matrix(1,0,0,1,401.881,837.381)">
                    <path d="M0,53.257C0,53.257 5.328,46.237 6.466,34.062C7.604,21.885 2.59,9.546 -2.013,2.54C-6.616,-4.466 -15.597,-10.807 -24.896,-7.41C-34.193,-4.012 -38.35,-0.771 -39.438,7.412C-40.527,15.596 -37.896,30.656 -32.163,42.777C-26.431,54.896 -22.779,57.158 -21.176,57.633C-19.573,58.108 -13.336,64.064 -8.053,62.056C-2.769,60.049 0,53.257 0,53.257" style="fill:rgb(73,71,161);fill-rule:nonzero;"/>
                </g>
                <g transform="matrix(1,0,0,1,406.103,879.761)">
                    <path d="M0,-26.454C-1.336,-30.692 -3.148,-34.739 -5.266,-38.307C-7.983,-42.886 -11.903,-46.989 -16.855,-49.119C-21.938,-51.306 -27.834,-50.537 -32.889,-48.647C-44.851,-44.176 -45.281,-30.707 -43.105,-19.991C-41.926,-14.181 -40.023,-8.522 -37.791,-3.037C-35.722,2.045 -33.863,6.921 -30.1,11.028C-25.223,16.351 -13.37,24.852 -7.574,16.218C-2.903,9.259 1.147,1.706 2.19,-6.728C2.975,-13.062 2.042,-19.981 0,-26.454Z" style="fill:none;fill-rule:nonzero;stroke:rgb(97,95,214);stroke-width:0.77px;"/>
                </g>
                <g transform="matrix(1,0,0,1,380.838,875.853)">
                    <path d="M0,-40.966C2.207,-40.873 4.377,-40.327 6.441,-39.524C8.507,-38.722 10.477,-37.622 12.205,-36.219C13.922,-34.792 15.364,-33.089 16.681,-31.34C18,-29.589 19.208,-27.757 20.237,-25.798C22.302,-21.868 23.19,-17.378 23.288,-12.965C23.336,-8.532 22.548,-4.147 21.164,0L21.014,-0.033C21.447,-4.376 21.82,-8.667 21.647,-12.93C21.604,-13.993 21.578,-15.059 21.466,-16.115C21.41,-17.18 21.244,-18.228 21.081,-19.279C20.685,-21.362 20.217,-23.445 19.468,-25.456C18.714,-27.458 17.678,-29.381 16.291,-31.028C14.906,-32.681 13.194,-34.015 11.437,-35.195C7.965,-37.626 4.128,-39.517 -0.021,-40.814L0,-40.966Z" style="fill:rgb(97,95,214);fill-rule:nonzero;"/>
                </g>
                <g transform="matrix(1,0,0,1,369.516,891.953)">
                    <path d="M0,-47.685C-0.583,-45.567 -0.949,-43.424 -1.284,-41.292C-1.541,-39.145 -1.75,-37.003 -1.83,-34.845C-1.895,-33.766 -1.999,-32.681 -1.947,-31.596C-1.924,-30.51 -1.974,-29.409 -1.771,-28.334C-1.586,-27.262 -1.474,-26.169 -1.158,-25.124C-0.854,-24.076 -0.486,-23.046 -0.154,-22.014C0.243,-21.001 0.747,-20.031 1.15,-19.028C1.374,-18.535 1.549,-18.022 1.812,-17.548L2.575,-16.116C3.098,-15.169 3.542,-14.183 4.125,-13.274C4.726,-12.374 5.291,-11.456 5.866,-10.542C6.153,-10.085 6.403,-9.603 6.722,-9.166L7.683,-7.859C8.318,-6.982 8.948,-6.099 9.567,-5.203C10.895,-3.482 12.328,-1.838 13.638,-0.047L13.53,0.063C11.86,-1.366 10.194,-2.838 8.642,-4.422C7.915,-5.258 7.199,-6.108 6.49,-6.964L5.434,-8.256C5.089,-8.694 4.812,-9.179 4.497,-9.638C3.903,-10.581 3.301,-11.52 2.733,-12.478C2.178,-13.443 1.763,-14.487 1.272,-15.485L0.57,-16.999C0.343,-17.506 0.204,-18.052 0.017,-18.576C-0.335,-19.632 -0.673,-20.692 -0.958,-21.761C-1.197,-22.847 -1.401,-23.936 -1.667,-25.006C-1.921,-26.08 -2.034,-27.181 -2.264,-28.261C-2.519,-29.339 -2.618,-30.44 -2.802,-31.538C-3,-32.636 -3.054,-33.747 -3.11,-34.862C-3.183,-39.307 -2.289,-43.842 -0.14,-47.748L0,-47.685Z" style="fill:rgb(97,95,214);fill-rule:nonzero;"/>
                </g>
                <g transform="matrix(1,0,0,1,380.819,850.292)">
                    <path d="M0,1.879C-0.31,1.229 -0.646,0.566 -0.771,-0.203C-0.833,-0.584 -0.842,-0.995 -0.714,-1.402C-0.597,-1.808 -0.302,-2.217 0.128,-2.45C0.568,-2.664 1.078,-2.658 1.48,-2.516C1.888,-2.374 2.229,-2.146 2.528,-1.891C3.13,-1.376 3.535,-0.705 3.807,-0.009C4.07,0.692 4.243,1.412 4.294,2.153C4.316,2.524 4.316,2.906 4.22,3.294C4.121,3.676 3.884,4.077 3.484,4.317C3.079,4.538 2.581,4.543 2.19,4.402C1.79,4.27 1.465,4.021 1.199,3.743C0.658,3.187 0.339,2.514 0,1.879M0.069,1.845C0.383,2.489 0.918,3.018 1.502,3.367C2.089,3.708 2.709,3.931 3.2,3.743C3.709,3.569 4.054,2.851 4.045,2.16C4.056,1.457 3.79,0.77 3.43,0.178C3.049,-0.406 2.599,-0.935 2.074,-1.327C1.559,-1.723 0.912,-1.922 0.492,-1.716C0.056,-1.523 -0.179,-0.885 -0.264,-0.218C-0.348,0.458 -0.246,1.202 0.069,1.845" style="fill:rgb(97,95,214);fill-rule:nonzero;"/>
                </g>
                <g transform="matrix(1,0,0,1,389.317,860.358)">
                    <path d="M0,2.401C-0.401,1.56 -0.803,0.691 -0.933,-0.29C-0.998,-0.776 -0.995,-1.294 -0.832,-1.801C-0.679,-2.306 -0.315,-2.804 0.208,-3.087C0.745,-3.346 1.368,-3.34 1.87,-3.166C2.379,-2.993 2.813,-2.71 3.194,-2.388C3.961,-1.741 4.49,-0.893 4.858,-0.009C5.213,0.882 5.451,1.808 5.508,2.761C5.533,3.237 5.522,3.726 5.389,4.214C5.255,4.695 4.949,5.186 4.455,5.474C3.953,5.742 3.343,5.747 2.852,5.574C2.351,5.411 1.934,5.105 1.585,4.761C0.879,4.072 0.434,3.223 0,2.401M0.068,2.367C0.478,3.199 1.139,3.904 1.889,4.386C2.633,4.856 3.479,5.183 4.171,4.901C4.876,4.625 5.275,3.664 5.259,2.769C5.263,1.853 4.934,0.96 4.48,0.177C4.005,-0.594 3.429,-1.299 2.739,-1.825C2.065,-2.35 1.193,-2.653 0.573,-2.352C-0.061,-2.057 -0.349,-1.176 -0.427,-0.305C-0.505,0.583 -0.338,1.534 0.068,2.367" style="fill:rgb(97,95,214);fill-rule:nonzero;"/>
                </g>
                <g transform="matrix(1,0,0,1,376.151,863.326)">
                    <path d="M0,-2.761C0.527,-3.528 1.08,-4.31 1.865,-4.912C2.254,-5.211 2.704,-5.468 3.226,-5.579C3.739,-5.699 4.353,-5.633 4.858,-5.32C5.352,-4.985 5.657,-4.442 5.757,-3.919C5.86,-3.393 5.832,-2.875 5.743,-2.384C5.565,-1.397 5.096,-0.514 4.514,0.246C3.918,0.998 3.235,1.667 2.438,2.192C2.037,2.451 1.608,2.686 1.118,2.814C0.635,2.938 0.058,2.918 -0.438,2.635C-0.921,2.333 -1.23,1.806 -1.326,1.295C-1.435,0.779 -1.379,0.265 -1.255,-0.208C-1.01,-1.165 -0.496,-1.974 0,-2.761M0.063,-2.718C-0.453,-1.948 -0.733,-1.024 -0.777,-0.133C-0.813,0.747 -0.674,1.643 -0.084,2.101C0.507,2.575 1.539,2.44 2.307,1.979C3.102,1.526 3.712,0.795 4.163,0.012C4.595,-0.786 4.918,-1.637 5.028,-2.496C5.147,-3.342 4.974,-4.249 4.404,-4.637C3.832,-5.038 2.925,-4.848 2.131,-4.481C1.323,-4.105 0.582,-3.487 0.063,-2.718" style="fill:rgb(97,95,214);fill-rule:nonzero;"/>
                </g>
                <g transform="matrix(1,0,0,1,390.743,876.992)">
                    <path d="M0,-3.99C0.663,-2.822 1.385,-1.64 1.742,-0.226C1.918,0.476 1.996,1.243 1.813,2.028C1.652,2.807 1.152,3.62 0.372,4.123C-0.433,4.588 -1.399,4.647 -2.173,4.432C-2.958,4.219 -3.629,3.839 -4.222,3.399C-5.422,2.525 -6.256,1.315 -6.847,0.05C-7.425,-1.225 -7.839,-2.541 -8.037,-3.914C-8.131,-4.6 -8.188,-5.313 -8.063,-6.054C-7.938,-6.782 -7.559,-7.581 -6.831,-8.082C-6.097,-8.559 -5.157,-8.637 -4.404,-8.424C-3.636,-8.23 -2.998,-7.801 -2.462,-7.321C-1.396,-6.327 -0.715,-5.127 0,-3.99M-0.133,-3.912C-0.803,-5.064 -1.871,-5.978 -3.021,-6.515C-4.153,-7.067 -5.32,-7.373 -6.18,-6.979C-7.068,-6.606 -7.655,-5.251 -7.541,-3.965C-7.47,-2.66 -6.878,-1.421 -6.121,-0.378C-5.327,0.648 -4.411,1.553 -3.397,2.21C-2.389,2.868 -1.179,3.131 -0.462,2.71C0.293,2.319 0.65,1.124 0.735,-0.123C0.822,-1.386 0.539,-2.761 -0.133,-3.912" style="fill:rgb(97,95,214);fill-rule:nonzero;"/>
                </g>
            </g>
        </g>
    </g>
</svg>
